<svg width="110" height="87" viewBox="0 0 110 87" fill="none" xmlns="http://www.w3.org/2000/svg">
<path d="M21.2602 9.42041C25.0904 9.42041 28.1979 12.5402 28.1979 16.3787V20.939C28.1979 24.3819 25.4096 27.1785 21.9769 27.1785H20.5406C17.1079 27.1785 14.3196 24.3819 14.3196 20.939V16.3787C14.3196 12.5371 17.4301 9.42041 21.2572 9.42041H21.2602Z" fill="url(#paint0_linear_437_907)"/>
<path d="M42.6699 45.8034C42.6695 45.8034 42.6693 45.8031 42.6693 45.8028C42.6693 43.2964 42.6632 41.4001 42.6542 40.6391C42.6181 37.0874 40.0707 35.2059 39.3962 34.8133C38.7247 34.4237 29.6943 29.5916 28.9867 29.4859C28.2791 29.3802 27.7822 30.0536 27.7822 30.0536C27.7822 30.0536 21.9316 36.4804 21.4047 36.4804C20.8777 36.4804 14.997 30.0536 14.997 30.0536C14.997 30.0536 14.5002 29.3802 13.7925 29.4859C13.0849 29.5916 4.05456 34.4237 3.38308 34.8133C2.7116 35.2029 0.161175 37.0874 0.125041 40.6391C0.116365 41.37 0.113244 43.1456 0.110343 45.5083C0.110121 45.6897 0.210081 45.8567 0.370179 45.9418L6.96243 49.4493C7.12234 49.5344 7.22227 49.7008 7.22227 49.8819V72.008C7.22227 72.2786 7.44165 72.498 7.71227 72.498H35.07C35.3406 72.498 35.56 72.2786 35.56 72.008V49.8819C35.56 49.7008 35.6599 49.5344 35.8198 49.4493L42.6701 45.8045C42.6707 45.8042 42.6705 45.8034 42.6699 45.8034Z" fill="url(#paint1_linear_437_907)"/>
<path d="M0.829297 46.1865C0.503108 46.0129 0.109514 46.2474 0.109239 46.6169C0.102974 55.0506 0.120691 69.2274 0.124347 72.0145C0.124702 72.2848 0.343962 72.4983 0.614318 72.4983H6.73222C7.00284 72.4983 7.22222 72.2789 7.22222 72.0083V49.8822C7.22222 49.7011 7.12229 49.5347 6.96238 49.4496L0.829297 46.1865Z" fill="url(#paint2_linear_437_907)"/>
<path d="M35.5599 49.5879V72.4983H42.6572C42.6572 72.4983 42.6782 55.015 42.6722 45.8037L35.5599 49.5879Z" fill="#F6B9B9"/>
<path d="M89.4593 27.1816H88.023C84.5903 27.1816 81.802 24.385 81.802 20.9421V16.3818C81.802 12.5403 84.9125 9.42352 88.7396 9.42352C92.5698 9.42352 95.6772 12.5433 95.6772 16.3818V20.9421C95.6772 24.385 92.8889 27.1816 89.4563 27.1816H89.4593Z" fill="url(#paint3_linear_437_907)"/>
<path d="M67.5904 45.9417C67.4305 45.8566 67.3306 45.6898 67.3306 45.5087C67.331 43.1484 67.3369 41.37 67.3456 40.6391C67.3818 37.0874 69.9292 35.2059 70.6037 34.8133C71.2751 34.4237 80.3055 29.5916 81.0131 29.4859C81.7207 29.3802 82.2176 30.0536 82.2176 30.0536C82.2176 30.0536 88.0682 36.4804 88.5952 36.4804C89.1221 36.4804 95.0028 30.0536 95.0028 30.0536C95.0028 30.0536 95.4997 29.3802 96.2073 29.4859C96.9149 29.5916 105.945 34.4237 106.617 34.8133C107.288 35.2029 109.839 37.0874 109.875 40.6391C109.883 41.37 109.887 43.1456 109.889 45.5083C109.89 45.6897 109.79 45.8567 109.63 45.9418L103.037 49.4493C102.877 49.5344 102.778 49.7008 102.778 49.8819V72.008C102.778 72.2786 102.558 72.498 102.288 72.498H88.6132H88.6072H74.9328C74.6622 72.498 74.4428 72.2786 74.4428 72.008V49.8819C74.4428 49.7008 74.3429 49.5344 74.183 49.4493L67.5904 45.9417Z" fill="url(#paint4_linear_437_907)"/>
<path d="M109.171 46.1865C109.497 46.0129 109.89 46.2474 109.891 46.6169C109.897 55.0506 109.879 69.2274 109.875 72.0145C109.875 72.2848 109.656 72.4983 109.385 72.4983H103.268C102.997 72.4983 102.778 72.2789 102.778 72.0083V49.8822C102.778 49.7011 102.878 49.5347 103.037 49.4496L109.171 46.1865Z" fill="url(#paint5_linear_437_907)"/>
<path d="M74.4398 49.5879V72.4983H67.3426C67.3426 72.4983 67.3215 55.015 67.3275 45.8037L74.4398 49.5879Z" fill="#F6B9B9"/>
<path d="M54.4875 0C59.7711 0 64.058 4.29969 64.058 9.599V15.888C64.058 20.6378 60.2133 24.494 55.4776 24.494H53.4975C48.7617 24.494 44.917 20.6378 44.917 15.888V9.599C44.917 4.29969 49.2072 0 54.4875 0Z" fill="url(#paint6_linear_437_907)"/>
<path d="M84.0182 50.1829C84.0196 50.1829 84.0208 50.1817 84.0208 50.1802C84.0208 46.7226 84.0109 44.1088 84.001 43.0631C83.9515 38.1643 80.4368 35.5692 79.5062 35.0297C78.5788 34.4902 66.124 27.8304 65.1471 27.6815C64.1702 27.5359 63.4871 28.466 63.4871 28.466C63.4871 28.466 55.4149 37.3335 54.6888 37.3335C53.9628 37.3335 45.8477 28.466 45.8477 28.466C45.8477 28.466 45.1645 27.5359 44.1877 27.6815C43.2108 27.8271 30.756 34.4902 29.8286 35.0297C28.9013 35.5692 25.3833 38.1643 25.3338 43.0631C25.3242 44.0817 25.3177 46.5757 25.3143 49.882C25.3141 50.067 25.4161 50.2372 25.5795 50.3241L34.8569 55.2584C35.0201 55.3452 35.1221 55.5149 35.1221 55.6998V86.5C35.1221 86.7761 35.3459 87 35.6221 87H73.7094C73.9855 87 74.2094 86.7761 74.2094 86.5V55.6998C74.2094 55.5149 74.3114 55.3452 74.4746 55.2584L84.0169 50.1832C84.0173 50.183 84.0177 50.1829 84.0182 50.1829Z" fill="url(#paint7_linear_437_907)"/>
<path d="M26.0513 50.5736C25.7185 50.3965 25.3169 50.6307 25.3166 51.0077C25.3092 62.7955 25.3324 83.1246 25.3364 86.5144C25.3368 86.7903 25.5605 87.0002 25.8364 87.0002H34.6253C34.9015 87.0002 35.1253 86.7764 35.1253 86.5002V55.7001C35.1253 55.5152 35.0233 55.3454 34.8601 55.2586L26.0513 50.5736Z" fill="url(#paint8_linear_437_907)"/>
<path d="M74.4779 55.2586C74.3146 55.3454 74.2126 55.5152 74.2126 55.7001V86.5002C74.2126 86.7764 74.4365 87.0002 74.7126 87.0002H83.5016C83.7775 87.0002 84.0012 86.7903 84.0016 86.5144C84.0056 83.1246 84.0287 62.7955 84.0214 51.0077C84.0211 50.6307 83.6195 50.3965 83.2866 50.5736L74.4779 55.2586Z" fill="url(#paint9_linear_437_907)"/>
<defs>
<linearGradient id="paint0_linear_437_907" x1="19.2761" y1="25.9749" x2="30.3631" y2="14.8707" gradientUnits="userSpaceOnUse">
<stop stop-color="#00D998"/>
<stop offset="1" stop-color="#CCF7EA"/>
</linearGradient>
<linearGradient id="paint1_linear_437_907" x1="12.024" y1="65.1492" x2="37.3333" y2="14.8836" gradientUnits="userSpaceOnUse">
<stop stop-color="#00C68C"/>
<stop offset="0.780376" stop-color="#CCF7EA"/>
</linearGradient>
<linearGradient id="paint2_linear_437_907" x1="8.50049" y1="62.2582" x2="1.91308" y2="62.2582" gradientUnits="userSpaceOnUse">
<stop stop-color="#66E8C1"/>
<stop offset="1" stop-color="#E6FBF5"/>
</linearGradient>
<linearGradient id="paint3_linear_437_907" x1="87.6159" y1="23.3978" x2="96.6782" y2="12.9003" gradientUnits="userSpaceOnUse">
<stop stop-color="#00D998"/>
<stop offset="1" stop-color="#CCF7EA"/>
</linearGradient>
<linearGradient id="paint4_linear_437_907" x1="96.9399" y1="58.9637" x2="68.9587" y2="17.5135" gradientUnits="userSpaceOnUse">
<stop stop-color="#00C68C"/>
<stop offset="0.669657" stop-color="#CCF7EA"/>
</linearGradient>
<linearGradient id="paint5_linear_437_907" x1="107.5" y1="62.2582" x2="103" y2="62.2582" gradientUnits="userSpaceOnUse">
<stop stop-color="#E6FBF5"/>
<stop offset="1" stop-color="#66E8C1"/>
</linearGradient>
<linearGradient id="paint6_linear_437_907" x1="53.9198" y1="18.0779" x2="66.4006" y2="5.68923" gradientUnits="userSpaceOnUse">
<stop stop-color="#00D998"/>
<stop offset="0.780376" stop-color="#CCF7EA"/>
</linearGradient>
<linearGradient id="paint7_linear_437_907" x1="53.9198" y1="87.5651" x2="61.1696" y2="10.8542" gradientUnits="userSpaceOnUse">
<stop stop-color="#00986A"/>
<stop offset="0.468801" stop-color="#00C68C"/>
<stop offset="0.780376" stop-color="#CCF7EA"/>
</linearGradient>
<linearGradient id="paint8_linear_437_907" x1="36.888" y1="72.8771" x2="27.8044" y2="72.8771" gradientUnits="userSpaceOnUse">
<stop stop-color="#66E8C1"/>
<stop offset="0.919842" stop-color="#E6FBF5"/>
</linearGradient>
<linearGradient id="paint9_linear_437_907" x1="81.1706" y1="72.8771" x2="71.5193" y2="72.8771" gradientUnits="userSpaceOnUse">
<stop stop-color="#E6FBF5"/>
<stop offset="1" stop-color="#66E8C1"/>
</linearGradient>
</defs>
</svg>
