<svg width="24" height="25" viewBox="0 0 24 25" fill="none" xmlns="http://www.w3.org/2000/svg">
<path d="M12 2.5C17.5229 2.5 22 6.9772 22 12.5C22 18.0229 17.5229 22.5 12 22.5C6.4772 22.5 2 18.0229 2 12.5C2 6.9772 6.4772 2.5 12 2.5ZM14.29 4.8326C15.2526 6.8741 15.8427 9.1258 15.9727 11.5H19.9381C19.542 8.3235 17.2836 5.7253 14.29 4.8326ZM13.9693 11.5C13.8189 9.0612 13.1222 6.7703 12 4.748C10.8778 6.7703 10.1811 9.0612 10.0307 11.5H13.9693ZM4.0619 11.5H8.0273C8.1573 9.1258 8.7474 6.8741 9.71 4.8326C6.7164 5.7253 4.458 8.3235 4.0619 11.5ZM19.9381 13.5H15.9727C15.8427 15.8742 15.2526 18.1259 14.29 20.1674C17.2836 19.2747 19.542 16.6765 19.9381 13.5ZM13.9693 13.5H10.0307C10.1811 15.9388 10.8778 18.2297 12 20.252C13.1222 18.2297 13.8189 15.9388 13.9693 13.5ZM9.71 20.1674C8.7474 18.1259 8.1573 15.8742 8.0273 13.5H4.0619C4.458 16.6765 6.7164 19.2747 9.71 20.1674Z" fill="#808B87"/>
</svg>
