<svg width="85" height="103" viewBox="0 0 85 103" fill="none" xmlns="http://www.w3.org/2000/svg">
<g clip-path="url(#clip0_471_7018)">
<path d="M57.8378 29.1931C52.6465 25.6407 46.0053 27.089 42.5136 32.4286C39.5976 36.8884 35.199 37.4404 33.4994 37.4404C27.9496 37.4404 24.1485 33.5108 23.0244 29.4445C23.0135 29.4063 23.0027 29.3735 22.9918 29.3298C22.9809 29.286 22.9647 29.2369 22.9538 29.1931C22.5139 27.4989 22.3999 26.6845 22.3999 24.881C22.3999 15.1581 32.3101 4.33122 46.5918 4.33122C60.8734 4.33122 69.5781 15.5352 71.7339 21.7602C71.6959 21.6509 71.6633 21.5416 71.6253 21.4269C67.482 9.25551 56.0078 0.5 42.5028 0.5C25.5006 0.5 11.7131 14.3711 11.7131 31.4831C11.7131 46.7807 22.6768 59.8757 37.8816 59.8757C50.0074 59.8757 58.1582 53.033 61.8997 43.5998C63.9523 38.4405 62.497 32.3794 57.8433 29.1931H57.8378Z" fill="#858583"/>
<path d="M71.9293 22.3671C70.1319 16.2951 61.7041 4.33691 46.5971 4.33691C32.3155 4.33691 22.4053 15.1638 22.4053 24.8867C22.4053 26.6902 22.5139 27.5046 22.9592 29.1988C22.7745 28.4555 22.6768 27.7123 22.6768 26.9908C22.6768 16.8635 32.7499 9.846 43.1109 9.846C57.1318 9.846 68.4974 21.285 68.4974 35.3911C68.4974 46.453 62.1711 56.0228 52.9831 60.6246C64.8265 56.3125 73.2869 44.8953 73.2869 31.4888C73.2869 28.3134 72.8633 25.5152 71.9348 22.3726L71.9293 22.3671Z" fill="#575756"/>
<path d="M85 85.415H0V85.8796H85V85.415Z" fill="#858583"/>
<path d="M11.1375 94.6515V95.9796H0V94.6515H11.1375ZM8.73187 93.8044V91.3286H0.895994V90.0005H10.2415V93.7989H8.73187V93.8044ZM0.895994 97.1437H10.2415V101.751H0.895994V97.1437ZM8.74816 98.4281H2.37846V100.439H8.74816V98.4281Z" fill="#858583"/>
<path d="M23.3772 95.0778V96.3785H21.1074V97.5427H19.6141V96.3785H16.0029V97.5427H14.5096V96.3785H12.2397V95.0778H23.3772ZM20.7707 91.9188C20.7707 92.2959 20.6947 92.6457 20.5372 92.9736C20.3851 93.3015 20.1734 93.5912 19.9127 93.8481C19.6412 94.094 19.3262 94.2908 18.9624 94.4274C18.5986 94.564 18.213 94.6406 17.8058 94.6406C17.3985 94.6406 17.013 94.5695 16.6491 94.4274C16.2853 94.2853 15.9703 94.0886 15.6988 93.8481C15.4382 93.5912 15.2264 93.3015 15.0743 92.9736C14.9223 92.6457 14.8408 92.2959 14.8408 91.9188C14.8408 91.5417 14.9169 91.2028 15.0743 90.864C15.2264 90.5251 15.4382 90.2355 15.6988 89.9895C15.9703 89.7436 16.2853 89.5468 16.6491 89.3993C17.013 89.2517 17.3985 89.1807 17.8058 89.1807C18.213 89.1807 18.5986 89.2517 18.9624 89.3993C19.3262 89.5414 19.6412 89.7381 19.9127 89.9895C20.1734 90.2355 20.3851 90.5251 20.5372 90.864C20.6892 91.2028 20.7707 91.5526 20.7707 91.9188ZM20.7598 99.7671C20.7598 100.139 20.6838 100.494 20.5318 100.827C20.3797 101.161 20.1679 101.45 19.9073 101.696C19.6358 101.942 19.3208 102.139 18.9624 102.287C18.604 102.434 18.2239 102.505 17.8166 102.505C17.4094 102.505 17.0238 102.434 16.6708 102.287C16.3124 102.139 15.9975 101.948 15.726 101.696C15.4653 101.45 15.2535 101.161 15.1015 100.827C14.9494 100.494 14.8734 100.139 14.8734 99.7671C14.8734 99.3954 14.9494 99.0402 15.1015 98.7068C15.2535 98.3734 15.4653 98.0837 15.726 97.8378C15.9975 97.5919 16.3124 97.3951 16.6708 97.2475C17.0292 97.1054 17.4094 97.0289 17.8166 97.0289C18.2239 97.0289 18.604 97.1 18.9624 97.2475C19.3208 97.3951 19.6358 97.5919 19.9073 97.8378C20.1679 98.0837 20.3797 98.3734 20.5318 98.7068C20.6838 99.0402 20.7598 99.39 20.7598 99.7671ZM19.2774 91.9188C19.2774 91.5198 19.1308 91.1755 18.843 90.8913C18.5551 90.6071 18.2076 90.465 17.8112 90.465C17.4148 90.465 17.0673 90.6071 16.774 90.8913C16.4808 91.1755 16.3342 91.5144 16.3342 91.9188C16.3342 92.3233 16.4808 92.6621 16.774 92.9354C17.0673 93.2141 17.4148 93.3507 17.8112 93.3507C18.2076 93.3507 18.5551 93.2141 18.843 92.9354C19.1308 92.6566 19.2774 92.3178 19.2774 91.9188ZM19.2611 99.7671C19.2611 99.3736 19.1145 99.0402 18.8267 98.756C18.5389 98.4718 18.1968 98.3297 17.8112 98.3297C17.4257 98.3297 17.0781 98.4718 16.7849 98.756C16.4916 99.0402 16.345 99.3736 16.345 99.7671C16.345 100.161 16.4916 100.499 16.7849 100.784C17.0781 101.073 17.4202 101.215 17.8112 101.215C18.2022 101.215 18.5389 101.073 18.8267 100.784C19.1145 100.499 19.2611 100.155 19.2611 99.7671Z" fill="#858583"/>
<path d="M24.3276 91.4103V90.1095H31.2566V91.4103H28.2971L31.3815 95.1978L30.3334 96.0722L27.8355 92.9406L25.3756 96.2745L24.2896 95.4L27.3739 91.4103H24.333H24.3276ZM33.9337 99.3569C33.9337 99.7668 33.8523 100.155 33.6839 100.51C33.5156 100.871 33.2929 101.188 33.0106 101.461C32.7282 101.734 32.3969 101.953 32.0114 102.111C31.6258 102.27 31.2186 102.352 30.7842 102.352C30.3497 102.352 29.9533 102.27 29.5623 102.111C29.1714 101.953 28.8401 101.734 28.5577 101.461C28.2754 101.188 28.0527 100.871 27.8844 100.51C27.7161 100.149 27.6346 99.7668 27.6346 99.3569C27.6346 98.947 27.7161 98.559 27.8844 98.2037C28.0527 97.843 28.2754 97.526 28.5577 97.2528C28.8401 96.9795 29.1714 96.7609 29.5623 96.6024C29.9533 96.4439 30.3606 96.3619 30.7842 96.3619C31.2077 96.3619 31.6313 96.4384 32.0114 96.6024C32.3969 96.7609 32.7282 96.9795 33.0106 97.2528C33.2929 97.526 33.5156 97.843 33.6839 98.2037C33.8523 98.5645 33.9337 98.947 33.9337 99.3569ZM32.4512 99.3405C32.4512 98.8869 32.2883 98.4934 31.9571 98.1655C31.6258 97.8376 31.2294 97.6736 30.7679 97.6736C30.3063 97.6736 29.9262 97.8376 29.6004 98.1655C29.2745 98.4934 29.1116 98.8869 29.1116 99.3405C29.1116 99.7942 29.2745 100.199 29.6004 100.521C29.9262 100.844 30.3171 101.007 30.7679 101.007C31.2186 101.007 31.6258 100.844 31.9571 100.521C32.2883 100.199 32.4512 99.8051 32.4512 99.3405ZM33.4558 96.2253V93.5855H31.2023V92.2738H33.4558V89.7598H34.9655V96.2253H33.4558Z" fill="#858583"/>
<path d="M45.2179 92.1485V90.2739H46.7112V97.2477H42.7851V99.7071H47.6072V101.046H36.4697V99.7071H41.2755V97.2477H37.3657V90.2739H38.8482V92.1485H45.2179ZM45.2179 95.9251V93.4657H38.8482V95.9251H45.2179Z" fill="#858583"/>
<path d="M60.2271 96.0341V97.3622H55.4594V99.1767H53.9497V97.3622H49.0842V96.0341H60.2217H60.2271ZM57.8378 91.0825V89.8091H59.3311V94.9629H49.9857V89.8091H51.4681V91.0825H57.8378ZM51.4953 98.3569V100.406H59.4832V101.745H49.9911V98.3569H51.5007H51.4953ZM57.8378 93.6567V92.3833H51.4681V93.6567H57.8378Z" fill="#858583"/>
<path d="M65.3479 89.689L69.1654 95.0177L67.9816 95.8539L65.3479 92.121L62.7251 95.9632L61.5142 95.1161L65.3425 89.689H65.3479ZM62.6437 97.0453H72.3258V101.844H70.8162V98.4007H62.6382V97.0453H62.6437ZM70.8216 89.76H72.3313V96.2529H70.8216V93.2742H68.5409V91.9188H70.8216V89.76Z" fill="#858583"/>
<path d="M82.3934 96.9087H79.1896V98.8106H77.68V96.9087H74.3403V95.586H82.3934V96.9087ZM75.1657 101.745V98.0837H76.6591V100.423H85V101.751H75.1657V101.745ZM81.1173 92.3451C81.1173 92.7167 81.0359 93.072 80.8784 93.4054C80.7209 93.7388 80.5091 94.0339 80.2485 94.2853C79.9878 94.5312 79.6729 94.728 79.3199 94.8755C78.9615 95.0231 78.5814 95.0942 78.185 95.0942C77.7886 95.0942 77.4084 95.0231 77.05 94.8755C76.6916 94.728 76.3767 94.5312 76.1052 94.2853C75.8499 94.0284 75.649 93.7388 75.4861 93.4054C75.3286 93.072 75.2472 92.7222 75.2472 92.3451C75.2472 91.968 75.3286 91.6182 75.4861 91.2903C75.6436 90.9623 75.8499 90.6727 76.1052 90.4158C76.3767 90.1589 76.6916 89.9622 77.05 89.8201C77.4084 89.678 77.7886 89.6069 78.185 89.6069C78.5814 89.6069 78.9615 89.678 79.3199 89.8201C79.6783 89.9622 79.9878 90.1589 80.2485 90.4158C80.5091 90.6727 80.7209 90.9623 80.8784 91.2903C81.0359 91.6182 81.1173 91.968 81.1173 92.3451ZM79.6511 92.3451C79.6511 91.9461 79.5045 91.6018 79.2167 91.3176C78.9289 91.0334 78.5814 90.8913 78.185 90.8913C77.7886 90.8913 77.441 91.0334 77.1478 91.3176C76.8546 91.6018 76.7079 91.9406 76.7079 92.3451C76.7079 92.7495 76.8546 93.0884 77.1478 93.378C77.441 93.6677 77.7886 93.8098 78.185 93.8098C78.5814 93.8098 78.9289 93.6677 79.2167 93.378C79.5045 93.0938 79.6511 92.7495 79.6511 92.3451ZM83.3546 89.76H84.8479V98.9582H83.3546V94.4602H81.6712V93.1485H83.3546V89.76Z" fill="#858583"/>
<path d="M26.8148 75.496V76.5781H17.6213V75.496H26.8148ZM24.8273 74.7964V72.7633H18.3599V71.6812H26.0708V74.7964H24.8273ZM26.0763 77.6056V81.3876H18.3653V77.6056H26.0763ZM24.8164 78.644H19.6034V80.3055H24.8164V78.644Z" fill="#858583"/>
<path d="M27.9226 76.7801V75.7635H37.1161V76.7801H35.134V77.7474H33.9882V76.7801H31.0504V77.7474H29.8938V76.7801H27.9226ZM34.9277 79.7259C34.9277 80.0374 34.8625 80.3271 34.7376 80.6058C34.6127 80.8846 34.4335 81.125 34.2109 81.3273C33.9991 81.5349 33.7493 81.7044 33.4561 81.8301C33.1628 81.9558 32.8479 82.0159 32.522 82.0159C32.1962 82.0159 31.8813 81.9558 31.5935 81.8301C31.3002 81.7044 31.0504 81.5404 30.8332 81.3273C30.616 81.125 30.4423 80.8846 30.3174 80.6058C30.1925 80.3271 30.1273 80.032 30.1273 79.7259C30.1273 79.4199 30.1925 79.1247 30.3174 78.846C30.4423 78.5673 30.616 78.3268 30.8332 78.1246C31.0504 77.9169 31.3057 77.742 31.5935 77.6217C31.8867 77.496 32.1962 77.4359 32.522 77.4359C32.8479 77.4359 33.1628 77.496 33.4561 77.6217C33.7493 77.742 34.0045 77.9114 34.2109 78.1246C34.4335 78.3268 34.6127 78.5673 34.7376 78.846C34.8625 79.1247 34.9277 79.4199 34.9277 79.7259ZM34.8679 73.162C34.8679 73.4626 34.8028 73.7413 34.6779 74.0091C34.5475 74.2769 34.3792 74.512 34.162 74.7196C33.9611 74.9109 33.7167 75.0694 33.4289 75.1951C33.1411 75.3154 32.837 75.3755 32.5166 75.3755C32.1962 75.3755 31.8921 75.3208 31.6098 75.1951C31.3274 75.0694 31.083 74.9164 30.8821 74.7196C30.6649 74.5174 30.4911 74.2769 30.3662 74.0091C30.2413 73.7413 30.1762 73.4626 30.1762 73.162C30.1762 72.8614 30.2413 72.5882 30.3662 72.3204C30.4911 72.0525 30.6649 71.8175 30.8821 71.6153C31.083 71.4186 31.3274 71.2601 31.6098 71.1398C31.8921 71.0196 32.1962 70.9595 32.5166 70.9595C32.837 70.9595 33.1411 71.0196 33.4289 71.1398C33.7167 71.2601 33.9611 71.4186 34.162 71.6153C34.3792 71.823 34.5475 72.0525 34.6779 72.3204C34.8028 72.5882 34.8679 72.8669 34.8679 73.162ZM33.7167 79.715C33.7167 79.3816 33.6027 79.0974 33.3692 78.8624C33.1357 78.6274 32.8587 78.5071 32.5275 78.5071C32.1962 78.5071 31.9139 78.6274 31.6749 78.8624C31.436 79.0974 31.3165 79.3816 31.3165 79.715C31.3165 80.0484 31.436 80.3326 31.6749 80.573C31.9139 80.8135 32.1962 80.9283 32.5275 80.9283C32.8587 80.9283 33.1357 80.808 33.3692 80.573C33.5972 80.3326 33.7167 80.0484 33.7167 79.715ZM33.657 73.1729C33.657 72.8614 33.5429 72.5991 33.3203 72.3695C33.0977 72.14 32.8261 72.0307 32.5112 72.0307C32.1962 72.0307 31.9301 72.14 31.7075 72.3695C31.4849 72.5936 31.3763 72.8614 31.3763 73.1729C31.3763 73.4845 31.4849 73.7523 31.7075 73.9764C31.9301 74.195 32.1962 74.3097 32.5112 74.3097C32.8261 74.3097 33.0922 74.2004 33.3203 73.9764C33.5429 73.7523 33.657 73.4845 33.657 73.1729Z" fill="#858583"/>
<path d="M37.9143 78.496V77.392H44.6044V78.496H41.8024V81.2178H40.5806V78.496H37.9143ZM43.8442 74.2112C43.8442 74.5555 43.7736 74.8834 43.6378 75.195C43.5021 75.501 43.3066 75.7688 43.0622 75.9929C42.8178 76.2279 42.53 76.4083 42.2097 76.5449C41.8893 76.6761 41.5417 76.7471 41.1779 76.7471C40.8141 76.7471 40.4665 76.6761 40.1461 76.5449C39.8258 76.4083 39.538 76.2225 39.2936 75.9929C39.0492 75.7688 38.8537 75.501 38.7126 75.195C38.5714 74.8834 38.5008 74.5555 38.5008 74.2112C38.5008 73.8669 38.5714 73.5335 38.7126 73.2274C38.8537 72.9214 39.0492 72.6481 39.2936 72.4131C39.538 72.1781 39.8258 71.9977 40.1461 71.8611C40.4665 71.7245 40.8086 71.6534 41.1779 71.6534C41.5472 71.6534 41.8893 71.719 42.2097 71.8611C42.53 71.9923 42.8178 72.1781 43.0622 72.4131C43.3066 72.6481 43.5021 72.9214 43.6378 73.2274C43.7736 73.5335 43.8442 73.8669 43.8442 74.2112ZM42.6549 74.2112C42.6549 73.8013 42.5083 73.457 42.2151 73.1728C41.9218 72.8886 41.5797 72.741 41.1725 72.741C40.7652 72.741 40.4231 72.8831 40.1353 73.1728C39.8475 73.457 39.7009 73.8013 39.7009 74.2112C39.7009 74.6211 39.8421 74.9545 40.1353 75.2441C40.4231 75.5338 40.7652 75.6759 41.1725 75.6759C41.5797 75.6759 41.9218 75.5338 42.2151 75.2441C42.5083 74.9545 42.6549 74.6102 42.6549 74.2112ZM45.3538 71.4785H46.5864V81.5402H45.3538V71.4785Z" fill="#858583"/>
<path d="M52.2883 77.2775V78.6329H51.0556V77.2775H48.3296V76.2391H54.998V77.2775H52.2828H52.2883ZM50.2085 78.1574V80.2561H57.3493V81.3382H48.9649V78.1574H50.2085ZM53.9825 73.6102C53.9825 73.9163 53.9173 74.2114 53.787 74.4847C53.6567 74.7579 53.4829 75.0039 53.2657 75.2116C53.0485 75.4138 52.7933 75.5777 52.5 75.698C52.2068 75.8182 51.8973 75.8783 51.5715 75.8783C51.2456 75.8783 50.9307 75.8182 50.6429 75.698C50.3497 75.5777 50.0944 75.4138 49.8718 75.2116C49.66 75.0039 49.4917 74.7579 49.3613 74.4847C49.231 74.2059 49.1659 73.9163 49.1659 73.6102C49.1659 73.3042 49.231 73.009 49.3613 72.7412C49.4917 72.468 49.66 72.2275 49.8718 72.0198C50.0944 71.8121 50.3551 71.6427 50.6429 71.5279C50.9361 71.4132 51.2456 71.353 51.5715 71.353C51.8973 71.353 52.2122 71.4132 52.5 71.5279C52.7933 71.6427 53.0485 71.8121 53.2657 72.0198C53.4829 72.2275 53.6567 72.468 53.787 72.7412C53.9173 73.009 53.9825 73.2987 53.9825 73.6102ZM52.8041 73.6211C52.8041 73.2823 52.6847 72.9926 52.4457 72.7576C52.2068 72.5226 51.9136 72.4024 51.5715 72.4024C51.2294 72.4024 50.9361 72.5226 50.6972 72.7576C50.4583 72.9926 50.3388 73.2823 50.3388 73.6211C50.3388 73.96 50.4583 74.2497 50.6972 74.4847C50.9361 74.7197 51.2294 74.8345 51.5715 74.8345C51.9136 74.8345 52.2068 74.7197 52.4457 74.4847C52.6847 74.2442 52.8041 73.96 52.8041 73.6211ZM55.8451 75.3591H54.4224V74.3316H55.8451V71.4787H57.0778V78.7477H55.8451V75.3591Z" fill="#858583"/>
<path d="M65.2612 80.5402H58.7014V79.4472H61.3351V78.1956C61.2156 78.1628 61.1016 78.13 60.9984 78.0808C60.6998 77.9606 60.4391 77.7966 60.2165 77.5944C59.9938 77.3867 59.8146 77.1408 59.6897 76.8675C59.5648 76.5942 59.4997 76.3046 59.4997 75.9931C59.4997 75.6815 59.5648 75.3919 59.6897 75.1241C59.8146 74.8508 59.9938 74.6103 60.2165 74.4026C60.4391 74.195 60.6998 74.0255 60.993 73.9108C61.2862 73.7905 61.6066 73.7359 61.9433 73.7359C62.28 73.7359 62.5949 73.796 62.8827 73.9108C63.176 74.0255 63.4257 74.1895 63.643 74.4026C63.8656 74.6103 64.0448 74.8508 64.1751 75.1241C64.3055 75.3973 64.3706 75.687 64.3706 75.9931C64.3706 76.2991 64.3055 76.5942 64.1751 76.8675C64.0448 77.1408 63.8656 77.3867 63.643 77.5944C63.4257 77.7966 63.1705 77.9606 62.8827 78.0808C62.7633 78.1355 62.6384 78.1737 62.5135 78.2065V79.4472H65.2612V80.5402ZM61.2482 72.4843V71.4131H62.5949V72.4843H65.0277V73.5555H58.8155V72.4843H61.2482ZM63.1651 75.9821C63.1651 75.6542 63.0456 75.3645 62.8067 75.1295C62.5678 74.8945 62.2745 74.7797 61.9324 74.7797C61.5903 74.7797 61.2971 74.8945 61.0582 75.1295C60.8192 75.3645 60.6998 75.6487 60.6998 75.9821C60.6998 76.3155 60.8192 76.5997 61.0582 76.8402C61.2971 77.0807 61.5903 77.2009 61.9324 77.2009C62.2745 77.2009 62.5678 77.0807 62.8067 76.8402C63.0456 76.5997 63.1651 76.3155 63.1651 75.9821ZM66.1463 71.4787H67.379V81.5404H66.1463V71.4787Z" fill="#858583"/>
</g>
<defs>
<clipPath id="clip0_471_7018">
<rect width="85" height="102" fill="white" transform="translate(0 0.5)"/>
</clipPath>
</defs>
</svg>
