<svg viewBox="0 0 88 105" fill="none" xmlns="http://www.w3.org/2000/svg">
<g clip-path="url(#clip0_622_1223)">
<path d="M60.0068 29.5867C54.6559 25.9322 47.8106 27.4221 44.2117 32.9152C41.206 37.5031 36.6723 38.0709 34.9204 38.0709C29.2001 38.0709 25.2821 34.0284 24.1235 29.8453C24.1123 29.806 24.1011 29.7723 24.0899 29.7273C24.0787 29.6823 24.0619 29.6317 24.0507 29.5867C23.5973 27.8438 23.4798 27.006 23.4798 25.1506C23.4798 15.1484 33.6946 4.0104 48.4151 4.0104C63.1356 4.0104 72.1079 15.5363 74.3299 21.9402C74.2908 21.8278 74.2572 21.7154 74.218 21.5973C69.9474 9.07618 58.1206 0.0690918 44.2005 0.0690918C26.6758 0.0690918 12.4646 14.3388 12.4646 31.9425C12.4646 47.6796 23.7653 61.1509 39.4373 61.1509C51.9357 61.1509 60.337 54.1116 64.1935 44.4074C66.3092 39.0998 64.8092 32.8646 60.0124 29.5867H60.0068Z" fill="#003763"/>
<path d="M74.5317 22.5647C72.679 16.3182 63.9922 4.01636 48.4209 4.01636C33.7004 4.01636 23.4856 15.1543 23.4856 25.1566C23.4856 27.012 23.5975 27.8497 24.0565 29.5927C23.8662 28.828 23.7655 28.0634 23.7655 27.3212C23.7655 16.9029 34.1482 9.68374 44.8275 9.68374C59.2794 9.68374 70.9942 21.4514 70.9942 35.9629C70.9942 47.3426 64.4736 57.1874 55.0032 61.9215C67.2106 57.4854 75.9309 45.7402 75.9309 31.9485C75.9309 28.6818 75.4944 25.8032 74.5372 22.5703L74.5317 22.5647Z" fill="#E4022D"/>
<path d="M88.0036 87.4243H0.391357V87.9032H88.0036V87.4243Z" fill="#575756"/>
<path d="M11.8711 96.9265V98.2928H0.391357V96.9265H11.8711ZM9.39158 96.055V93.5081H1.31489V92.1418H10.9476V96.0494H9.39158V96.055ZM1.31489 99.4903H10.9476V104.23H1.31489V99.4903ZM9.40837 100.812H2.84291V102.881H9.40837V100.812Z" fill="#575756"/>
<path d="M24.4871 97.3652V98.7033H22.1475V99.9009H20.6083V98.7033H16.8862V99.9009H15.3469V98.7033H13.0073V97.3652H24.4871ZM21.8005 94.1154C21.8005 94.5034 21.7221 94.8632 21.5598 95.2005C21.4031 95.5379 21.1848 95.8359 20.9161 96.1001C20.6362 96.3531 20.3116 96.5555 19.9366 96.6961C19.5616 96.8367 19.1642 96.9154 18.7444 96.9154C18.3246 96.9154 17.9272 96.8423 17.5522 96.6961C17.1772 96.5499 16.8526 96.3475 16.5727 96.1001C16.304 95.8359 16.0858 95.5379 15.929 95.2005C15.7723 94.8632 15.6884 94.5034 15.6884 94.1154C15.6884 93.7275 15.7667 93.3789 15.929 93.0303C16.0858 92.6817 16.304 92.3837 16.5727 92.1307C16.8526 91.8777 17.1772 91.6753 17.5522 91.5235C17.9272 91.3717 18.3246 91.2986 18.7444 91.2986C19.1642 91.2986 19.5616 91.3717 19.9366 91.5235C20.3116 91.6697 20.6362 91.8721 20.9161 92.1307C21.1848 92.3837 21.4031 92.6817 21.5598 93.0303C21.7165 93.3789 21.8005 93.7387 21.8005 94.1154ZM21.7893 102.189C21.7893 102.572 21.7109 102.937 21.5542 103.28C21.3975 103.623 21.1792 103.921 20.9105 104.174C20.6306 104.427 20.306 104.629 19.9366 104.781C19.5672 104.933 19.1754 105.006 18.7556 105.006C18.3358 105.006 17.9384 104.933 17.5746 104.781C17.2052 104.629 16.8806 104.433 16.6007 104.174C16.332 103.921 16.1137 103.623 15.957 103.28C15.8003 102.937 15.7219 102.572 15.7219 102.189C15.7219 101.807 15.8003 101.441 15.957 101.098C16.1137 100.755 16.332 100.457 16.6007 100.204C16.8806 99.9515 17.2052 99.7491 17.5746 99.5973C17.944 99.4511 18.3358 99.3724 18.7556 99.3724C19.1754 99.3724 19.5672 99.4455 19.9366 99.5973C20.306 99.7491 20.6306 99.9515 20.9105 100.204C21.1792 100.457 21.3975 100.755 21.5542 101.098C21.7109 101.441 21.7893 101.801 21.7893 102.189ZM20.2612 94.1154C20.2612 93.705 20.1101 93.3508 19.8135 93.0584C19.5168 92.766 19.1586 92.6199 18.75 92.6199C18.3414 92.6199 17.9832 92.766 17.6809 93.0584C17.3787 93.3508 17.2276 93.6994 17.2276 94.1154C17.2276 94.5315 17.3787 94.8801 17.6809 95.1612C17.9832 95.4479 18.3414 95.5885 18.75 95.5885C19.1586 95.5885 19.5168 95.4479 19.8135 95.1612C20.1101 94.8744 20.2612 94.5259 20.2612 94.1154ZM20.2444 102.189C20.2444 101.784 20.0933 101.441 19.7967 101.149C19.5 100.857 19.1474 100.71 18.75 100.71C18.3526 100.71 17.9944 100.857 17.6921 101.149C17.3899 101.441 17.2388 101.784 17.2388 102.189C17.2388 102.594 17.3899 102.943 17.6921 103.235C17.9944 103.533 18.347 103.679 18.75 103.679C19.153 103.679 19.5 103.533 19.7967 103.235C20.0933 102.943 20.2444 102.588 20.2444 102.189Z" fill="#575756"/>
<path d="M25.4669 93.592V92.2539H32.6089V93.592H29.5584L32.7376 97.4883L31.6574 98.3879L29.0827 95.1663L26.5472 98.5959L25.4277 97.6964L28.6069 93.592H25.4725H25.4669ZM35.3683 101.767C35.3683 102.189 35.2843 102.588 35.1108 102.953C34.9373 103.324 34.7078 103.65 34.4168 103.932C34.1257 104.213 33.7843 104.438 33.3869 104.601C32.9895 104.764 32.5697 104.848 32.1219 104.848C31.6742 104.848 31.2656 104.764 30.8626 104.601C30.4596 104.438 30.1181 104.213 29.8271 103.932C29.536 103.65 29.3066 103.324 29.133 102.953C28.9595 102.582 28.8756 102.189 28.8756 101.767C28.8756 101.345 28.9595 100.946 29.133 100.581C29.3066 100.21 29.536 99.8835 29.8271 99.6024C30.1181 99.3212 30.4596 99.0963 30.8626 98.9333C31.2656 98.7702 31.6854 98.6859 32.1219 98.6859C32.5585 98.6859 32.9951 98.7646 33.3869 98.9333C33.7843 99.0963 34.1257 99.3212 34.4168 99.6024C34.7078 99.8835 34.9373 100.21 35.1108 100.581C35.2843 100.952 35.3683 101.345 35.3683 101.767ZM33.8403 101.75C33.8403 101.283 33.6723 100.879 33.3309 100.541C32.9895 100.204 32.5809 100.035 32.1051 100.035C31.6294 100.035 31.2376 100.204 30.9018 100.541C30.5659 100.879 30.398 101.283 30.398 101.75C30.398 102.217 30.5659 102.633 30.9018 102.965C31.2376 103.296 31.6406 103.465 32.1051 103.465C32.5697 103.465 32.9895 103.296 33.3309 102.965C33.6723 102.633 33.8403 102.228 33.8403 101.75ZM34.8757 98.5453V95.8297H32.5529V94.4803H34.8757V91.894H36.4317V98.5453H34.8757Z" fill="#575756"/>
<path d="M46.9989 94.3518V92.4233H48.5382V99.5975H44.4914V102.128H49.4617V103.505H37.9819V102.128H42.9354V99.5975H38.9055V92.4233H40.4335V94.3518H46.9989ZM46.9989 98.2369V95.7068H40.4335V98.2369H46.9989Z" fill="#575756"/>
<path d="M62.4697 98.3487V99.715H57.5554V101.582H55.9994V99.715H50.9844V98.3487H62.4641H62.4697ZM60.007 93.2548V91.9448H61.5462V97.2467H51.9135V91.9448H53.4415V93.2548H60.007ZM53.4695 100.738V102.847H61.7029V104.224H51.9191V100.738H53.4751H53.4695ZM60.007 95.903V94.593H53.4415V95.903H60.007Z" fill="#575756"/>
<path d="M67.748 91.8215L71.6828 97.3034L70.4626 98.1636L67.748 94.3235L65.0446 98.2761L63.7964 97.4046L67.7424 91.8215H67.748ZM64.9606 99.3893H74.9403V104.326H73.3843V100.784H64.955V99.3893H64.9606ZM73.3899 91.8946H74.9459V98.574H73.3899V95.5098H71.0391V94.1155H73.3899V91.8946Z" fill="#575756"/>
<path d="M85.3172 99.2486H82.0149V101.205H80.4589V99.2486H77.0166V97.888H85.3172V99.2486ZM77.8674 104.224V100.457H79.4066V102.864H88.0038V104.23H77.8674V104.224ZM84.0019 94.5539C84.0019 94.9362 83.9179 95.3017 83.7556 95.6446C83.5933 95.9876 83.375 96.2912 83.1063 96.5498C82.8376 96.8029 82.513 97.0053 82.1492 97.1571C81.7798 97.3089 81.388 97.382 80.9794 97.382C80.5708 97.382 80.179 97.3089 79.8096 97.1571C79.4402 97.0053 79.1155 96.8029 78.8357 96.5498C78.5726 96.2856 78.3655 95.9876 78.1976 95.6446C78.0353 95.3017 77.9513 94.9418 77.9513 94.5539C77.9513 94.1659 78.0353 93.8061 78.1976 93.4688C78.3599 93.1314 78.5726 92.8334 78.8357 92.5692C79.1155 92.3049 79.4402 92.1025 79.8096 91.9563C80.179 91.8102 80.5708 91.7371 80.9794 91.7371C81.388 91.7371 81.7798 91.8102 82.1492 91.9563C82.5186 92.1025 82.8376 92.3049 83.1063 92.5692C83.375 92.8334 83.5933 93.1314 83.7556 93.4688C83.9179 93.8061 84.0019 94.1659 84.0019 94.5539ZM82.4906 94.5539C82.4906 94.1435 82.3395 93.7892 82.0429 93.4969C81.7462 93.2045 81.388 93.0583 80.9794 93.0583C80.5708 93.0583 80.2126 93.2045 79.9103 93.4969C79.6081 93.7892 79.457 94.1378 79.457 94.5539C79.457 94.9699 79.6081 95.3185 79.9103 95.6165C80.2126 95.9145 80.5708 96.0607 80.9794 96.0607C81.388 96.0607 81.7462 95.9145 82.0429 95.6165C82.3395 95.3242 82.4906 94.9699 82.4906 94.5539ZM86.3079 91.8945H87.8471V101.357H86.3079V96.7298H84.5728V95.3804H86.3079V91.8945Z" fill="#575756"/>
<path d="M28.0302 77.2201V78.3333H18.5542V77.2201H28.0302ZM25.9816 76.5004V74.4089H19.3154V73.2957H27.2634V76.5004H25.9816ZM27.269 79.3903V83.281H19.321V79.3903H27.269ZM25.9704 80.4586H20.5972V82.1678H25.9704V80.4586Z" fill="#575756"/>
<path d="M29.1719 78.5416V77.4958H38.6479V78.5416H36.6049V79.5367H35.4239V78.5416H32.3958V79.5367H31.2036V78.5416H29.1719ZM36.3922 81.5721C36.3922 81.8925 36.325 82.1905 36.1963 82.4773C36.0676 82.764 35.8829 83.0114 35.6534 83.2194C35.4351 83.4331 35.1776 83.6074 34.8754 83.7367C34.5731 83.866 34.2485 83.9278 33.9127 83.9278C33.5768 83.9278 33.2522 83.866 32.9556 83.7367C32.6533 83.6074 32.3958 83.4387 32.1719 83.2194C31.9481 83.0114 31.769 82.764 31.6402 82.4773C31.5115 82.1905 31.4443 81.8869 31.4443 81.5721C31.4443 81.2572 31.5115 80.9536 31.6402 80.6668C31.769 80.3801 31.9481 80.1327 32.1719 79.9247C32.3958 79.711 32.6589 79.5311 32.9556 79.4074C33.2578 79.2781 33.5768 79.2163 33.9127 79.2163C34.2485 79.2163 34.5731 79.2781 34.8754 79.4074C35.1776 79.5311 35.4407 79.7054 35.6534 79.9247C35.8829 80.1327 36.0676 80.3801 36.1963 80.6668C36.325 80.9536 36.3922 81.2572 36.3922 81.5721ZM36.3306 74.8195C36.3306 75.1288 36.2635 75.4155 36.1347 75.691C36.0004 75.9665 35.8269 76.2083 35.603 76.4219C35.3959 76.6187 35.144 76.7818 34.8474 76.9111C34.5507 77.0348 34.2373 77.0966 33.9071 77.0966C33.5768 77.0966 33.2634 77.0404 32.9723 76.9111C32.6813 76.7818 32.4294 76.6243 32.2223 76.4219C31.9984 76.2139 31.8193 75.9665 31.6906 75.691C31.5619 75.4155 31.4947 75.1288 31.4947 74.8195C31.4947 74.5103 31.5619 74.2292 31.6906 73.9537C31.8193 73.6782 31.9984 73.4364 32.2223 73.2284C32.4294 73.026 32.6813 72.8629 32.9723 72.7393C33.2634 72.6156 33.5768 72.5537 33.9071 72.5537C34.2373 72.5537 34.5507 72.6156 34.8474 72.7393C35.144 72.8629 35.3959 73.026 35.603 73.2284C35.8269 73.442 36.0004 73.6782 36.1347 73.9537C36.2635 74.2292 36.3306 74.5159 36.3306 74.8195ZM35.144 81.5608C35.144 81.2178 35.0265 80.9255 34.7858 80.6837C34.5451 80.4419 34.2597 80.3182 33.9183 80.3182C33.5768 80.3182 33.2858 80.4419 33.0395 80.6837C32.7932 80.9255 32.6701 81.2178 32.6701 81.5608C32.6701 81.9038 32.7932 82.1961 33.0395 82.4435C33.2858 82.6909 33.5768 82.809 33.9183 82.809C34.2597 82.809 34.5451 82.6853 34.7858 82.4435C35.0209 82.1961 35.144 81.9038 35.144 81.5608ZM35.0825 74.8308C35.0825 74.5103 34.9649 74.2404 34.7354 74.0043C34.506 73.7682 34.2261 73.6557 33.9015 73.6557C33.5768 73.6557 33.3026 73.7682 33.0731 74.0043C32.8436 74.2348 32.7317 74.5103 32.7317 74.8308C32.7317 75.1513 32.8436 75.4268 33.0731 75.6573C33.3026 75.8822 33.5768 76.0002 33.9015 76.0002C34.2261 76.0002 34.5004 75.8878 34.7354 75.6573C34.9649 75.4268 35.0825 75.1513 35.0825 74.8308Z" fill="#575756"/>
<path d="M39.4709 80.3071V79.1713H46.3666V80.3071H43.4785V83.107H42.2192V80.3071H39.4709ZM45.583 75.8991C45.583 76.2533 45.5103 76.5907 45.3703 76.9111C45.2304 77.226 45.0289 77.5015 44.7771 77.732C44.5252 77.9738 44.2285 78.1593 43.8983 78.2999C43.5681 78.4348 43.2098 78.5079 42.8348 78.5079C42.4598 78.5079 42.1016 78.4348 41.7714 78.2999C41.4411 78.1593 41.1445 77.9681 40.8926 77.732C40.6408 77.5015 40.4393 77.226 40.2937 76.9111C40.1482 76.5907 40.0754 76.2533 40.0754 75.8991C40.0754 75.5449 40.1482 75.2019 40.2937 74.8871C40.4393 74.5722 40.6408 74.2911 40.8926 74.0493C41.1445 73.8076 41.4411 73.622 41.7714 73.4815C42.1016 73.3409 42.4542 73.2678 42.8348 73.2678C43.2154 73.2678 43.5681 73.3353 43.8983 73.4815C44.2285 73.6164 44.5252 73.8076 44.7771 74.0493C45.0289 74.2911 45.2304 74.5722 45.3703 74.8871C45.5103 75.2019 45.583 75.5449 45.583 75.8991ZM44.3573 75.8991C44.3573 75.4774 44.2061 75.1232 43.9039 74.8308C43.6016 74.5385 43.249 74.3867 42.8292 74.3867C42.4095 74.3867 42.0568 74.5329 41.7602 74.8308C41.4635 75.1232 41.3124 75.4774 41.3124 75.8991C41.3124 76.3208 41.4579 76.6637 41.7602 76.9617C42.0568 77.2597 42.4095 77.4059 42.8292 77.4059C43.249 77.4059 43.6016 77.2597 43.9039 76.9617C44.2061 76.6637 44.3573 76.3095 44.3573 75.8991ZM47.139 73.0879H48.4096V83.4387H47.139V73.0879Z" fill="#575756"/>
<path d="M54.2869 79.0534V80.4478H53.0163V79.0534H50.2065V77.9852H57.0798V79.0534H54.2813H54.2869ZM52.1432 79.9586V82.1176H59.5034V83.2309H50.8614V79.9586H52.1432ZM56.0332 75.2808C56.0332 75.5957 55.966 75.8993 55.8317 76.1804C55.6974 76.4615 55.5182 76.7145 55.2944 76.9282C55.0705 77.1362 54.8074 77.3049 54.5052 77.4285C54.2029 77.5522 53.8839 77.6141 53.548 77.6141C53.2122 77.6141 52.8876 77.5522 52.5909 77.4285C52.2887 77.3049 52.0256 77.1362 51.7961 76.9282C51.5778 76.7145 51.4043 76.4615 51.27 76.1804C51.1357 75.8936 51.0685 75.5957 51.0685 75.2808C51.0685 74.9659 51.1357 74.6623 51.27 74.3868C51.4043 74.1057 51.5778 73.8583 51.7961 73.6447C52.0256 73.431 52.2943 73.2567 52.5909 73.1387C52.8932 73.0206 53.2122 72.9587 53.548 72.9587C53.8839 72.9587 54.2085 73.0206 54.5052 73.1387C54.8074 73.2567 55.0705 73.431 55.2944 73.6447C55.5182 73.8583 55.6974 74.1057 55.8317 74.3868C55.966 74.6623 56.0332 74.9603 56.0332 75.2808ZM54.8186 75.292C54.8186 74.9434 54.6955 74.6455 54.4492 74.4037C54.2029 74.1619 53.9007 74.0382 53.548 74.0382C53.1954 74.0382 52.8932 74.1619 52.6469 74.4037C52.4006 74.6455 52.2775 74.9434 52.2775 75.292C52.2775 75.6406 52.4006 75.9386 52.6469 76.1804C52.8932 76.4221 53.1954 76.5402 53.548 76.5402C53.9007 76.5402 54.2029 76.4221 54.4492 76.1804C54.6955 75.933 54.8186 75.6406 54.8186 75.292ZM57.953 77.08H56.4865V76.0229H57.953V73.0881H59.2236V80.5659H57.953V77.08Z" fill="#575756"/>
<path d="M67.6578 82.4102H60.8965V81.2857H63.6111V79.9982C63.488 79.9644 63.3704 79.9307 63.2641 79.8801C62.9562 79.7564 62.6876 79.5877 62.4581 79.3797C62.2286 79.166 62.0439 78.913 61.9152 78.6319C61.7864 78.3508 61.7193 78.0528 61.7193 77.7323C61.7193 77.4119 61.7864 77.1139 61.9152 76.8384C62.0439 76.5572 62.2286 76.3099 62.4581 76.0962C62.6876 75.8826 62.9562 75.7083 63.2585 75.5902C63.5607 75.4665 63.891 75.4103 64.238 75.4103C64.585 75.4103 64.9096 75.4721 65.2063 75.5902C65.5085 75.7083 65.766 75.8769 65.9899 76.0962C66.2194 76.3099 66.4041 76.5572 66.5384 76.8384C66.6727 77.1195 66.7399 77.4175 66.7399 77.7323C66.7399 78.0472 66.6727 78.3508 66.5384 78.6319C66.4041 78.913 66.2194 79.166 65.9899 79.3797C65.766 79.5877 65.5029 79.7564 65.2063 79.8801C65.0832 79.9363 64.9544 79.9757 64.8257 80.0094V81.2857H67.6578V82.4102ZM63.5216 74.1227V73.0208H64.9096V74.1227H67.4172V75.2247H61.014V74.1227H63.5216ZM65.4973 77.7211C65.4973 77.3837 65.3742 77.0858 65.1279 76.844C64.8817 76.6022 64.5794 76.4842 64.2268 76.4842C63.8742 76.4842 63.5719 76.6022 63.3257 76.844C63.0794 77.0858 62.9562 77.3781 62.9562 77.7211C62.9562 78.064 63.0794 78.3564 63.3257 78.6038C63.5719 78.8512 63.8742 78.9749 64.2268 78.9749C64.5794 78.9749 64.8817 78.8512 65.1279 78.6038C65.3742 78.3564 65.4973 78.064 65.4973 77.7211ZM68.5702 73.0882H69.8407V83.4391H68.5702V73.0882Z" fill="#575756"/>
</g>
<defs>
<clipPath id="clip0_622_1223">
<rect width="87.6122" height="104.931" fill="white" transform="translate(0.391357 0.0690918)"/>
</clipPath>
</defs>
</svg>
