<svg viewBox="0 0 93 26" fill="none" xmlns="http://www.w3.org/2000/svg">
<g clip-path="url(#clip0_642_1257)">
<path d="M8.4872 8.06726C8.03403 9.10635 7.28791 10.1988 6.35563 11.186C5.39589 12.2251 4.22253 13.1315 3.02324 13.8516L0.945068 11.4256C2.43732 10.5727 3.85023 9.3993 4.91678 7.90705C5.98333 6.44074 6.64859 4.73487 6.64859 2.81691V0.578531H10.1137V2.76351C10.1137 4.65552 10.8064 6.25459 11.8455 7.56069C12.8846 8.92019 14.2975 9.93334 15.683 10.6001L13.8169 13.1315C11.2581 11.746 9.57816 10.0936 8.48568 8.06726H8.4872ZM6.64859 15.0509H20.6419V25.2587H6.64859V15.0509ZM9.92758 17.8493V22.4863H17.337V17.8493H9.92758ZM20.6419 14.0912H17.337V0.0185547H20.6419V5.61527H24.5068V8.41362H20.6419V14.0912Z" fill="#003CDC"/>
<path d="M33.8755 11.1601C32.9432 10.2812 32.223 9.34742 31.7973 8.49449C31.3976 9.45423 30.6774 10.4933 29.7451 11.479C28.7854 12.4647 27.6395 13.4778 26.3608 14.2514L24.3086 11.772C25.9351 10.7054 27.3999 9.48017 28.3871 8.06726C29.3728 6.68182 29.9862 5.08275 29.9862 3.27008V0.578531H33.5047V3.21668C33.5047 5.2155 34.144 6.76116 35.1831 8.01386C36.1688 9.29402 37.5817 10.2522 38.9946 10.9724L37.1285 13.5587C35.9552 12.9194 34.8093 12.0924 33.877 11.1601H33.8755ZM42.7771 24.4088C41.6038 25.3945 39.9788 25.9819 38.0593 25.9819C36.1398 25.9819 34.5407 25.396 33.3949 24.4088C32.2215 23.3697 31.5562 21.9293 31.5562 20.1441C31.5562 18.3589 32.223 16.9994 33.3949 15.9603C34.5407 14.9212 36.1398 14.3079 38.0593 14.3079C39.9788 14.3079 41.6038 14.9212 42.7771 15.9603C43.923 16.9994 44.6157 18.4398 44.6157 20.1441C44.6157 21.8485 43.923 23.3697 42.7771 24.4088ZM40.4319 17.9592C39.8186 17.4266 39.019 17.1062 38.0593 17.1062C36.1398 17.1062 34.8078 18.333 34.8078 20.1457C34.8078 21.9583 36.1398 23.211 38.0593 23.211C39.9788 23.211 41.3642 21.9843 41.3642 20.1457C41.3642 19.2653 40.9904 18.4932 40.4319 17.9607V17.9592ZM41.7121 7.37454H37.0477V4.44191H41.7121V0.0185547H45.017V14.2239H41.7121V7.37454Z" fill="#003CDC"/>
<path d="M54.1002 16.1968V14.4376C51.5689 13.8776 50.1819 12.0924 50.1819 9.95928C50.1819 8.78592 50.7678 7.64003 51.7276 6.81456H48.502V4.17642H62.8417V6.81456H59.7229C60.6826 7.6675 61.2426 8.81339 61.2426 10.0127C61.2426 12.1183 59.964 13.8501 57.4311 14.4101V16.0366C59.6969 15.9039 61.9628 15.7437 64.2012 15.5041V0.0185547H67.4802V8.44109H71.2123V11.2394H67.4802V22.381H64.2012V18.1697C59.0042 18.7556 53.673 19.1554 48.209 19.3156L47.8901 16.3311C49.9683 16.3311 52.0205 16.2777 54.1002 16.1984V16.1968ZM52.3944 0.125362H58.9249V2.89778H52.3944V0.125362ZM53.3266 9.96081C53.3266 11.1067 54.233 12.013 55.6993 12.013C57.1656 12.013 58.0719 11.1067 58.0719 9.96081C58.0719 8.81491 57.1931 7.88111 55.6993 7.88111C54.2055 7.88111 53.3266 8.81339 53.3266 9.96081Z" fill="#003CDC"/>
<path d="M80.6237 10.3606C81.4492 11.9337 82.65 13.0796 84.1148 14.0653L82.1419 16.5981C81.2096 15.9588 80.2224 15.025 79.4504 14.0653C78.6249 13.1055 77.9841 12.0924 77.7445 11.2669C76.9984 13.6121 75.3993 15.5056 73.373 17.1047L71.3208 14.6786C72.9199 13.2932 74.1192 12.0664 74.8927 10.4674C75.6389 8.89426 76.0127 6.9763 76.0127 4.22982H72.1219V1.4574H83.1291V4.22982H79.3176C79.3176 6.81456 79.7708 8.78745 80.6237 10.3606ZM89.5269 9.80059H87.5006V21.4487H84.3025V0.338977H87.5006V7.00224H89.5269V0.0185547H92.7525V22.3535H89.5269V9.80059Z" fill="#003CDC"/>
</g>
<defs>
<clipPath id="clip0_642_1257">
<rect width="91.8056" height="25.9634" fill="white" transform="translate(0.945068 0.0185547)"/>
</clipPath>
</defs>
</svg>
