<svg viewBox="0 0 234 40" fill="none" xmlns="http://www.w3.org/2000/svg">
<g clip-path="url(#clip0_1011_1684)">
<path d="M15.4925 23.5645C14.6028 23.5645 13.8789 24.2862 13.8789 25.1781C13.8789 26.07 14.6006 26.7895 15.4925 26.7895C16.3844 26.7895 17.1061 26.0678 17.1061 25.1781C17.1061 24.2883 16.3844 23.5645 15.4925 23.5645Z" fill="#003CDC"/>
<path d="M1.06641 39.5994H3.91662V32.8154H11.4224V30.5899H3.91662V26.5419H11.8317V24.3164H1.06641V39.5994Z" fill="#003CDC"/>
<path d="M16.8662 28.0928H14.1172V39.5992H16.8662V28.0928Z" fill="#003CDC"/>
<path d="M23.7213 28.3709C23.075 28.6574 22.5881 29.0409 22.2607 29.5256V28.093H19.5117V39.5994H22.2607C22.2607 39.5994 22.2736 35.4846 22.265 34.8254C22.2542 33.9593 22.1982 33.076 22.5881 32.2724C23.2258 30.9561 24.6843 30.2344 26.1019 30.2732V27.9637C25.9662 27.9508 25.8261 27.9443 25.684 27.9443C25.0032 27.9443 24.3483 28.0865 23.7213 28.3731V28.3709Z" fill="#003CDC"/>
<path d="M32.4656 27.6924C29.1371 27.6924 26.582 29.9695 26.582 33.8452C26.582 37.7209 29.1371 40.0002 32.4656 40.0002C35.1542 40.0002 37.3366 38.5137 38.0777 35.9005H35.2232C34.6889 37.3073 33.5923 37.9385 32.4656 37.9385C31.0157 37.9385 29.6111 36.8958 29.3999 34.4894H38.3233C38.3405 34.2804 38.3491 34.0671 38.3491 33.8474C38.3491 29.9717 35.7941 27.6945 32.4656 27.6945V27.6924ZM29.5033 32.4901C29.9062 30.59 31.1665 29.7541 32.4656 29.7541C33.7647 29.7541 35.025 30.59 35.4278 32.4901H29.5033Z" fill="#003CDC"/>
<path d="M57.9448 31.0338H55.1161L53.3129 33.9487L50.7966 31.3182C52.253 30.4349 53.8321 29.1961 53.8321 27.3585C53.8321 24.8896 51.8264 23.7822 49.6548 23.7822C47.4832 23.7822 45.3525 25.0727 45.3525 27.5437C45.3525 29.0949 46.1518 30.1785 46.8412 30.8722C45.4107 31.7254 43.6484 33.1623 43.6484 35.3791C43.6484 38.3866 46.1346 39.8882 48.6659 39.8882C50.7729 39.8882 52.3736 39.0006 53.5585 37.7576L55.3208 39.5995H58.7203L55.0321 35.7454L57.9469 31.036L57.9448 31.0338ZM49.6742 26.0615C50.5962 26.0615 51.3137 26.6066 51.2404 27.5308C51.1758 28.3473 50.3744 28.9484 49.1291 29.6464C48.3062 28.7265 48.0002 28.1965 48.0002 27.5071C48.0002 26.6497 48.75 26.0615 49.672 26.0615H49.6742ZM48.9934 37.6089C47.6254 37.6089 46.3909 36.7321 46.4599 35.2391C46.5159 34.0154 47.4423 33.27 48.6013 32.5763L51.8932 36.0168C51.0293 37.0337 50.1094 37.6089 48.9934 37.6089Z" fill="#003CDC"/>
<path d="M104.621 23.5645C103.732 23.5645 103.008 24.2862 103.008 25.1781C103.008 26.07 103.73 26.7895 104.621 26.7895C105.513 26.7895 106.235 26.0678 106.235 25.1781C106.235 24.2883 105.513 23.5645 104.621 23.5645Z" fill="#003CDC"/>
<path d="M105.995 28.0928H103.246V39.5992H105.995V28.0928Z" fill="#003CDC"/>
<path d="M99.7096 28.3709C99.0633 28.6574 98.5764 29.0409 98.249 29.5256V28.093H95.5V39.5994H98.249C98.249 39.5994 98.2619 35.4846 98.2533 34.8254C98.2425 33.9593 98.1865 33.076 98.5764 32.2724C99.2141 30.9561 100.673 30.2344 102.09 30.2732V27.9637C101.954 27.9508 101.814 27.9443 101.672 27.9443C100.991 27.9443 100.337 28.0865 99.7096 28.3731V28.3709Z" fill="#003CDC"/>
<path d="M114.04 27.8127C112.454 27.8127 111.45 28.4396 110.841 29.0235V28.0928H108.113V39.5992H110.841V33.0219C110.841 31.3997 111.653 29.9628 113.346 29.8917C114.964 29.8249 115.531 31.0809 115.548 32.2636V39.5971H118.275V31.9103C118.275 29.2475 116.289 27.8105 114.038 27.8105L114.04 27.8127Z" fill="#003CDC"/>
<path d="M90.7283 28.9656V28.9915C89.9462 28.19 88.8087 27.6924 87.4687 27.6924C84.1833 27.6924 82.0117 30.213 82.0117 33.8452C82.0117 37.4775 84.1855 39.9981 87.4687 39.9981C88.8087 39.9981 89.9462 39.4983 90.7304 38.699V38.7249V39.5974H93.4815V28.0909H90.7304V28.9635L90.7283 28.9656ZM87.766 37.8373C85.9564 37.8373 84.7628 36.2409 84.7628 33.8452C84.7628 31.4496 85.9564 29.8532 87.766 29.8532C89.5757 29.8532 90.6873 31.6413 90.6873 33.8452C90.6873 36.0491 89.5778 37.8373 87.766 37.8373Z" fill="#003CDC"/>
<path d="M72.1207 35.9693L68.0296 24.3164H63.5938V39.5994H66.444V27.3691L70.9315 39.5994H73.3099L77.7974 27.3691V39.5994H80.6477V24.3164H76.2118L72.1207 35.9693Z" fill="#003CDC"/>
<path d="M173.492 34.1038C173.492 35.4288 173.184 37.8266 171.049 37.8266C169.22 37.8266 168.85 36.2991 168.85 35.2586V28.0889H166.109V35.6894C166.109 38.3932 167.768 39.8754 170.211 39.8754C171.627 39.8754 172.753 39.3497 173.49 38.5504V39.5996H176.231V28.0889H173.49V34.1038H173.492Z" fill="#003CDC"/>
<path d="M182.483 28.3709C181.837 28.6574 181.35 29.0409 181.022 29.5256V28.093H178.273V39.5994H181.022C181.022 39.5994 181.035 35.4846 181.027 34.8254C181.016 33.9593 180.96 33.076 181.35 32.2724C181.99 30.9561 183.446 30.2344 184.864 30.2732V27.9637C184.728 27.9508 184.588 27.9443 184.446 27.9443C183.765 27.9443 183.11 28.0865 182.485 28.3731L182.483 28.3709Z" fill="#003CDC"/>
<path d="M204.766 27.8105C203.181 27.8105 202.177 28.4375 201.567 29.0213V28.0906H198.84V39.5971H201.567V33.0198C201.567 31.3976 202.379 29.9606 204.073 29.8895C205.691 29.8227 206.255 31.0787 206.275 32.2636V39.5971H209.002V31.9103C209.002 29.2475 207.016 27.8105 204.764 27.8105H204.766Z" fill="#003CDC"/>
<path d="M149.184 27.8105C147.599 27.8105 146.595 28.4375 145.985 29.0213V28.0906H143.258V39.5971H145.985V33.0198C145.985 31.3976 146.797 29.9606 148.491 29.8895C150.109 29.8227 150.675 31.0787 150.693 32.2636V39.5971H153.42V31.9103C153.42 29.2475 151.434 27.8105 149.182 27.8105H149.184Z" fill="#003CDC"/>
<path d="M194.045 28.9632V28.989C193.263 28.1876 192.125 27.6899 190.785 27.6899C187.5 27.6899 185.328 30.2105 185.328 33.8428C185.328 37.475 187.502 39.9956 190.785 39.9956C192.125 39.9956 193.263 39.4958 194.047 38.6966V38.7224V39.5949H196.798V28.0885H194.047V28.961L194.045 28.9632ZM191.082 37.837C189.273 37.837 188.079 36.2406 188.079 33.8449C188.079 31.4493 189.273 29.8529 191.082 29.8529C192.892 29.8529 194.004 31.641 194.004 33.8449C194.004 36.0489 192.894 37.837 191.082 37.837Z" fill="#003CDC"/>
<path d="M160.986 32.8238C158.765 32.268 157.931 31.8672 157.931 31.0852C157.931 30.2062 158.929 29.7107 159.956 29.7732C161.186 29.8465 161.858 30.4669 162.02 31.333H164.614C164.424 29.2734 162.625 27.6899 159.816 27.6899C157.22 27.6899 155.029 29.0687 155.068 31.2446C155.096 32.7721 156.156 33.7286 157.711 34.3103C159.409 34.948 161.701 35.1807 161.902 36.2708C162.102 37.3609 160.973 37.9641 159.693 37.8262C158.586 37.7056 157.957 37.1627 157.664 36.2384H154.738C155.225 38.6621 157.162 39.9978 159.911 39.9978C162.809 39.9978 164.862 38.3497 164.812 36.2083C164.758 33.8449 162.16 33.1168 160.986 32.8216V32.8238Z" fill="#003CDC"/>
<path d="M141.147 24.3145H138.297V39.5975H141.147V24.3145Z" fill="#003CDC"/>
<path d="M216.063 29.8486C217.351 29.8486 218.217 30.7534 218.555 32.018H221.285C220.809 29.3919 218.631 27.6899 215.946 27.6899C212.603 27.6899 210.352 30.1524 210.352 33.8428C210.352 37.5354 212.603 39.9978 215.946 39.9978C218.629 39.9978 220.807 38.2959 221.285 35.6697H218.555C218.217 36.9343 217.351 37.8391 216.063 37.8391C214.219 37.8391 213.088 36.2147 213.088 33.8428C213.088 31.4708 214.219 29.8465 216.063 29.8465V29.8486Z" fill="#003CDC"/>
<path d="M125.665 27.6924C122.336 27.6924 119.781 29.9695 119.781 33.8452C119.781 37.7209 122.336 40.0002 125.665 40.0002C128.353 40.0002 130.536 38.5137 131.277 35.9005H128.422C127.888 37.3073 126.792 37.9385 125.665 37.9385C124.215 37.9385 122.81 36.8958 122.599 34.4894H131.523C131.54 34.2804 131.548 34.0671 131.548 33.8474C131.548 29.9717 128.993 27.6945 125.665 27.6945V27.6924ZM122.703 32.4923C123.105 30.5922 124.366 29.7563 125.665 29.7563C126.964 29.7563 128.224 30.5922 128.627 32.4923H122.703Z" fill="#003CDC"/>
<path d="M234.005 33.8452C234.005 29.9695 231.45 27.6924 228.122 27.6924C224.793 27.6924 222.238 29.9695 222.238 33.8452C222.238 37.7209 224.793 40.0002 228.122 40.0002C230.81 40.0002 232.993 38.5137 233.734 35.9005H230.879C230.345 37.3073 229.249 37.9385 228.122 37.9385C226.672 37.9385 225.267 36.8958 225.056 34.4894H233.98C233.997 34.2804 234.005 34.0671 234.005 33.8474V33.8452ZM225.16 32.4923C225.562 30.5922 226.823 29.7563 228.122 29.7563C229.421 29.7563 230.681 30.5922 231.084 32.4923H225.16Z" fill="#003CDC"/>
<path d="M44.0833 15.8104V8.20338C44.0833 5.29931 42.097 4.02393 39.8457 4.02393C37.7409 4.02393 36.4548 5.0494 35.9032 5.64831C35.1427 4.49142 33.8868 4.02393 32.4089 4.02393C30.931 4.02393 29.8193 4.64869 29.2118 5.16574V4.30184H26.4844V15.8104H29.2118V9.23317C29.2118 7.61094 29.968 6.17613 31.6635 6.10504C33.3072 6.0361 33.9191 7.29424 33.9191 8.49422V15.8104H36.6465V9.23317C36.6465 7.61094 37.4048 6.17613 39.1003 6.10504C40.7204 6.03825 41.3365 7.25547 41.3538 8.44036V15.8104H44.0812H44.0833Z" fill="#003CDC"/>
<path d="M63.7424 15.811H66.4827V4.30029H63.7424V10.3153C63.7424 11.6402 63.4343 14.038 61.2993 14.038C59.4703 14.038 59.0997 12.5106 59.0997 11.47V4.30029H56.3594V11.9009C56.3594 14.6046 58.0182 16.0868 60.4613 16.0868C61.8767 16.0868 63.0034 15.5611 63.7402 14.7619V15.811H63.7424Z" fill="#003CDC"/>
<path d="M71.2843 9.23337C71.2843 7.61114 72.0943 6.17418 73.7898 6.10308C75.4077 6.0363 75.9743 7.29229 75.9915 8.47503V15.8085H78.719V8.12172C78.719 5.45893 76.7326 4.02197 74.4813 4.02197C72.8957 4.02197 71.8918 4.64889 71.2821 5.23272V4.29988H68.5547V15.8085H71.2821V9.23121L71.2843 9.23337Z" fill="#003CDC"/>
<path d="M50.0878 14.0378C48.9805 13.9172 48.3514 13.3743 48.0584 12.4501H45.1328C45.6197 14.8737 47.5565 16.2094 50.3054 16.2094C53.203 16.2094 55.2562 14.5613 55.2066 12.4199C55.1527 10.0566 52.5546 9.3284 51.3805 9.03325C49.1593 8.47743 48.3256 8.07672 48.3256 7.29469C48.3256 6.41571 49.323 5.92236 50.3507 5.98268C51.5808 6.05593 52.253 6.67638 52.4145 7.54244H55.0084C54.8188 5.48287 53.0199 3.89941 50.2106 3.89941C47.6146 3.89941 45.4237 5.2782 45.4624 7.45411C45.4904 8.98155 46.5504 9.93809 48.1058 10.5198C49.8035 11.1575 52.0957 11.3901 52.2961 12.4802C52.4964 13.5703 51.3675 14.1736 50.0857 14.0357L50.0878 14.0378Z" fill="#003CDC"/>
<path d="M90.8979 14.2638V4.29992H88.1597V5.19398C87.382 4.39687 86.3328 3.90137 84.9993 3.90137C81.7311 3.90137 79.9258 6.18499 79.9258 9.68151C79.9258 13.178 81.7311 15.4617 84.9993 15.4617C86.3501 15.4617 87.4079 14.9532 88.1921 14.1389V14.6559C88.1921 16.22 87.5996 17.6052 85.7253 17.7108C83.7002 17.825 83.1099 16.4936 83.0302 16.2049H80.3351C80.6863 18.0103 82.2374 19.9449 85.5379 19.9449C89.0516 19.9449 90.8958 17.5083 90.8958 14.2617L90.8979 14.2638ZM85.3505 13.3095C83.586 13.2771 82.664 11.782 82.664 9.68367C82.664 7.58532 83.6033 6.05357 85.4043 6.05357C87.2054 6.05357 88.1188 7.57886 88.1188 9.66859C88.1188 11.7583 87.117 13.2793 85.3483 13.3116L85.3505 13.3095Z" fill="#003CDC"/>
<path d="M21.7165 14.9382V15.8107H24.4677V4.30208H21.7165V5.20045C20.9345 4.39902 19.797 3.90137 18.457 3.90137C15.1716 3.90137 13 6.42197 13 10.0564C13 13.6908 15.1737 16.2092 18.457 16.2092C19.797 16.2092 20.9345 15.7094 21.7187 14.9101V14.936L21.7165 14.9382ZM18.7564 14.0484C16.9468 14.0484 15.7533 12.452 15.7533 10.0564C15.7533 7.66073 16.9468 6.06434 18.7564 6.06434C20.5661 6.06434 21.6778 7.85246 21.6778 10.0564C21.6778 12.2603 20.5683 14.0484 18.7564 14.0484Z" fill="#003CDC"/>
<path d="M7.02115 6.81209C4.39068 6.0042 3.89302 5.27603 3.78961 4.38412C3.6819 3.45344 4.36267 2.21253 6.13356 2.21253C7.90444 2.21253 8.50551 3.52453 8.64339 4.26348H11.653C11.276 1.35509 8.94069 0 6.14648 0C3.35228 0 0.652865 1.5296 0.652865 4.46168C0.652865 7.39376 3.01404 8.24689 5.59066 9.10217C8.0337 9.91436 8.94931 10.4185 8.94931 11.6831C8.94931 12.8443 7.94106 13.8288 6.36192 13.8288C4.78277 13.8288 3.69913 13.1933 3.28765 11.7865H0.25C0.493443 13.413 2.01658 16.2094 6.1034 16.2094C10.1902 16.2094 12.0387 13.9042 12.0387 11.431C12.0387 8.62821 9.55468 7.58981 7.02115 6.81209Z" fill="#003CDC"/>
</g>
<defs>
<clipPath id="clip0_1011_1684">
<rect width="233.75" height="40" fill="white" transform="translate(0.25)"/>
</clipPath>
</defs>
</svg>
