<svg width="108" height="24" viewBox="0 0 108 24" fill="none" xmlns="http://www.w3.org/2000/svg">
<path d="M29.3311 24H0V0H29.3311V24ZM15.3682 16.5186C13.9716 16.5189 12.8389 17.6306 12.8389 19.002C12.8391 20.3731 13.9718 21.4851 15.3682 21.4854C16.7648 21.4854 17.8973 20.3733 17.8975 19.002C17.8975 17.6305 16.765 16.5186 15.3682 16.5186ZM14.0596 2.59473L1.99512 21.4141H6.47168L18.5273 2.59473H14.0596ZM62.1934 3.31641C67.4777 3.31641 71.2673 7.18789 71.2676 11.9639V12.0117C71.2676 16.7878 67.4297 20.7068 62.1455 20.707C56.861 20.6991 53.0713 16.8358 53.0713 12.0596V12.0117C53.0714 7.23567 56.909 3.31648 62.1934 3.31641ZM41.8799 10.957L48.8203 3.61035H53.3701L46.4053 10.7422L53.6934 20.4219H49.168L43.8594 13.2656L41.8799 15.2803V20.4219H38.1143V3.61035H41.8799V10.957ZM80.6328 3.61035C86.0141 3.61037 89.7312 7.23549 89.7314 11.9639V12.0117C89.7314 16.7403 86.0142 20.414 80.6328 20.4141H73.958V3.61035H80.6328ZM107.556 20.374H103.62L102.053 16.6055H94.8135L93.2451 20.374H89.4072L96.7441 3.45117H100.219L107.556 20.374ZM62.1455 6.72754C59.1156 6.72754 57.0061 9.08408 57.0059 11.9639V12.0117C57.0059 14.8917 59.1553 17.2958 62.1934 17.2959C65.2315 17.2959 67.333 14.9396 67.333 12.0596V12.0117C67.3329 9.13197 65.1833 6.72779 62.1455 6.72754ZM77.7236 17.0654H80.6328V17.0732C83.7113 17.0732 85.7958 15.0348 85.7959 12.0518V12.0039C85.7959 9.02874 83.7194 6.93459 80.6328 6.93457H77.7236V17.0654ZM96.1709 13.3447H100.712L98.4414 7.89453L96.1709 13.3447ZM22.8584 2.59473L16.127 13.1709H20.6035L27.335 2.59473H22.8584Z" fill="white"/>
</svg>
