<svg width="117" height="26" viewBox="0 0 117 26" fill="none" xmlns="http://www.w3.org/2000/svg">
<path fill-rule="evenodd" clip-rule="evenodd" d="M0 0H31.7755V26H0V0ZM57.4935 13.0645V13.0129C57.4935 7.83872 61.6515 3.59277 67.3763 3.59277C73.1012 3.59277 77.2066 7.78715 77.2066 12.9614V13.0129C77.2066 18.1871 73.0486 22.4331 67.3238 22.4331C61.5989 22.4245 57.4935 18.2387 57.4935 13.0645ZM72.9436 13.0645V13.0129C72.9436 9.89293 70.6151 7.28864 67.3238 7.28864C64.0412 7.28864 61.7565 9.84136 61.7565 12.9614V13.0129C61.7565 16.1329 64.085 18.7372 67.3763 18.7372C70.6677 18.7372 72.9436 16.1845 72.9436 13.0645ZM41.2907 3.91073H45.3699V11.8697L52.8892 3.91073H57.8175L50.2719 11.6377L58.1676 22.1236H53.2656L47.5145 14.3709L45.3699 16.554V22.1236H41.2907V3.91073ZM87.3522 3.91073H80.1217V22.115H87.3522C93.1821 22.115 97.2087 18.1355 97.2087 13.0129V12.9613C97.2087 7.83867 93.1821 3.91073 87.3522 3.91073ZM92.9457 13.0559C92.9457 16.2876 90.6873 18.4965 87.3522 18.4965V18.4879H84.2009V7.51206H87.3522C90.696 7.51206 92.9457 9.78115 92.9457 13.0043V13.0559ZM104.806 3.73877H108.57L116.519 22.072H112.256L110.557 17.9893H102.714L101.016 22.072H96.8581L104.806 3.73877ZM109.104 14.4568L106.645 8.55199L104.185 14.4568H109.104Z" fill="black"/>
<path fill-rule="evenodd" clip-rule="evenodd" d="M20.0719 2.81047H15.2312L2.16211 23.1979H7.01159L20.0719 2.81047ZM29.613 2.81047H24.7635L17.4717 14.2677H22.3212L29.613 2.81047ZM19.3893 20.5851C19.3893 22.0708 18.1626 23.2753 16.6494 23.2753C15.1362 23.2753 13.9095 22.0708 13.9095 20.5851C13.9095 19.0993 15.1362 17.8948 16.6494 17.8948C18.1626 17.8948 19.3893 19.0993 19.3893 20.5851Z" fill="#00D998"/>
</svg>
