<svg width="124" height="124" viewBox="0 0 124 124" fill="none" xmlns="http://www.w3.org/2000/svg">
<rect x="0.5" y="0.5" width="123" height="123" rx="3.5" fill="white" stroke="#E8EAE9"/>
<path d="M35.6757 31.0346L41.5529 37.3053L38.4197 40.2419L61.7921 65.1791L72.1622 60.5824C70.9846 59.3175 67.2365 55.3354 66.0165 54.1182C67.318 51.4923 68.1581 47.9642 68.3289 45.0277C68.4415 43.1279 68.4415 41.2347 68.2063 39.3441C67.561 34.1425 65.1786 28.7946 61.6785 24.8785C56.9414 19.5791 50.3391 15.8099 43.1407 15.4234C41.6978 15.346 40.2174 15.2879 38.7725 15.3985C32.4929 15.8698 26.7381 18.5702 22.0805 22.7455C22.0699 22.7554 22.0594 22.7653 22.0488 22.7751L32.5425 33.9713L35.6757 31.0346Z" fill="url(#paint0_linear_414_1021)"/>
<path d="M42.6974 36.3074L36.7688 29.9819L32.5518 33.9343L38.4804 40.2598L42.6974 36.3074Z" fill="#99F0D6"/>
<path d="M109.704 100.625C109.148 100.061 108.305 99.2344 107.753 98.5602C107.535 98.2935 107.362 98.0508 107.269 97.8576C107.054 97.4049 105.758 89.0705 105.752 88.2996C103.62 87.795 101.456 87.3917 99.3065 86.9622C98.5407 86.8086 96.2189 86.1528 95.7072 85.666C94.2612 84.2964 76.6123 65.3857 76.6123 65.3857C75.1104 63.7832 73.6257 62.1527 72.1221 60.54L61.752 65.1367L103.842 110.044C103.976 110.014 104.071 109.964 104.185 109.861C105.184 108.949 109.97 104.463 111.736 102.887C111.078 102.121 110.395 101.371 109.706 100.627L109.704 100.625Z" fill="url(#paint1_linear_414_1021)"/>
<path d="M38.5774 40.3485L22.2066 22.8818C16.9733 27.5965 13.941 34.6132 13.5518 41.5804C13.5385 41.8028 13.5312 42.0275 13.524 42.2481C13.5189 42.4708 13.5137 42.6934 13.5126 42.9163C13.5115 43.1391 13.5145 43.362 13.5175 43.585C13.5205 43.8079 13.5276 44.031 13.5388 44.2542C13.55 44.4774 13.5611 44.7006 13.5785 44.922C13.5938 45.1453 13.6111 45.3667 13.6326 45.5882C13.654 45.8097 13.6774 46.0333 13.703 46.2549C13.7285 46.4766 13.7581 46.6983 13.7899 46.9181C13.8216 47.1379 13.8553 47.3598 13.8932 47.5777C13.929 47.7977 13.9689 48.0177 14.0129 48.2379C14.0549 48.456 14.101 48.6742 14.1491 48.8945C14.1951 49.1127 14.2474 49.3291 14.2997 49.5454C14.352 49.7618 14.4084 49.9783 14.4668 50.1928C14.5253 50.4073 14.5858 50.624 14.6504 50.8366C14.7151 51.0493 14.7817 51.2641 14.8485 51.4748C14.9153 51.6855 14.9881 51.8985 15.0631 52.1094C15.138 52.3204 15.2151 52.5294 15.2921 52.7384C15.3713 52.9454 15.4524 53.1545 15.5378 53.3597C15.621 53.5668 15.7105 53.7721 15.798 53.9753C15.8874 54.1806 15.9789 54.3839 16.0726 54.5853C16.1663 54.7866 16.264 54.9881 16.3617 55.1896C16.4616 55.3891 16.5614 55.5886 16.6655 55.7842C16.7696 55.9797 16.8756 56.1774 16.9838 56.3731C17.0919 56.5687 17.2043 56.7605 17.3167 56.9522C17.4291 57.1439 17.5455 57.3358 17.6641 57.5257C17.7826 57.7156 17.9033 57.9035 18.0261 58.0894C18.1489 58.2754 18.2738 58.4593 18.4027 58.6434C18.5297 58.8254 18.6608 59.0075 18.7899 59.1875C18.9231 59.3677 19.0543 59.5457 19.1917 59.7219C19.3291 59.8981 19.4665 60.0743 19.6061 60.2485C19.7456 60.4227 19.8893 60.5929 20.033 60.7632C20.1768 60.9335 20.3247 61.0998 20.4727 61.2661C20.6226 61.4345 20.7745 61.605 20.9286 61.7695C21.0828 61.9339 21.2389 62.1005 21.3952 62.263C21.5514 62.4255 21.7139 62.5861 21.8743 62.7446C22.0348 62.9032 22.2015 63.0599 22.3661 63.2145C22.5308 63.369 22.6997 63.5197 22.8686 63.6703C23.0375 63.8209 23.2107 63.9676 23.3838 64.1143C23.5569 64.261 23.7321 64.4056 23.9096 64.5443C24.0869 64.687 24.2644 64.8257 24.444 64.9623C24.6236 65.099 24.8052 65.2337 24.989 65.3664C25.1728 65.4991 25.3587 65.6298 25.5448 65.7565C25.7328 65.8852 25.9209 66.0099 26.1112 66.1326C26.3014 66.2553 26.4938 66.376 26.6862 66.4967C26.8806 66.6155 27.0731 66.7321 27.2698 66.8448C27.4665 66.9575 27.6632 67.0702 27.8622 67.1768C28.059 67.2854 28.2621 67.3922 28.4612 67.4947C28.6622 67.5994 28.8655 67.6979 29.0708 67.7986C29.2741 67.8972 29.4795 67.9938 29.685 68.0864C29.8906 68.1789 30.0982 68.2694 30.308 68.358C30.5177 68.4466 30.7255 68.533 30.9375 68.6155C31.1495 68.6981 31.3595 68.7785 31.5717 68.8569C31.7838 68.9353 32.0002 69.0098 32.2145 69.0822C32.4289 69.1545 32.6454 69.2249 32.862 69.2912C33.0786 69.3575 33.2952 69.4238 33.5141 69.4841C33.7308 69.5463 33.9518 69.6046 34.1708 69.6607C34.3898 69.7169 34.6108 69.7711 34.8321 69.8212C35.0533 69.8713 35.2745 69.9214 35.498 69.9654C35.7194 70.0114 35.9408 70.0534 36.1644 70.0933C36.388 70.1333 36.6118 70.1691 36.8355 70.205C37.0592 70.2409 37.2852 70.2707 37.5092 70.2984C37.7332 70.3261 37.9593 70.3518 38.1834 70.3754C38.4076 70.399 38.6359 70.4187 38.8623 70.4363C39.0887 70.4538 39.3152 70.4673 39.5417 70.4807C43.381 70.6767 46.9689 70.1141 50.59 68.8432C51.7259 70.1312 55.4616 74.117 56.6479 75.3658L61.946 65.2774L38.5736 40.3402L38.5774 40.3485Z" fill="url(#paint2_linear_414_1021)"/>
<path d="M38.5111 40.2308L32.5825 33.9053L28.3655 37.8577L34.2941 44.1832L38.5111 40.2308Z" fill="#00986A"/>
<path d="M61.9273 65.2183L56.6292 75.3067C57.8075 76.547 58.9964 77.7775 60.1643 79.0236C60.8244 79.7278 62.5291 81.3184 62.9023 82.1054C63.1166 82.558 64.4127 90.8925 64.4184 91.6634C66.5508 92.168 68.7151 92.5713 70.8643 93.0007C71.6301 93.1543 72.6671 93.2043 73.3725 93.5175C74.8457 94.1765 85.7802 106.595 88.0093 108.72C89.2118 109.09 90.663 109.037 91.9145 109.155L101.806 110.028C102.508 110.083 103.213 110.083 103.916 110.141C103.953 110.138 103.986 110.131 104.017 110.122L64.4834 67.9413L61.9273 65.2183Z" fill="url(#paint3_linear_414_1021)"/>
<defs>
<linearGradient id="paint0_linear_414_1021" x1="43.6267" y1="11.2019" x2="38.857" y2="55.7963" gradientUnits="userSpaceOnUse">
<stop stop-color="#CCF7EA"/>
<stop offset="0.360602" stop-color="#00D998"/>
<stop offset="0.697145" stop-color="#00C68C"/>
<stop offset="0.961572" stop-color="#00986A"/>
</linearGradient>
<linearGradient id="paint1_linear_414_1021" x1="71.0817" y1="64.6381" x2="68.5926" y2="95.7339" gradientUnits="userSpaceOnUse">
<stop offset="0.0384278" stop-color="#00986A"/>
<stop offset="0.302855" stop-color="#00C68C"/>
<stop offset="0.639398" stop-color="#00D998"/>
<stop offset="1" stop-color="#CCF7EA"/>
</linearGradient>
<linearGradient id="paint2_linear_414_1021" x1="23.7248" y1="30.1026" x2="31.8592" y2="73.2092" gradientUnits="userSpaceOnUse">
<stop stop-color="#CCF7EA"/>
<stop offset="0.360602" stop-color="#00D998"/>
<stop offset="0.697145" stop-color="#00C68C"/>
<stop offset="0.961572" stop-color="#00986A"/>
</linearGradient>
<linearGradient id="paint3_linear_414_1021" x1="59.5042" y1="71.9928" x2="53.5999" y2="100.704" gradientUnits="userSpaceOnUse">
<stop offset="0.0384278" stop-color="#00986A"/>
<stop offset="0.302855" stop-color="#00C68C"/>
<stop offset="0.639398" stop-color="#00D998"/>
<stop offset="1" stop-color="#CCF7EA"/>
</linearGradient>
</defs>
</svg>
