<svg viewBox="0 0 124 111" fill="none" xmlns="http://www.w3.org/2000/svg">
<g clip-path="url(#clip0_398_947)">
<path d="M58.8259 74.0046C56.249 72.0482 53.8184 69.9983 52.1678 68.1215C51.4853 68.686 50.6356 69.3266 49.5909 70.0295C45.4331 72.8135 40.645 73.3294 34.5858 72.8689C30.8981 72.5884 28.7287 70.5489 27.5935 68.9907C26.305 71.9547 24.0729 72.9208 22.3492 74.6279C21.2 75.7672 8.78225 83.5028 5.99296 85.2341C5.96858 81.0027 6.5153 73.9804 8.87627 65.9781C11.6099 56.7189 13.5355 46.8537 13.9395 43.533C14.3434 40.2088 14.1415 28.1309 16.5721 22.8953C18.9992 17.6598 25.3787 11.0183 33.374 11.0183C41.3693 11.0183 52.3071 13.0301 56.8619 26.822C60.3511 37.3867 59.4457 62.7336 58.8259 74.0046Z" fill="url(#paint0_radial_398_947)"/>
<path d="M49.5422 46.3031C49.4761 47.2103 49.3472 48.076 49.1661 48.9036C49.1592 48.9036 49.1557 48.9001 49.1487 48.8932C49.1487 48.9243 49.1487 48.9555 49.1452 48.9901C47.3171 57.0963 40.3769 61.4697 38.5174 62.6228C37.0653 63.5265 32.897 65.6145 28.6173 63.9663C24.7903 62.4912 20.8692 58.0243 18.7172 47.0441C18.073 43.758 18.355 40.3057 18.5187 37.7502C18.86 32.4731 18.9122 28.7057 22.2691 23.0581C22.781 22.1993 23.0422 22.6529 23.0422 22.6529C23.0422 22.6529 23.2476 25.5339 23.7943 26.6073C24.7938 28.5672 26.0961 31.1157 30.0346 33.0618C34.1994 35.1186 42.2887 37.4213 46.1853 40.2295C46.7007 40.6 47.1429 40.9809 47.4946 41.3722C48.6299 42.6361 49.6641 44.5925 49.5422 46.3031Z" fill="url(#paint1_radial_398_947)"/>
<path d="M49.1662 48.9035C49.1592 48.9346 49.1522 48.9623 49.1453 48.99C49.1487 48.9554 49.1487 48.9242 49.1487 48.8931C49.1557 48.9 49.1592 48.9035 49.1662 48.9035Z" fill="#FFBDBD"/>
<path d="M51.7848 42.5669C51.7256 43.256 51.7465 49.4577 50.4441 49.34C49.8661 49.288 49.4482 49.0976 49.1661 48.9037C49.3472 48.0761 49.476 47.2104 49.5422 46.3032C49.6641 44.5926 48.6299 42.6362 47.4946 41.3723C47.1429 40.981 46.7007 40.6001 46.1853 40.2296C47.1255 38.7891 48.609 37.6395 50.169 38.7199C52.0738 40.0426 51.8405 41.8779 51.7848 42.5669Z" fill="url(#paint2_radial_398_947)"/>
<path d="M52.1679 68.1216C51.4853 68.686 50.6357 69.3266 49.591 70.0295C45.4332 72.8135 40.645 73.3295 34.5859 72.8689C30.8982 72.5885 28.7287 70.5489 27.5935 68.9907C28.1402 67.7407 28.5163 66.134 28.6173 63.9664C32.897 65.6146 37.0653 63.5266 38.5174 62.6228C40.3769 61.4698 47.3171 57.0964 49.1453 48.9902C48.992 52.9862 48.8179 63.0072 50.7401 66.224C51.0988 66.8266 51.5898 67.4637 52.1679 68.1216Z" fill="url(#paint3_radial_398_947)"/>
<path d="M102.282 22.0365C102.317 19.8274 101.878 18.0406 100.426 17.7151C98.6776 17.3204 95.4669 17.5281 92.7264 18.3072C89.9824 19.0898 82.4572 20.4125 79.95 20.4922C77.4427 20.5684 72.4283 21.8149 71.9582 26.8047C71.9477 26.9224 71.9373 27.0401 71.9268 27.1579C71.6935 26.358 71.2513 25.5131 70.3006 25.5477C68.7371 25.61 67.4834 26.5519 66.8706 28.0755C66.2577 29.5991 65.6761 31.0292 66.8706 32.6428C68.065 34.2564 69.4126 35.6553 69.7469 36.6318C69.9489 37.217 70.4399 38.003 71.0145 37.9892C71.2826 40.0425 71.5298 43.1763 71.1816 46.4139C69.531 45.24 64.1196 38.1831 62.7093 35.8423C61.2989 33.505 59.4951 27.2721 59.8886 19.3218C60.2786 11.3715 62.0824 8.33468 64.1962 6.30901C66.3134 4.27987 71.0946 3.89205 74.8554 4.04787C78.6197 4.20369 81.3603 1.94256 84.0242 0.463987C86.6916 -1.01804 92.5697 1.47509 93.8999 2.09838C95.2336 2.72166 101.502 5.5299 102.755 5.7619C104.009 5.99737 105.423 6.46483 105.736 11.7627C105.98 15.8799 103.431 20.281 102.282 22.0365Z" fill="url(#paint4_radial_398_947)"/>
<path d="M102.282 22.0365C102.275 22.6183 102.236 23.2277 102.17 23.8441C101.986 25.6412 101.895 28.5949 100.798 35.3748C99.7012 42.1548 96.4871 48.6231 94.1365 51.4313C93.4819 52.2104 92.7158 52.8337 91.8347 53.2908C89.5469 54.4716 86.5069 54.5166 82.7704 53.2215C78.9747 51.9057 76.2307 47.5219 74.4861 43.8688C73.8523 42.5461 73.3509 41.3168 72.9748 40.3646C72.5674 39.3258 72.2714 38.1727 72.0694 36.9365C72.0032 36.5487 71.9475 36.1574 71.9023 35.7557C71.5958 33.0998 71.6585 30.1358 71.9266 27.1579C71.9371 27.0401 71.9475 26.9224 71.958 26.8047C72.4281 21.8149 77.4425 20.5684 79.9498 20.4922C82.457 20.4125 89.9822 19.0898 92.7262 18.3072C95.4668 17.5281 98.6774 17.3204 100.425 17.7151C101.878 18.0406 102.316 19.8273 102.282 22.0365Z" fill="url(#paint5_radial_398_947)"/>
<path d="M72.0695 36.9364C71.7143 37.6982 71.3522 37.9822 71.0144 37.9891C70.4398 38.003 69.9488 37.2169 69.7468 36.6317C69.4125 35.6553 68.0649 34.2563 66.8705 32.6427C65.6761 31.0291 66.2576 29.599 66.8705 28.0754C67.4834 26.5518 68.737 25.61 70.3005 25.5477C71.2512 25.513 71.6934 26.3579 71.9267 27.1578C71.6586 30.1357 71.5959 33.0998 71.9024 35.7557C71.9476 36.1573 72.0034 36.5486 72.0695 36.9364Z" fill="url(#paint6_radial_398_947)"/>
<path d="M92.6707 65.7911C94.1576 65.064 95.063 64.226 95.5854 63.5992C93.6771 61.3589 91.5807 57.7369 91.8384 53.2908C89.5506 54.4716 86.5106 54.5166 82.7741 53.2216C78.9784 51.9057 76.2344 47.522 74.4898 43.8688C73.856 42.5461 73.3546 41.3168 72.9785 40.3646C72.5711 39.3258 72.2751 38.1727 72.0731 36.9365C71.7179 37.6983 71.3558 37.9823 71.018 37.9892C71.2861 40.0426 71.5333 43.1763 71.1851 46.4139C71.1015 47.2242 70.9797 48.0414 70.809 48.8482C69.4962 55.1191 69.1759 57.169 63.0366 62.0306C74.6674 68.9491 89.9545 67.1208 92.6742 65.7911H92.6707Z" fill="url(#paint7_radial_398_947)"/>
<path d="M112.983 77.1902C108.069 72.9207 99.663 67.1103 97.7129 65.6594C97.1662 65.2508 96.3931 64.5514 95.5818 63.5991C95.0594 64.2259 94.154 65.0638 92.6671 65.791C89.9509 67.1207 74.6638 68.949 63.0295 62.0305C62.9669 62.0825 62.9042 62.1309 62.838 62.1829C56.5073 67.1553 44.7372 74.24 41.9932 78.3779C39.2491 82.5123 39.0263 88.4993 38.9845 88.6309C38.9392 88.7625 39.0263 111 39.0263 111H118.997L118.997 87.7929C118.997 87.7929 117.893 81.4562 112.979 77.1902H112.983Z" fill="url(#paint8_radial_398_947)"/>
<rect x="92.2703" y="71.9465" width="28.4595" height="21.0714" fill="white"/>
<path opacity="0.6" d="M82.8501 111H0L0.135808 95.2899C0.135808 95.2899 0.790474 89.6872 5.4393 85.577C5.4393 85.577 5.63779 85.4523 5.99298 85.2342C8.78227 83.5029 21.2 75.7672 22.3492 74.628C24.0729 72.9209 26.305 71.9548 27.5935 68.9907C28.7287 70.5489 30.8981 72.5885 34.5859 72.8689C40.645 73.3295 45.4331 72.8135 49.591 70.0295C50.6356 69.3266 51.4853 68.686 52.1678 68.1216C53.8184 69.9984 56.249 72.0483 58.8259 74.0047C63.5479 77.5955 68.7573 80.8643 70.5403 82.1455C73.6395 84.372 80.2941 88.1221 82.1954 92.4885C84.6608 98.1535 82.8501 111 82.8501 111Z" fill="url(#paint9_radial_398_947)"/>
<path d="M106.046 60.4905L122.503 64.1357C123.418 64.3382 124.07 65.1483 124.07 66.0833V86.0196C124.07 90.0249 122.061 93.7651 118.72 95.9852L106.046 104.406L93.3718 95.9852C90.0283 93.7626 88.0217 90.0249 88.0217 86.0196V66.0833C88.0217 65.1483 88.6739 64.3382 89.5894 64.1357L106.046 60.4905ZM114.963 74.9064L105.048 84.787L99.3841 79.1417L96.5523 81.9643L105.048 90.4324L117.792 77.7291L114.96 74.9064H114.963Z" fill="url(#paint10_linear_398_947)"/>
</g>
<defs>
<radialGradient id="paint0_radial_398_947" cx="0" cy="0" r="1" gradientTransform="matrix(-46.0592 10.6942 -7.69756 -257.365 64.6865 58.5482)" gradientUnits="userSpaceOnUse">
<stop stop-color="#CCF7EA"/>
<stop offset="1" stop-color="#009867"/>
</radialGradient>
<radialGradient id="paint1_radial_398_947" cx="0" cy="0" r="1" gradientTransform="matrix(23.5 32.5 -192.139 89.4322 21.5 26.5)" gradientUnits="userSpaceOnUse">
<stop stop-color="#E6FBF5"/>
<stop offset="0.824844" stop-color="#66E8C1"/>
<stop offset="0.985379" stop-color="#00D998"/>
</radialGradient>
<radialGradient id="paint2_radial_398_947" cx="0" cy="0" r="1" gradientTransform="matrix(-3 6 -21.7691 -12.4174 52 40.5)" gradientUnits="userSpaceOnUse">
<stop stop-color="#CCF7EA"/>
<stop offset="0.622751" stop-color="#66E8C1"/>
<stop offset="1" stop-color="#00D998"/>
</radialGradient>
<radialGradient id="paint3_radial_398_947" cx="0" cy="0" r="1" gradientTransform="matrix(23.5 6.5 -94.8598 141.819 24.5 58)" gradientUnits="userSpaceOnUse">
<stop stop-color="#CCF7EA"/>
<stop offset="0.622751" stop-color="#66E8C1"/>
<stop offset="1" stop-color="#00C68C"/>
</radialGradient>
<radialGradient id="paint4_radial_398_947" cx="0" cy="0" r="1" gradientTransform="matrix(-39.5918 6.68796 -6.61672 -160.951 110.287 29.725)" gradientUnits="userSpaceOnUse">
<stop stop-color="#CCF7EA"/>
<stop offset="1" stop-color="#009867"/>
</radialGradient>
<radialGradient id="paint5_radial_398_947" cx="0" cy="0" r="1" gradientTransform="matrix(-17 34 -170.593 -143.426 98.5 20)" gradientUnits="userSpaceOnUse">
<stop stop-color="#E6FBF5"/>
<stop offset="0.800244" stop-color="#66E8C1"/>
<stop offset="1" stop-color="#00D998"/>
</radialGradient>
<radialGradient id="paint6_radial_398_947" cx="0" cy="0" r="1" gradientTransform="matrix(6 2 -9.62534 20.5298 66 30)" gradientUnits="userSpaceOnUse">
<stop stop-color="#CCF7EA"/>
<stop offset="0.622751" stop-color="#66E8C1"/>
<stop offset="1" stop-color="#00D998"/>
</radialGradient>
<radialGradient id="paint7_radial_398_947" cx="0" cy="0" r="1" gradientTransform="matrix(-14 8.49999 -20.5186 -108.882 88.5 53)" gradientUnits="userSpaceOnUse">
<stop stop-color="#CCF7EA"/>
<stop offset="0.622751" stop-color="#66E8C1"/>
<stop offset="1" stop-color="#00C68C"/>
</radialGradient>
<radialGradient id="paint8_radial_398_947" cx="0" cy="0" r="1" gradientTransform="matrix(2.64344e-06 39.4008 -68.2747 -0.397461 73.477 68.173)" gradientUnits="userSpaceOnUse">
<stop stop-color="#E6FBF5"/>
<stop offset="1" stop-color="#009867"/>
</radialGradient>
<radialGradient id="paint9_radial_398_947" cx="0" cy="0" r="1" gradientTransform="matrix(2.75793e-06 34.5 -71.2317 -0.348023 36 73.5)" gradientUnits="userSpaceOnUse">
<stop stop-color="#E6FBF5"/>
<stop offset="1" stop-color="#009867"/>
</radialGradient>
<linearGradient id="paint10_linear_398_947" x1="121.358" y1="74.4085" x2="91.3703" y2="74.4085" gradientUnits="userSpaceOnUse">
<stop stop-color="#66E8C1"/>
<stop offset="0.360602" stop-color="#00D998"/>
<stop offset="0.61096" stop-color="#00C68C"/>
<stop offset="0.961572" stop-color="#006D4C"/>
</linearGradient>
<clipPath id="clip0_398_947">
<rect width="124" height="111" fill="white"/>
</clipPath>
</defs>
</svg>
