<svg viewBox="0 0 124 124" fill="none" xmlns="http://www.w3.org/2000/svg">
<rect width="124" height="124" rx="4" fill="white"/>
<path d="M87.9988 40.79C87.9988 26.8348 76.5796 15.5 62.4617 15.5H61.5378C47.42 15.5002 36.0007 26.8349 36.0007 40.79V69.1455H33.0007V40.79C33.0007 25.1521 45.7892 12.5002 61.5378 12.5H62.4617C78.2104 12.5 90.9988 25.152 90.9988 40.79V69.1455H87.9988V40.79Z" fill="url(#paint0_linear_414_1037)"/>
<path d="M25.9024 43.3936H98.0976C100.25 43.3936 102 45.1271 102 47.2603V106.839H22V47.2603C22 45.1271 23.7496 43.3936 25.9024 43.3936Z" fill="url(#paint1_linear_414_1037)"/>
<path d="M67.2031 71.87C67.2031 69.0215 64.8747 66.7144 61.9999 66.7144C59.1251 66.7144 56.7966 69.0215 56.7966 71.87C56.7966 73.9065 57.9934 75.6626 59.7235 76.5004V84.4358H64.2763V76.5004C66.0064 75.6626 67.2031 73.9065 67.2031 71.87Z" fill="white"/>
<path d="M64.2761 84.436V76.5005C66.0062 75.6627 67.2029 73.9061 67.2029 71.8696C67.2027 69.0213 64.8744 66.7144 61.9998 66.7144C59.1251 66.7144 56.7968 69.0213 56.7966 71.8696C56.7966 73.9061 57.9933 75.6627 59.7234 76.5005V84.436H64.2761ZM68.2029 71.8696C68.2029 74.0794 67.0246 76.002 65.2761 77.0854V85.436H58.7234V77.0854C56.975 76.0019 55.7966 74.0793 55.7966 71.8696C55.7968 68.4604 58.5815 65.7144 61.9998 65.7144C65.418 65.7144 68.2027 68.4604 68.2029 71.8696Z" fill="#00D998"/>
<defs>
<linearGradient id="paint0_linear_414_1037" x1="61.9999" y1="47" x2="61.9999" y2="62" gradientUnits="userSpaceOnUse">
<stop stop-color="#00986A"/>
<stop offset="1" stop-color="#00986A" stop-opacity="0"/>
</linearGradient>
<linearGradient id="paint1_linear_414_1037" x1="104.106" y1="88.0061" x2="22.473" y2="88.0061" gradientUnits="userSpaceOnUse">
<stop offset="0.0384278" stop-color="#00986A"/>
<stop offset="0.302855" stop-color="#00C68C"/>
<stop offset="0.639398" stop-color="#00D998"/>
<stop offset="1" stop-color="#CCF7EA"/>
</linearGradient>
</defs>
</svg>
