<svg viewBox="0 0 50 57" fill="none" xmlns="http://www.w3.org/2000/svg">
<g clip-path="url(#clip0_174_227)">
<path d="M1.88428 17.674V39.636C1.88428 41.0294 2.62741 42.3299 3.84826 43.0199L22.8511 53.9943C24.0587 54.6977 25.5582 54.6977 26.7658 53.9943L45.7819 43.0199C46.9895 42.3166 47.7459 41.0294 47.7459 39.636V17.674C47.7459 16.2806 47.0028 14.9801 45.7819 14.2768L26.7658 3.30239C25.5582 2.59907 24.0587 2.59907 22.8511 3.30239L3.83499 14.2768C2.64068 14.9801 1.88428 16.2673 1.88428 17.674Z" fill="#213147"/>
<path d="M28.9686 32.9084L26.2482 40.3396C26.1686 40.5387 26.1686 40.7775 26.2482 40.9766L30.906 53.769L36.307 50.6505L29.8311 32.8951C29.6852 32.497 29.1145 32.497 28.9686 32.9084Z" fill="#12AAFF"/>
<path d="M34.3962 20.3945C34.2502 19.9831 33.6796 19.9831 33.5203 20.3945L30.8 27.8257C30.7203 28.0381 30.7203 28.2637 30.8 28.4627L38.4436 49.4163L43.8445 46.2978L34.3962 20.3945Z" fill="#12AAFF"/>
<path d="M24.8152 4.11194C24.9479 4.11194 25.0806 4.15176 25.2 4.21811L45.7687 16.0949C46.0076 16.2276 46.1535 16.4797 46.1535 16.7584V40.5119C46.1535 40.7906 46.0076 41.0428 45.7687 41.1755L25.2 53.0655C25.0806 53.1319 24.9479 53.1717 24.8152 53.1717C24.6825 53.1717 24.5498 53.1319 24.4303 53.0655L3.86161 41.1887C3.62275 41.056 3.47678 40.8039 3.47678 40.5252V16.7584C3.47678 16.4797 3.62275 16.2276 3.86161 16.0949L24.4303 4.21811C24.5498 4.15176 24.6825 4.11194 24.8152 4.11194ZM24.8152 0.648438C24.0853 0.648438 23.3422 0.84749 22.6919 1.21905L2.12322 13.0958C0.822749 13.8522 0 15.2456 0 16.7584V40.5119C0 42.0247 0.809479 43.4314 2.12322 44.1878L22.6919 56.0646C23.3422 56.4494 24.072 56.6352 24.8152 56.6352C25.5583 56.6352 26.2881 56.4361 26.9384 56.0646L47.5071 44.1878C48.8209 43.4314 49.6303 42.038 49.6303 40.5119V16.7584C49.6303 15.2456 48.8209 13.839 47.5071 13.0826L26.9384 1.21905C26.2749 0.84749 25.545 0.648438 24.8152 0.648438Z" fill="#9DCCED"/>
<path d="M11.2134 49.4429L13.111 44.2676L16.9063 47.4259L13.3631 50.6771L11.2134 49.4429Z" fill="#213147"/>
<path d="M23.077 15.0732H17.8618C17.477 15.0732 17.1187 15.3121 16.986 15.6837L5.8125 46.3377L11.2134 49.4562L23.5281 15.6969C23.6343 15.3917 23.4087 15.0732 23.077 15.0732Z" fill="white"/>
<path d="M32.2069 15.0732H26.9917C26.6069 15.0732 26.2486 15.3121 26.1159 15.6837L13.3633 50.677L18.7642 53.7955L32.6448 15.6969C32.7642 15.3917 32.5254 15.0732 32.2069 15.0732Z" fill="white"/>
</g>
<defs>
<clipPath id="clip0_174_227">
<rect width="49.6171" height="56" fill="white" transform="translate(0 0.648438)"/>
</clipPath>
</defs>
</svg>
