<svg viewBox="0 0 57 57" fill="none" xmlns="http://www.w3.org/2000/svg">
<rect x="0.666992" y="0.648438" width="56" height="56" rx="28" fill="#F0B90B"/>
<path d="M19.0832 15.4689L29.1671 9.64844L39.251 15.4689L35.5437 17.6192L29.1671 13.9489L22.7905 17.6192L19.0832 15.4689ZM39.251 22.8094L35.5437 20.6592L29.1671 24.3294L22.7905 20.6592L19.0832 22.8094V27.1099L25.4598 30.7801V38.1206L29.1671 40.2709L32.8745 38.1206V30.7801L39.251 27.1099V22.8094ZM39.251 34.4504V30.1499L35.5437 32.3001V36.6006L39.251 34.4504ZM41.8832 35.9704L35.5066 39.6406V43.9411L45.5905 38.1206V26.4796L41.8832 28.6299V35.9704ZM38.1759 19.1392L41.8832 21.2894V25.5899L45.5905 23.4397V19.1392L41.8832 16.9889L38.1759 19.1392ZM25.4598 41.1978V45.4983L29.1671 47.6484L32.8745 45.4983V41.1978L29.1671 43.3479L25.4598 41.1978ZM19.0832 34.4504L22.7905 36.6006V32.3001L19.0832 30.1499V34.4504ZM25.4598 19.1392L29.1671 21.2894L32.8745 19.1392L29.1671 16.9889L25.4598 19.1392ZM16.451 21.2894L20.1583 19.1392L16.451 16.9889L12.7437 19.1392V23.4397L16.451 25.5899V21.2894ZM16.451 28.6299L12.7437 26.4796V38.1206L22.8275 43.9411V39.6406L16.451 35.9704V28.6299Z" fill="white"/>
</svg>
