<svg viewBox="0 0 57 57" fill="none" xmlns="http://www.w3.org/2000/svg">
<g clip-path="url(#clip0_174_323)">
<path d="M28.3335 56.6484C43.7975 56.6484 56.3335 44.1124 56.3335 28.6484C56.3335 13.1845 43.7975 0.648438 28.3335 0.648438C12.8695 0.648438 0.333496 13.1845 0.333496 28.6484C0.333496 44.1124 12.8695 56.6484 28.3335 56.6484Z" fill="black"/>
<path d="M41.448 34.3767C41.448 41.65 35.6068 46.0214 28.4089 46.0214C21.2111 46.0214 16.199 41.7253 15.2568 36.2233H21.8894C22.6054 38.296 24.9796 39.8034 28.4089 39.8034C31.8383 39.8034 34.9284 37.8814 34.9284 34.4898C34.9284 31.0981 32.2528 29.3269 28.3712 29.3269V34.1129C21.0603 34.1129 15.4453 29.9676 15.4453 22.9958C15.4453 16.0241 20.8342 11.3135 28.4089 11.3135C35.9836 11.3135 40.5435 15.6096 41.0334 20.8478H34.627C34.0994 18.9635 32.0267 17.5315 28.5597 17.5315C25.0926 17.5315 22.0025 19.4911 22.0025 22.8074C22.0025 26.1237 24.6781 27.7442 28.3712 27.7442V22.6944C36.3228 22.6944 41.448 27.4804 41.448 34.3391V34.3767Z" fill="white"/>
</g>
<defs>
<clipPath id="clip0_174_323">
<rect width="56" height="56" fill="white" transform="translate(0.333496 0.648438)"/>
</clipPath>
</defs>
</svg>
