<svg viewBox="0 0 57 57" fill="none" xmlns="http://www.w3.org/2000/svg">
<path d="M27.3 26.9484V20.1484H30.7V26.9484H37.5V30.3484H30.7V37.1484H27.3V30.3484H20.5V26.9484H27.3ZM29 45.6484C19.6112 45.6484 12 38.0372 12 28.6484C12 19.2596 19.6112 11.6484 29 11.6484C38.3888 11.6484 46 19.2596 46 28.6484C46 38.0372 38.3888 45.6484 29 45.6484ZM29 42.2484C36.5111 42.2484 42.6 36.1595 42.6 28.6484C42.6 21.1374 36.5111 15.0484 29 15.0484C21.4889 15.0484 15.4 21.1374 15.4 28.6484C15.4 36.1595 21.4889 42.2484 29 42.2484Z" fill="#99A29F"/>
</svg>
