<svg viewBox="0 0 40 41" fill="none" xmlns="http://www.w3.org/2000/svg">
<g clip-path="url(#clip0_437_1031)">
<rect y="0.648193" width="40" height="40" rx="20" fill="#00D998"/>
<rect x="7" y="7.64819" width="26" height="26" rx="13" fill="white"/>
<path d="M23.4806 2.93009C21.4749 1.22089 18.525 1.22091 16.5195 2.93008L14.1083 4.98486C13.8218 5.229 13.4656 5.37653 13.0904 5.40647L9.9325 5.65848C7.30575 5.8681 5.2199 7.95395 5.01028 10.5807L4.75829 13.7386C4.72837 14.1138 4.58078 14.4701 4.33664 14.7566L2.28186 17.1677C0.572697 19.1734 0.572715 22.1231 2.2819 24.1286L4.33668 26.54C4.58078 26.8265 4.72833 27.1827 4.75827 27.5579L5.01032 30.7157C5.21994 33.3424 7.3058 35.4282 9.93257 35.6378L13.0904 35.89C13.4656 35.9199 13.8217 36.0675 14.1082 36.3116L16.5194 38.3663C18.525 40.0754 21.4749 40.0756 23.4806 38.3663L25.8917 36.3116C26.1781 36.0675 26.5342 35.9199 26.9095 35.8898L30.0674 35.6378C32.6941 35.4284 34.7799 33.3426 34.9898 30.7157L35.2416 27.5579C35.2715 27.1827 35.4192 26.8263 35.6632 26.5398L37.718 24.1288C39.4273 22.1231 39.4273 19.1732 37.718 17.1677L35.6632 14.7565C35.419 14.47 35.2717 14.1138 35.2418 13.7386L34.9898 10.5807C34.7801 7.95399 32.6941 5.86806 30.0674 5.65846L26.9095 5.40645C26.5342 5.37651 26.1781 5.229 25.8917 4.98486L23.4806 2.93009ZM25.0588 13.0596L27.5883 15.5892L14.9403 28.2373L12.4107 25.7075L25.0588 13.0596ZM16.8376 17.4863C15.7897 18.5341 14.0909 18.5341 13.0431 17.4863C11.9953 16.4387 11.9953 14.7398 13.0431 13.692C14.0909 12.6442 15.7897 12.6442 16.8376 13.692C17.8854 14.7398 17.8854 16.4387 16.8376 17.4863ZM23.1615 27.6048C22.1137 26.557 22.1137 24.8582 23.1615 23.8104C24.2093 22.7626 25.908 22.7626 26.9558 23.8104C28.0037 24.8582 28.0037 26.557 26.9558 27.6048C25.908 28.6526 24.2093 28.6526 23.1615 27.6048Z" fill="#00D998"/>
</g>
<defs>
<clipPath id="clip0_437_1031">
<rect width="40" height="40" fill="white" transform="translate(0 0.648193)"/>
</clipPath>
</defs>
</svg>
