<svg viewBox="0 0 49 57" fill="none" xmlns="http://www.w3.org/2000/svg">
<path fill-rule="evenodd" clip-rule="evenodd" d="M24.4999 6.45671L5.30143 17.5526V39.7443L24.4999 50.8403L43.6984 39.7443V17.5526L24.4999 6.45671ZM25.3063 0.864698C24.8072 0.576351 24.1926 0.576351 23.6936 0.864698L0.866847 14.0576C0.367903 14.3459 0.0605469 14.8789 0.0605469 15.4556V41.8413C0.0605469 42.418 0.367903 42.9509 0.866847 43.2394L23.6936 56.4322C24.1926 56.7205 24.8072 56.7205 25.3063 56.4322L48.133 43.2394C48.6318 42.9509 48.9391 42.418 48.9391 41.8413V15.4556C48.9391 14.8789 48.6318 14.3459 48.133 14.0576L25.3063 0.864698Z" fill="#FF9211"/>
<path d="M24.5001 14.4944L12.2552 21.5715V35.7252L24.4193 42.7556C24.4693 42.7845 24.5001 42.8376 24.5001 42.8954V45.3187C24.5001 45.4429 24.3656 45.5206 24.2581 45.4585L10.4411 37.4727C10.0669 37.2564 9.83643 36.8568 9.83643 36.4242V20.8723C9.83643 20.4399 10.0669 20.0402 10.4411 19.8238L23.8953 12.0479C24.2695 11.8317 24.7306 11.8317 25.1047 12.0479L38.9769 20.0365C39.0835 20.0979 39.0846 20.2516 38.9787 20.3144C38.16 20.8006 37.7408 21.0168 36.8249 21.5267C36.7753 21.5543 36.7147 21.5539 36.6654 21.5256L24.5001 14.4944Z" fill="#FF9211"/>
<path d="M26.5151 28.947C26.5151 28.8874 26.5479 28.8326 26.6005 28.8045L38.7756 22.3175C38.883 22.2602 39.0125 22.3383 39.0125 22.46V38.2411C39.0125 38.2985 38.9819 38.3517 38.9322 38.3807L26.7573 45.4575C26.6497 45.5199 26.5151 45.4422 26.5151 45.3179V28.947Z" fill="#FF9211"/>
</svg>
