<svg viewBox="0 0 40 41" fill="none" xmlns="http://www.w3.org/2000/svg">
<rect x="25" y="20.6482" width="10" height="14" fill="white"/>
<path d="M11.0476 1.64819V5.26724H3.80952C2.81016 5.26724 2 6.0774 2 7.07677V36.0291C2 37.0285 2.81016 37.8387 3.80952 37.8387H17.8417C15.855 35.3603 14.6667 32.2145 14.6667 28.791C14.6667 20.796 21.1478 14.3149 29.1429 14.3149C32.5663 14.3149 35.7122 15.5032 38.1905 17.4899V7.07677C38.1905 6.0774 37.3804 5.26724 36.381 5.26724H29.1429V1.64819H25.5238V5.26724H14.6667V1.64819H11.0476ZM40 28.791C40 34.7873 35.1391 39.6482 29.1429 39.6482C23.1466 39.6482 18.2857 34.7873 18.2857 28.791C18.2857 22.7948 23.1466 17.9339 29.1429 17.9339C35.1391 17.9339 40 22.7948 40 28.791ZM27.3333 21.553V29.5406L31.4824 33.6896L34.0414 31.1306L30.9524 28.0415V21.553H27.3333Z" fill="#00D998"/>
</svg>
