<svg viewBox="0 0 56 57" fill="none" xmlns="http://www.w3.org/2000/svg">
<g clip-path="url(#clip0_174_217)">
<path fill-rule="evenodd" clip-rule="evenodd" d="M56 28.6484C56 44.1124 43.4639 56.6484 28 56.6484C12.5361 56.6484 0 44.1124 0 28.6484C0 13.1845 12.5361 0.648438 28 0.648438C43.4639 0.648438 56 13.1845 56 28.6484ZM20.0656 39.7905H14.6316C13.4898 39.7905 12.9257 39.7905 12.5818 39.5703C12.2104 39.3295 11.9834 38.9306 11.9559 38.4904C11.9352 38.0846 12.2172 37.5893 12.7813 36.5988L19.49 24.7739L26.1985 12.9491C26.7695 11.9448 27.0584 11.4427 27.423 11.2569C27.8151 11.0575 28.2828 11.0575 28.6748 11.2569C29.0394 11.4427 29.3284 11.9448 29.8992 12.9491L32.6576 17.764L32.6717 17.7886C33.2883 18.8661 33.6009 19.4123 33.7374 19.9857C33.8887 20.6117 33.8887 21.2721 33.7374 21.898C33.5999 22.4758 33.2904 23.0262 32.6643 24.1198L25.6166 36.5782L25.5984 36.6101C24.9776 37.6964 24.6631 38.2468 24.2271 38.6624C23.7525 39.1164 23.1817 39.4465 22.5557 39.6323C21.9848 39.7905 21.3451 39.7905 20.0656 39.7905ZM33.7883 39.791H41.5749C42.7236 39.791 43.3013 39.791 43.6454 39.5641C44.0167 39.3233 44.2505 38.9174 44.2713 38.4773C44.2911 38.0848 44.0152 37.6087 43.4745 36.6758C43.4561 36.644 43.4373 36.6116 43.4183 36.5789L39.5181 29.9067L39.4738 29.8317C38.9257 28.9048 38.6489 28.4367 38.2937 28.2559C37.9017 28.0564 37.4409 28.0564 37.0488 28.2559C36.6911 28.4415 36.4022 28.93 35.8312 29.9135L31.945 36.5856L31.9315 36.6086C31.3627 37.5907 31.0784 38.0814 31.0989 38.4841C31.1264 38.9244 31.3533 39.3302 31.7248 39.571C32.0619 39.791 32.6396 39.791 33.7883 39.791Z" fill="#FF394A"/>
</g>
<defs>
<clipPath id="clip0_174_217">
<rect width="56" height="56" fill="white" transform="translate(0 0.648438)"/>
</clipPath>
</defs>
</svg>
