<svg viewBox="0 0 110 88" fill="none" xmlns="http://www.w3.org/2000/svg">
<path d="M21.26 10.0688C25.0901 10.0688 28.1976 13.1886 28.1976 17.0271V21.5875C28.1976 25.0304 25.4093 27.827 21.9766 27.827H20.5403C17.1076 27.827 14.3193 25.0304 14.3193 21.5875V17.0271C14.3193 13.1856 17.4298 10.0688 21.257 10.0688H21.26Z" fill="url(#paint0_linear_437_995)"/>
<path d="M42.6697 46.4518C42.6694 46.4518 42.6691 46.4516 42.6691 46.4512C42.6691 43.9449 42.6631 42.0485 42.6541 41.2875C42.618 37.7359 40.0705 35.8544 39.396 35.4617C38.7246 35.0721 29.6942 30.24 28.9866 30.1343C28.279 30.0286 27.7821 30.7021 27.7821 30.7021C27.7821 30.7021 21.9315 37.1288 21.4046 37.1288C20.8776 37.1288 14.9969 30.7021 14.9969 30.7021C14.9969 30.7021 14.5 30.0286 13.7924 30.1343C13.0848 30.24 4.05444 35.0721 3.38296 35.4617C2.71148 35.8513 0.161052 37.7359 0.124919 41.2875C0.116243 42.0184 0.113122 43.794 0.110221 46.1567C0.109999 46.3381 0.209959 46.5051 0.370057 46.5903L6.96231 50.0978C7.12222 50.1828 7.22215 50.3492 7.22215 50.5303V72.6564C7.22215 72.927 7.44153 73.1464 7.71215 73.1464H35.0699C35.3405 73.1464 35.5599 72.927 35.5599 72.6564V50.5303C35.5599 50.3492 35.6598 50.1828 35.8197 50.0978L42.67 46.453C42.6706 46.4527 42.6704 46.4518 42.6697 46.4518Z" fill="url(#paint1_linear_437_995)"/>
<path d="M0.829297 46.8349C0.503108 46.6613 0.109514 46.8958 0.109239 47.2653C0.102974 55.6991 0.120691 69.8758 0.124347 72.6629C0.124702 72.9333 0.343962 73.1467 0.614318 73.1467H6.73222C7.00284 73.1467 7.22222 72.9273 7.22222 72.6567V50.5306C7.22222 50.3495 7.12229 50.1832 6.96238 50.0981L0.829297 46.8349Z" fill="url(#paint2_linear_437_995)"/>
<path d="M35.5601 50.2363V73.1467H42.6573C42.6573 73.1467 42.6784 55.6634 42.6723 46.4521L35.5601 50.2363Z" fill="#F6B9B9"/>
<path d="M89.4593 27.8301H88.023C84.5903 27.8301 81.802 25.0335 81.802 21.5906V17.0302C81.802 13.1887 84.9125 10.072 88.7396 10.072C92.5698 10.072 95.6772 13.1917 95.6772 17.0302V21.5906C95.6772 25.0335 92.8889 27.8301 89.4563 27.8301H89.4593Z" fill="url(#paint3_linear_437_995)"/>
<path d="M67.5904 46.5901C67.4305 46.505 67.3306 46.3383 67.3306 46.1571C67.331 43.7968 67.3369 42.0184 67.3456 41.2875C67.3818 37.7359 69.9292 35.8544 70.6037 35.4617C71.2751 35.0721 80.3055 30.24 81.0131 30.1343C81.7207 30.0286 82.2176 30.7021 82.2176 30.7021C82.2176 30.7021 88.0682 37.1288 88.5952 37.1288C89.1221 37.1288 95.0028 30.7021 95.0028 30.7021C95.0028 30.7021 95.4997 30.0286 96.2073 30.1343C96.9149 30.24 105.945 35.0721 106.617 35.4617C107.288 35.8513 109.839 37.7359 109.875 41.2875C109.883 42.0184 109.887 43.794 109.889 46.1567C109.89 46.3381 109.79 46.5051 109.63 46.5903L103.037 50.0978C102.877 50.1828 102.778 50.3492 102.778 50.5303V72.6564C102.778 72.927 102.558 73.1464 102.288 73.1464H88.6132H88.6072H74.9328C74.6622 73.1464 74.4428 72.927 74.4428 72.6564V50.5303C74.4428 50.3492 74.3429 50.1828 74.183 50.0978L67.5904 46.5901Z" fill="url(#paint4_linear_437_995)"/>
<path d="M109.17 46.8349C109.496 46.6613 109.89 46.8958 109.89 47.2653C109.897 55.6991 109.879 69.8758 109.875 72.6629C109.875 72.9333 109.656 73.1467 109.385 73.1467H103.267C102.997 73.1467 102.777 72.9273 102.777 72.6567V50.5306C102.777 50.3495 102.877 50.1832 103.037 50.0981L109.17 46.8349Z" fill="url(#paint5_linear_437_995)"/>
<path d="M74.4395 50.2363V73.1467H67.3423C67.3423 73.1467 67.3212 55.6634 67.3273 46.4521L74.4395 50.2363Z" fill="#F6B9B9"/>
<path d="M54.4875 0.648438C59.7711 0.648438 64.058 4.94813 64.058 10.2474V16.5364C64.058 21.2863 60.2133 25.1424 55.4776 25.1424H53.4975C48.7617 25.1424 44.917 21.2863 44.917 16.5364V10.2474C44.917 4.94813 49.2072 0.648438 54.4875 0.648438Z" fill="url(#paint6_linear_437_995)"/>
<path d="M84.0182 50.8313C84.0196 50.8313 84.0208 50.8301 84.0208 50.8286C84.0208 47.371 84.0109 44.7572 84.001 43.7115C83.9515 38.8127 80.4368 36.2177 79.5062 35.6781C78.5788 35.1386 66.124 28.4789 65.1471 28.3299C64.1702 28.1843 63.4871 29.1144 63.4871 29.1144C63.4871 29.1144 55.4149 37.9819 54.6888 37.9819C53.9628 37.9819 45.8477 29.1144 45.8477 29.1144C45.8477 29.1144 45.1645 28.1843 44.1877 28.3299C43.2108 28.4756 30.756 35.1386 29.8286 35.6781C28.9013 36.2177 25.3833 38.8127 25.3338 43.7115C25.3242 44.7301 25.3177 47.2241 25.3143 50.5304C25.3141 50.7155 25.4161 50.8856 25.5795 50.9725L34.8569 55.9068C35.0201 55.9936 35.1221 56.1634 35.1221 56.3482V87.1484C35.1221 87.4246 35.3459 87.6484 35.6221 87.6484H73.7094C73.9855 87.6484 74.2094 87.4246 74.2094 87.1484V56.3482C74.2094 56.1634 74.3114 55.9936 74.4746 55.9068L84.0169 50.8316C84.0173 50.8314 84.0177 50.8313 84.0182 50.8313Z" fill="url(#paint7_linear_437_995)"/>
<path d="M26.0516 51.222C25.7187 51.045 25.3171 51.2791 25.3169 51.6562C25.3095 63.4439 25.3327 83.773 25.3367 87.1629C25.337 87.4388 25.5607 87.6487 25.8366 87.6487H34.6256C34.9017 87.6487 35.1256 87.4248 35.1256 87.1487V56.3485C35.1256 56.1636 35.0236 55.9938 34.8604 55.907L26.0516 51.222Z" fill="url(#paint8_linear_437_995)"/>
<path d="M74.4776 55.907C74.3144 55.9938 74.2124 56.1636 74.2124 56.3485V87.1487C74.2124 87.4248 74.4363 87.6487 74.7124 87.6487H83.5013C83.7772 87.6487 84.001 87.4388 84.0013 87.1629C84.0053 83.773 84.0285 63.4439 84.0211 51.6562C84.0209 51.2791 83.6193 51.045 83.2864 51.222L74.4776 55.907Z" fill="url(#paint9_linear_437_995)"/>
<defs>
<linearGradient id="paint0_linear_437_995" x1="19.2759" y1="26.6233" x2="30.3629" y2="15.5191" gradientUnits="userSpaceOnUse">
<stop stop-color="#00D998"/>
<stop offset="1" stop-color="#CCF7EA"/>
</linearGradient>
<linearGradient id="paint1_linear_437_995" x1="12.0239" y1="65.7976" x2="37.3332" y2="15.5321" gradientUnits="userSpaceOnUse">
<stop stop-color="#00C68C"/>
<stop offset="0.780376" stop-color="#CCF7EA"/>
</linearGradient>
<linearGradient id="paint2_linear_437_995" x1="8.50049" y1="62.9066" x2="1.91308" y2="62.9066" gradientUnits="userSpaceOnUse">
<stop stop-color="#66E8C1"/>
<stop offset="1" stop-color="#E6FBF5"/>
</linearGradient>
<linearGradient id="paint3_linear_437_995" x1="87.6159" y1="24.0462" x2="96.6782" y2="13.5488" gradientUnits="userSpaceOnUse">
<stop stop-color="#00D998"/>
<stop offset="1" stop-color="#CCF7EA"/>
</linearGradient>
<linearGradient id="paint4_linear_437_995" x1="96.9399" y1="59.6122" x2="68.9587" y2="18.1619" gradientUnits="userSpaceOnUse">
<stop stop-color="#00C68C"/>
<stop offset="0.669657" stop-color="#CCF7EA"/>
</linearGradient>
<linearGradient id="paint5_linear_437_995" x1="107.5" y1="62.9066" x2="103" y2="62.9066" gradientUnits="userSpaceOnUse">
<stop stop-color="#E6FBF5"/>
<stop offset="1" stop-color="#66E8C1"/>
</linearGradient>
<linearGradient id="paint6_linear_437_995" x1="53.9198" y1="18.7264" x2="66.4006" y2="6.33767" gradientUnits="userSpaceOnUse">
<stop stop-color="#00D998"/>
<stop offset="0.780376" stop-color="#CCF7EA"/>
</linearGradient>
<linearGradient id="paint7_linear_437_995" x1="53.9198" y1="88.2136" x2="61.1696" y2="11.5026" gradientUnits="userSpaceOnUse">
<stop stop-color="#00986A"/>
<stop offset="0.468801" stop-color="#00C68C"/>
<stop offset="0.780376" stop-color="#CCF7EA"/>
</linearGradient>
<linearGradient id="paint8_linear_437_995" x1="36.8882" y1="73.5255" x2="27.8046" y2="73.5255" gradientUnits="userSpaceOnUse">
<stop stop-color="#66E8C1"/>
<stop offset="0.919842" stop-color="#E6FBF5"/>
</linearGradient>
<linearGradient id="paint9_linear_437_995" x1="81.1704" y1="73.5255" x2="71.519" y2="73.5255" gradientUnits="userSpaceOnUse">
<stop stop-color="#E6FBF5"/>
<stop offset="1" stop-color="#66E8C1"/>
</linearGradient>
</defs>
</svg>
