<svg viewBox="0 0 56 56" fill="none" xmlns="http://www.w3.org/2000/svg">
<g clip-path="url(#clip0_1106_2251)">
<path d="M2.86229 15.9629C1.68843 18.433 0.868772 21.1042 0.467285 23.91H23.8323L28.9339 15.9629H2.86229Z" fill="#0F0E0B"/>
<path d="M55.5336 23.9108C55.1311 21.1042 54.3124 18.4337 53.1385 15.9637H39.1339L34.0341 8.01551H47.4649C42.4486 3.09939 35.5789 0.0673828 27.9998 0.0673828C20.4207 0.0673828 13.5518 3.09939 8.53467 8.01458H34.0341L28.9325 15.9627L34.0341 23.9099H55.5326L55.5336 23.9108Z" fill="#0F0E0B"/>
<path d="M13.6303 39.8066L8.52881 47.7538C13.546 52.669 20.4027 55.7465 27.9817 55.7465C35.5609 55.7465 42.5336 52.8257 47.5693 47.7538H18.7319L13.6303 39.8066Z" fill="#0F0E0B"/>
<path d="M18.7308 31.8579H0.467285C0.869698 34.6655 1.68843 37.3359 2.86229 39.806H13.631L18.7308 31.8579Z" fill="#0F0E0B"/>
<path d="M23.832 39.8065H53.1386C54.3125 37.3364 55.1321 34.6651 55.5337 31.8593H28.9336L23.832 23.9111L18.7305 31.8584" fill="#0F0E0B"/>
</g>
<defs>
<clipPath id="clip0_1106_2251">
<rect width="56" height="56" fill="white"/>
</clipPath>
</defs>
</svg>
