<svg viewBox="0 0 63 57" fill="none" xmlns="http://www.w3.org/2000/svg">
<mask id="mask0_174_210" style="mask-type:luminance" maskUnits="userSpaceOnUse" x="3" y="3" width="56" height="51">
<path d="M58.8012 3.64844H3.3335V53.6484H58.8012V3.64844Z" fill="white"/>
</mask>
<g mask="url(#mask0_174_210)">
<path d="M58.5155 43.0698L49.359 52.9674C49.1599 53.1825 48.919 53.3538 48.6516 53.471C48.3839 53.5882 48.0952 53.6486 47.8034 53.6484H4.39652C4.1894 53.6484 3.98679 53.5874 3.81359 53.473C3.6404 53.3585 3.50415 53.1955 3.42159 53.0041C3.33904 52.8126 3.31377 52.6011 3.34889 52.3953C3.38402 52.1895 3.478 51.9987 3.6193 51.846L12.7828 41.9485C12.9813 41.7339 13.2214 41.5629 13.4882 41.4458C13.755 41.3286 14.0427 41.268 14.3337 41.2674H57.7382C57.9453 41.2674 58.1479 41.3284 58.3211 41.4429C58.4944 41.5574 58.6305 41.7204 58.7131 41.9119C58.7957 42.1033 58.8209 42.3149 58.7858 42.5206C58.7507 42.7264 58.6568 42.9172 58.5155 43.0698ZM49.359 23.139C49.1599 22.9239 48.919 22.7525 48.6516 22.6354C48.3839 22.5182 48.0952 22.4578 47.8034 22.4579H4.39652C4.1894 22.4579 3.98679 22.5189 3.81359 22.6334C3.6404 22.7479 3.50415 22.9109 3.42159 23.1022C3.33904 23.2938 3.31377 23.5053 3.34889 23.7111C3.38402 23.9169 3.478 24.1077 3.6193 24.2603L12.7828 34.1579C12.9813 34.3724 13.2214 34.5434 13.4882 34.6606C13.755 34.7778 14.0427 34.8384 14.3337 34.8389H57.7382C57.9453 34.8389 58.1479 34.778 58.3211 34.6635C58.4944 34.549 58.6305 34.386 58.7131 34.1945C58.7957 34.0031 58.8209 33.7914 58.7858 33.5858C58.7507 33.38 58.6568 33.1892 58.5155 33.0365L49.359 23.139ZM4.39652 16.0294H47.8034C48.0952 16.0295 48.3839 15.9692 48.6516 15.852C48.919 15.7349 49.1599 15.5634 49.359 15.3484L58.5155 5.45081C58.6568 5.29819 58.7507 5.10729 58.7858 4.90156C58.8209 4.69584 58.7957 4.48425 58.7131 4.2928C58.6305 4.10135 58.4944 3.93838 58.3211 3.8239C58.1479 3.70943 57.9453 3.64844 57.7382 3.64844H14.3337C14.0427 3.64894 13.755 3.70963 13.4882 3.82676C13.2214 3.94389 12.9813 4.11496 12.7828 4.32939L3.62167 14.227C3.4805 14.3795 3.38656 14.5702 3.35135 14.7757C3.31615 14.9812 3.34122 15.1926 3.42348 15.3839C3.50575 15.5753 3.64163 15.7383 3.81448 15.8529C3.98732 15.9676 4.1896 16.0289 4.39652 16.0294Z" fill="url(#paint0_linear_174_210)"/>
</g>
<defs>
<linearGradient id="paint0_linear_174_210" x1="8.01563" y1="54.84" x2="53.9357" y2="3.47999" gradientUnits="userSpaceOnUse">
<stop offset="0.08" stop-color="#9945FF"/>
<stop offset="0.3" stop-color="#8752F3"/>
<stop offset="0.5" stop-color="#5497D5"/>
<stop offset="0.6" stop-color="#43B4CA"/>
<stop offset="0.72" stop-color="#28E0B9"/>
<stop offset="0.97" stop-color="#19FB9B"/>
</linearGradient>
</defs>
</svg>
