<svg viewBox="0 0 57 57" fill="none" xmlns="http://www.w3.org/2000/svg">
<rect x="0.666992" y="0.648438" width="56" height="56" rx="28" fill="#0C2B16"/>
<path d="M27.4708 19.0888C27.4708 17.7339 28.5744 16.6302 29.9293 16.6302H34.3285V10.6484H29.9293C25.2684 10.6484 21.489 14.4279 21.489 19.0888C21.489 20.305 21.7479 21.461 22.2109 22.5046C18.5911 24.0347 16.1874 27.2858 15.6274 31.4C14.9738 35.9171 16.7838 40.7899 20.7253 43.1438C24.2431 45.3592 29.7437 45.2127 32.7149 42.1394V44.1795H38.8378V21.5474H29.9318C28.5769 21.5474 27.4708 20.4436 27.4708 19.0888ZM32.8508 27.5317V33.2126C32.8508 36.3512 30.3058 38.8937 27.17 38.8937C24.0338 38.8937 21.489 36.3487 21.489 33.2126C21.489 30.0767 24.0338 27.5317 27.17 27.5317H32.8508Z" fill="#BFF009"/>
</svg>
