<svg width="108" height="94" viewBox="0 0 108 94" fill="none" xmlns="http://www.w3.org/2000/svg">
<path d="M54 89C77.196 89 96 70.196 96 47C96 23.804 77.196 5 54 5C30.804 5 12 23.804 12 47C12 70.196 30.804 89 54 89Z" fill="url(#paint0_linear_418_1048)"/>
<path d="M54 89C77.196 89 96 70.196 96 47C96 23.804 77.196 5 54 5C30.804 5 12 23.804 12 47C12 70.196 30.804 89 54 89Z" fill="url(#paint1_radial_418_1048)" fill-opacity="0.2"/>
<path d="M54 89C77.196 89 96 70.196 96 47C96 23.804 77.196 5 54 5C30.804 5 12 23.804 12 47C12 70.196 30.804 89 54 89Z" fill="url(#paint2_linear_418_1048)" fill-opacity="0.4"/>
<path d="M62.2574 60.5038C59.3579 60.5038 57.0074 58.1533 57.0074 55.2538C57.0074 52.3543 59.3579 50.0038 62.2574 50.0038C65.1569 50.0038 67.5074 52.3543 67.5074 55.2538C67.5074 58.1533 65.1569 60.5038 62.2574 60.5038ZM62.2574 57.5038C63.5 57.5038 64.5074 56.4966 64.5074 55.2538C64.5074 54.0112 63.5 53.0038 62.2574 53.0038C61.0148 53.0038 60.0074 54.0112 60.0074 55.2538C60.0074 56.4966 61.0148 57.5038 62.2574 57.5038ZM45.7573 44.0038C42.8578 44.0038 40.5073 41.6534 40.5073 38.7539C40.5073 35.8544 42.8578 33.5039 45.7573 33.5039C48.6568 33.5039 51.0074 35.8544 51.0074 38.7539C51.0074 41.6534 48.6568 44.0038 45.7573 44.0038ZM45.7573 41.0039C47 41.0039 48.0073 39.9965 48.0073 38.7539C48.0073 37.5113 47 36.5039 45.7573 36.5039C44.5147 36.5039 43.5073 37.5113 43.5073 38.7539C43.5073 39.9965 44.5147 41.0039 45.7573 41.0039ZM64.614 34.276L66.7353 36.3973L43.4007 59.7318L41.2794 57.6105L64.614 34.276Z" fill="#00986A"/>
<path d="M9.73779 92.8136H63.6247C77.5305 92.8136 100.713 77.2641 100.713 47.8311" stroke="url(#paint3_linear_418_1048)" stroke-width="2" stroke-miterlimit="10"/>
<path d="M106.869 53.9622L100.713 47.8311L94.5571 53.9622" stroke="#00C68C" stroke-width="2" stroke-miterlimit="10"/>
<path d="M98.2619 1.18652H44.375C30.4692 1.18652 7.28662 16.736 7.28662 46.169" stroke="url(#paint4_linear_418_1048)" stroke-width="2" stroke-miterlimit="10"/>
<path d="M1.13086 40.0342L7.28669 46.169L13.4463 40.0342" stroke="#00C68C" stroke-width="2" stroke-miterlimit="10"/>
<defs>
<linearGradient id="paint0_linear_418_1048" x1="59" y1="59" x2="58.5" y2="113.5" gradientUnits="userSpaceOnUse">
<stop stop-color="#E6FBF5"/>
<stop offset="0.362007" stop-color="#82E5C8"/>
<stop offset="0.807724" stop-color="#00986A"/>
</linearGradient>
<radialGradient id="paint1_radial_418_1048" cx="0" cy="0" r="1" gradientUnits="userSpaceOnUse" gradientTransform="translate(79 47) rotate(-165.964) scale(28.8617 0.553213)">
<stop stop-color="#66E8C1"/>
<stop offset="1" stop-color="#CCF7EA"/>
</radialGradient>
<linearGradient id="paint2_linear_418_1048" x1="55.5" y1="15.5" x2="55.5" y2="-11.5" gradientUnits="userSpaceOnUse">
<stop stop-color="#E6FBF5"/>
<stop offset="0.362007" stop-color="#82E5C8"/>
<stop offset="0.807724" stop-color="#00986A"/>
</linearGradient>
<linearGradient id="paint3_linear_418_1048" x1="4.5" y1="48" x2="83" y2="48" gradientUnits="userSpaceOnUse">
<stop stop-color="white"/>
<stop offset="0.451895" stop-color="#E6FBF5"/>
<stop offset="1" stop-color="#00D998"/>
</linearGradient>
<linearGradient id="paint4_linear_418_1048" x1="30.5" y1="0.999997" x2="104" y2="0.999996" gradientUnits="userSpaceOnUse">
<stop stop-color="#00D998"/>
<stop offset="0.548105" stop-color="#E6FBF5"/>
<stop offset="1" stop-color="white"/>
</linearGradient>
</defs>
</svg>
