<svg viewBox="0 0 120 101" fill="none" xmlns="http://www.w3.org/2000/svg">
<g clip-path="url(#clip0_747_1167)">
<path d="M8.49782 65.2194V69.2071H10.5806V64.2897H13.2801V78.5554H10.5806V71.6622H8.49782V75.679H0V65.2267H2.69231V68.3573H5.79826V65.2267H8.49782V65.2194ZM5.79826 73.3328V70.6598H2.69231V73.3328H5.79826ZM6.32076 82.4268H17.7141V84.8747H3.44702V77.9597H6.32076V82.4268ZM17.3948 79.0493H14.6734V64.0137H17.3948V79.0493Z" fill="#858583"/>
<path d="M20.7038 66.9414H25.1451V64.1522H28.0478V66.9414H32.2858V69.3893H28.0478V71.0671C28.0478 71.503 28.0768 71.9025 28.1349 72.2656C28.1929 72.6288 28.2873 72.9702 28.4179 73.2971C28.5485 73.6239 28.7154 73.9363 28.9259 74.2413C29.1363 74.5464 29.3976 74.8587 29.6951 75.1929C29.8911 75.418 30.1233 75.665 30.3845 75.9265C30.6458 76.188 30.9215 76.464 31.2118 76.74C31.5021 77.0233 31.7924 77.2993 32.0826 77.5753C32.3802 77.8586 32.6705 78.1201 32.9535 78.3816L31.1175 80.2846C30.6313 79.827 30.1523 79.3694 29.6661 78.89C29.1799 78.4106 28.73 77.9603 28.3091 77.5172C27.8519 77.0451 27.4818 76.6456 27.1842 76.3042C26.8867 75.9628 26.7053 75.7013 26.6327 75.5197H26.5892C26.4803 75.7304 26.2626 76.0354 25.9361 76.4277C25.6022 76.8199 25.2466 77.2121 24.8693 77.6044C24.4484 78.0402 24.0057 78.4905 23.5558 78.9554C23.1059 79.4203 22.5616 79.936 21.923 80.5098L20.0435 78.585C21.2844 77.4809 22.4019 76.3841 23.3961 75.2946C23.73 74.9168 24.0057 74.5682 24.2307 74.2486C24.4556 73.929 24.6371 73.6094 24.775 73.2825C24.9128 72.9557 25.0072 72.6216 25.058 72.2656C25.1088 71.9097 25.1378 71.503 25.1378 71.0526V69.3747H20.6966V66.9269L20.7038 66.9414ZM31.2626 71.5465H34.9564V64.0215H37.8301V85.1076H34.9564V74.0452H31.2626V71.5538V71.5465Z" fill="#858583"/>
<path d="M40.6895 75.672H43.4761C44.3397 75.672 45.1452 75.672 45.8999 75.6502V74.6042C44.7678 74.4372 43.897 74.103 43.2947 73.6091C42.6924 73.1079 42.3876 72.505 42.3876 71.7932V71.2049C42.3876 70.3768 42.8085 69.6868 43.6575 69.1275C44.4993 68.5755 45.7185 68.2994 47.3077 68.2994C48.897 68.2994 50.1089 68.5755 50.958 69.1275C51.7998 69.6795 52.2279 70.3696 52.2279 71.2049V71.7932C52.2279 72.4905 51.9304 73.0861 51.3353 73.5946C50.7402 74.103 49.8694 74.4372 48.7446 74.6042V75.5775C49.7896 75.5485 50.704 75.5122 51.495 75.4613C52.286 75.4177 53.0262 75.3524 53.7011 75.2797L53.9043 77.5678C53.2874 77.6404 52.569 77.7058 51.7635 77.7566C50.958 77.8075 50.0218 77.851 48.9551 77.8801C47.8883 77.9092 46.6764 77.9309 45.3194 77.9455C43.9623 77.96 42.4239 77.9673 40.6967 77.9673V75.6574L40.6895 75.672ZM45.8709 65.5102V63.6943H48.7228V65.5102H52.9826V67.82H41.495V65.5102H45.8709ZM43.4035 78.9842H57.5617V85.3761H54.6372V81.3158H43.4035V78.9842ZM47.3005 70.4349C46.5748 70.4349 46.0233 70.5366 45.6459 70.7327C45.2686 70.9289 45.0799 71.1613 45.0799 71.4373V71.5753C45.0799 71.8441 45.2686 72.0838 45.6459 72.2799C46.0233 72.476 46.5748 72.5777 47.3005 72.5777C48.0262 72.5777 48.5777 72.476 48.9551 72.2799C49.3324 72.0838 49.5211 71.8513 49.5211 71.5753V71.4373C49.5211 71.1686 49.3324 70.9289 48.9551 70.7327C48.5777 70.5366 48.0262 70.4349 47.3005 70.4349ZM57.5617 70.2969H60.3484V72.7883H57.5617V78.0254H54.7315V64.0139H57.5617V70.2969Z" fill="#858583"/>
<path d="M67.3729 75.8097C66.5311 75.8097 65.7691 75.679 65.0942 75.4102C64.4194 75.1487 63.8533 74.7856 63.3816 74.3352C62.9099 73.8776 62.5543 73.3619 62.3076 72.7735C62.0609 72.1852 61.9375 71.5751 61.9375 70.9359V69.6647C61.9375 69.0328 62.0609 68.4154 62.3076 67.827C62.5543 67.2387 62.9172 66.7157 63.3816 66.2654C63.8461 65.815 64.4194 65.4519 65.0942 65.1904C65.7619 64.9289 66.5239 64.7909 67.3729 64.7909C68.222 64.7909 68.9767 64.9216 69.6516 65.1904C70.3265 65.4519 70.8925 65.815 71.3642 66.2654C71.8359 66.7157 72.1915 67.2387 72.4382 67.827C72.685 68.4154 72.8156 69.0255 72.8156 69.6647V70.9359C72.8156 71.5678 72.6922 72.1852 72.4382 72.7735C72.1915 73.3619 71.8286 73.8849 71.3642 74.3352C70.8925 74.7856 70.3265 75.1487 69.6516 75.4102C68.9767 75.6717 68.222 75.8097 67.3729 75.8097ZM67.3729 67.2605C66.952 67.2605 66.5674 67.3331 66.2263 67.4784C65.8853 67.6237 65.6022 67.8125 65.37 68.0595C65.1378 68.2992 64.9564 68.5825 64.8257 68.8948C64.6951 69.2144 64.6371 69.5413 64.6371 69.8681V70.7252C64.6371 71.0739 64.7024 71.4007 64.8257 71.7131C64.9491 72.0254 65.1378 72.3014 65.37 72.5411C65.6022 72.7808 65.8925 72.9769 66.2263 73.1222C66.5674 73.2675 66.9448 73.3401 67.3729 73.3401C67.8011 73.3401 68.1784 73.2675 68.5195 73.1222C68.8606 72.9769 69.1436 72.7881 69.3831 72.5411C69.6153 72.3014 69.7967 72.0254 69.9273 71.7131C70.058 71.4007 70.116 71.0739 70.116 70.7252V69.8681C70.116 69.534 70.0507 69.2071 69.9273 68.8948C69.7967 68.5752 69.6153 68.2992 69.3831 68.0595C69.1509 67.8198 68.8606 67.6237 68.5195 67.4784C68.1784 67.3331 67.8011 67.2605 67.3729 67.2605ZM68.2583 82.4268H79.1291V84.8747H65.3773V77.7999H68.251V82.4268H68.2583ZM78.788 79.0275H75.936V64.0137H78.788V79.0275Z" fill="#858583"/>
<path d="M82.8229 78.5051C83.9549 77.8223 84.9201 77.2194 85.7184 76.6892C86.5166 76.1589 87.1915 75.6723 87.7213 75.2292C88.2583 74.7861 88.6792 74.3576 88.9912 73.9581C89.3033 73.5586 89.5355 73.1518 89.6951 72.745C89.8548 72.3383 89.9564 71.9097 89.9999 71.4521C90.0435 70.9945 90.0652 70.4933 90.0652 69.934V68.3724H83.2002V65.9028H92.939V70.072C92.939 70.8275 92.9027 71.5175 92.8229 72.1349C92.7503 72.7523 92.5979 73.3334 92.3802 73.8709C92.1625 74.4084 91.8504 74.9241 91.4513 75.4253C91.0522 75.9265 90.5369 76.4422 89.8983 76.9797C89.267 77.5172 88.4905 78.091 87.5761 78.7012C86.6618 79.3113 85.5805 80.0013 84.325 80.7785L82.8083 78.5123L82.8229 78.5051ZM99.6298 85.1076H96.7561V64.0215H99.6298V85.1076Z" fill="#858583"/>
<path d="M108.331 74.5827C107.438 74.5827 106.662 74.452 105.987 74.1978C105.312 73.9435 104.753 73.5949 104.296 73.1663C103.839 72.7378 103.505 72.2438 103.273 71.6918C103.048 71.1398 102.932 70.5587 102.932 69.9558V69.3239C102.932 68.721 103.048 68.1399 103.273 67.5879C103.498 67.0359 103.839 66.5419 104.296 66.1134C104.746 65.6848 105.312 65.3362 105.987 65.082C106.662 64.8277 107.438 64.697 108.331 64.697C109.1 64.697 109.797 64.7987 110.406 64.9948C111.016 65.1909 111.546 65.4597 111.988 65.8011C112.438 66.1424 112.794 66.5347 113.063 66.9923C113.331 67.4426 113.527 67.922 113.629 68.4232H117.141V64.0215H119.993V74.8805H117.141V70.7984H113.65C113.556 71.3141 113.382 71.8008 113.106 72.2584C112.838 72.7232 112.475 73.1227 112.032 73.4569C111.582 73.7983 111.052 74.067 110.436 74.2777C109.819 74.481 109.115 74.5827 108.331 74.5827ZM108.331 67.123C107.881 67.123 107.482 67.1884 107.141 67.3119C106.8 67.4426 106.524 67.617 106.306 67.8349C106.089 68.0528 105.922 68.2997 105.82 68.5685C105.711 68.8445 105.66 69.1132 105.66 69.382V69.8832C105.66 70.1519 105.711 70.428 105.82 70.6967C105.929 70.9727 106.089 71.2124 106.306 71.4376C106.524 71.6555 106.807 71.8298 107.141 71.9606C107.482 72.0913 107.881 72.1567 108.331 72.1567C108.781 72.1567 109.18 72.0913 109.521 71.9606C109.862 71.8298 110.138 71.6628 110.356 71.4376C110.573 71.2197 110.733 70.9727 110.842 70.6967C110.951 70.428 111.002 70.1519 111.002 69.8832V69.382C111.002 69.1132 110.951 68.8372 110.842 68.5685C110.733 68.2997 110.573 68.0528 110.356 67.8349C110.138 67.617 109.855 67.4426 109.521 67.3119C109.18 67.1811 108.781 67.123 108.331 67.123ZM120 75.8321V85.1294H106.589V75.8321H109.42V78.2145H117.17V75.8321H120ZM117.17 82.7688V80.5679H109.42V82.7688H117.17Z" fill="#858583"/>
<path d="M15.5151 91.9199H16.8431L18.6719 97.3967L20.5732 91.9199H21.8359L19.2016 98.9147H18.0841L15.5151 91.9199Z" fill="#858583"/>
<path d="M26.5964 98.4287C26.3351 98.603 26.0376 98.741 25.682 98.8427C25.3337 98.9444 24.9055 98.9952 24.4048 98.9952C24.0928 98.9952 23.7952 98.9516 23.5049 98.8717C23.2147 98.7918 22.9534 98.6538 22.7212 98.465C22.489 98.2761 22.3076 98.0219 22.1697 97.695C22.0318 97.3755 21.9592 96.976 21.9592 96.4966V95.9445C21.9592 95.5087 22.0245 95.1383 22.1479 94.8259C22.2713 94.5136 22.4454 94.2521 22.6631 94.0487C22.8809 93.8454 23.1421 93.6928 23.4324 93.5984C23.7227 93.504 24.042 93.4531 24.3903 93.4531C24.7386 93.4531 25.0362 93.504 25.3264 93.5984C25.6167 93.6928 25.8634 93.8454 26.0666 94.0415C26.2698 94.2376 26.4367 94.4845 26.5528 94.7751C26.669 95.0729 26.727 95.4143 26.727 95.7993V96.6854H23.1494C23.1494 97.114 23.2655 97.4336 23.4904 97.6515C23.7154 97.8694 24.042 97.9783 24.4701 97.9783C24.7894 97.9783 25.0652 97.942 25.3119 97.8766C25.5586 97.8113 25.8126 97.695 26.0884 97.5425L26.5891 98.4287H26.5964ZM25.5586 95.7702V95.5378C25.5586 95.3925 25.5369 95.2618 25.4933 95.131C25.4498 95.0003 25.3845 94.8913 25.2829 94.7896C25.1813 94.6879 25.0652 94.6153 24.9128 94.5572C24.7604 94.4991 24.5862 94.47 24.3685 94.47C23.9621 94.47 23.6573 94.579 23.4541 94.7896C23.251 95.0003 23.1494 95.2618 23.1494 95.5668V95.7702H25.5514H25.5586Z" fill="#858583"/>
<path d="M30.6385 93.46C30.878 93.46 31.1102 93.4963 31.3279 93.5689C31.5529 93.6416 31.7489 93.7578 31.923 93.9103C32.0972 94.0628 32.2351 94.2735 32.3367 94.5277C32.4383 94.7819 32.4963 95.087 32.4963 95.4429V98.9294H31.2772V95.7044C31.2772 94.9199 30.9361 94.5277 30.2612 94.5277C30.1668 94.5277 30.0507 94.5422 29.9201 94.5713C29.7895 94.6003 29.6589 94.6585 29.5428 94.7456C29.4266 94.8328 29.325 94.9563 29.238 95.1161C29.1509 95.2759 29.1073 95.4938 29.1073 95.7553V98.9222H27.8882V93.5762H29.042V94.1863H29.0638C29.2525 93.9176 29.4847 93.7287 29.7605 93.6198C30.0362 93.5108 30.3265 93.46 30.6458 93.46H30.6385Z" fill="#858583"/>
<path d="M34.2452 94.5861H33.3889V93.5765H34.2452V92.2109H35.4644V93.5765H36.8142V94.5861H35.4644V97.3971C35.4644 97.6223 35.5152 97.7748 35.6095 97.8402C35.7039 97.9128 35.8272 97.9492 35.9941 97.9492C36.1175 97.9492 36.2336 97.9346 36.357 97.9128C36.4804 97.8911 36.611 97.8475 36.7489 97.7894L36.9448 98.7699C36.8359 98.8208 36.6835 98.8716 36.4949 98.9225C36.3062 98.9733 36.0885 98.9951 35.849 98.9951C35.5442 98.9951 35.2902 98.9588 35.0798 98.8862C34.8766 98.8135 34.7097 98.7118 34.5863 98.5738C34.4629 98.4358 34.3759 98.2688 34.3251 98.0726C34.2743 97.8765 34.2452 97.6514 34.2452 97.3971V94.5716V94.5861Z" fill="#858583"/>
<path d="M39.717 99.0092C39.1582 99.0092 38.7083 98.8421 38.3672 98.508C38.0334 98.1739 37.8665 97.68 37.8665 97.0263V93.5688H39.0856V96.7648C39.0856 96.9972 39.1146 97.1933 39.1654 97.3386C39.2162 97.4911 39.2888 97.6073 39.3759 97.6945C39.463 97.7817 39.5718 97.847 39.6952 97.8761C39.8186 97.9051 39.9492 97.9269 40.0943 97.9269C40.2177 97.9269 40.3411 97.9051 40.4789 97.8688C40.6096 97.8325 40.7329 97.7599 40.8418 97.6654C40.9506 97.571 41.045 97.4403 41.1175 97.2805C41.1901 97.1207 41.2264 96.9173 41.2264 96.6776V93.5615H42.4456V98.9075H41.2845V98.2683H41.2627C41.1829 98.3991 41.0885 98.508 40.9724 98.5952C40.8563 98.6896 40.7257 98.7622 40.5878 98.8204C40.4499 98.8785 40.3048 98.922 40.1524 98.9511C40 98.9801 39.8548 98.9947 39.7097 98.9947L39.717 99.0092Z" fill="#858583"/>
<path d="M46.9957 94.673C46.9013 94.6367 46.807 94.6076 46.7054 94.5858C46.6038 94.564 46.4732 94.5568 46.3135 94.5568C46.1466 94.5568 45.987 94.5858 45.8418 94.6439C45.6967 94.702 45.5733 94.7819 45.4645 94.8909C45.3556 94.9998 45.2758 95.1233 45.2105 95.2686C45.1452 95.4139 45.1161 95.5737 45.1161 95.748V98.9222H43.897V93.5762H45.0726V94.3534H45.0944C45.2395 94.0846 45.4282 93.8667 45.6604 93.6997C45.8999 93.5399 46.2047 93.46 46.5893 93.46C46.7272 93.46 46.8578 93.4672 46.9957 93.489C47.1335 93.5108 47.2497 93.5326 47.344 93.5689L46.9957 94.673Z" fill="#858583"/>
<path d="M52.4963 98.4287C52.235 98.603 51.9375 98.741 51.5819 98.8427C51.2336 98.9444 50.8054 98.9952 50.3047 98.9952C49.9927 98.9952 49.6951 98.9516 49.4049 98.8717C49.1146 98.7918 48.8533 98.6538 48.6211 98.465C48.3889 98.2761 48.2075 98.0219 48.0696 97.695C47.9317 97.3755 47.8591 96.976 47.8591 96.4966V95.9445C47.8591 95.5087 47.9244 95.1383 48.0478 94.8259C48.1712 94.5136 48.3453 94.2521 48.5631 94.0487C48.7808 93.8454 49.042 93.6928 49.3323 93.5984C49.6298 93.504 49.9419 93.4531 50.2902 93.4531C50.6385 93.4531 50.9361 93.504 51.2263 93.5984C51.5166 93.6928 51.7633 93.8454 51.9665 94.0415C52.1697 94.2376 52.3366 94.4845 52.4527 94.7751C52.5689 95.0729 52.6269 95.4143 52.6269 95.7993V96.6854H49.0493C49.0493 97.114 49.1654 97.4336 49.3903 97.6515C49.6153 97.8694 49.9419 97.9783 50.37 97.9783C50.6893 97.9783 50.9651 97.942 51.2118 97.8766C51.4586 97.8113 51.7125 97.695 51.9883 97.5425L52.489 98.4287H52.4963ZM51.4586 95.7702V95.5378C51.4586 95.3925 51.4368 95.2618 51.3932 95.131C51.3497 95.0003 51.2771 94.8913 51.1828 94.7896C51.0884 94.6879 50.9651 94.6153 50.8127 94.5572C50.6603 94.4991 50.4861 94.47 50.2684 94.47C49.862 94.47 49.5572 94.579 49.3541 94.7896C49.1509 95.0003 49.0493 95.2618 49.0493 95.5668V95.7702H51.4513H51.4586Z" fill="#858583"/>
<path d="M60.7618 91.9199V92.9513H57.4962V94.8326H60.5586V95.8422H57.4962V97.8906H60.8344V98.922H56.2698V91.9272H60.769L60.7618 91.9199Z" fill="#858583"/>
<path d="M64.8547 93.46C65.0942 93.46 65.3264 93.4963 65.5514 93.5689C65.7764 93.6416 65.9723 93.7578 66.1465 93.9103C66.3206 94.0701 66.4585 94.2735 66.5674 94.5277C66.669 94.7819 66.7198 95.087 66.7198 95.4429V98.9294H65.5006V95.7044C65.5006 94.9199 65.1595 94.5277 64.4846 94.5277C64.3903 94.5277 64.2742 94.5422 64.1436 94.5713C64.0129 94.6003 63.8823 94.6585 63.7662 94.7456C63.6501 94.8328 63.5485 94.9563 63.4614 95.1161C63.3743 95.2759 63.3381 95.4938 63.3381 95.7553V98.9222H62.1189V93.5762H63.2727V94.1863H63.2945C63.4832 93.9176 63.7154 93.7287 63.9912 93.6198C64.2669 93.5108 64.5645 93.46 64.8765 93.46H64.8547Z" fill="#858583"/>
<path d="M68.4615 94.5861H67.6052V93.5765H68.4615V92.2109H69.6807V93.5765H71.0305V94.5861H69.6807V97.3971C69.6807 97.6223 69.7315 97.7748 69.8258 97.8402C69.9202 97.9128 70.0435 97.9492 70.2104 97.9492C70.3338 97.9492 70.4499 97.9346 70.5733 97.9128C70.6967 97.8911 70.8273 97.8475 70.9652 97.7894L71.1611 98.7699C71.0522 98.8208 70.8999 98.8716 70.7112 98.9225C70.5225 98.9733 70.3048 98.9951 70.0653 98.9951C69.7605 98.9951 69.5065 98.9588 69.2961 98.8862C69.0929 98.8135 68.926 98.7118 68.8026 98.5738C68.6792 98.4358 68.5922 98.2688 68.5414 98.0726C68.4906 97.8765 68.4615 97.6514 68.4615 97.3971V94.5716V94.5861Z" fill="#858583"/>
<path d="M76.4804 98.4287C76.2192 98.603 75.9216 98.741 75.566 98.8427C75.2177 98.9444 74.7896 98.9952 74.2888 98.9952C73.9768 98.9952 73.6793 98.9516 73.389 98.8717C73.0987 98.7918 72.8375 98.6538 72.6052 98.465C72.373 98.2761 72.1916 98.0219 72.0537 97.695C71.9158 97.3755 71.8433 96.976 71.8433 96.4966V95.9445C71.8433 95.5087 71.9086 95.1383 72.0319 94.8259C72.1553 94.5136 72.3295 94.2521 72.5472 94.0487C72.7649 93.8454 73.0261 93.6928 73.3164 93.5984C73.6139 93.504 73.926 93.4531 74.2743 93.4531C74.6227 93.4531 74.9202 93.504 75.2105 93.5984C75.5007 93.6928 75.7475 93.8454 75.9507 94.0415C76.1539 94.2376 76.3208 94.4845 76.4369 94.7751C76.553 95.0729 76.611 95.4143 76.611 95.7993V96.6854H73.0334C73.0334 97.114 73.1495 97.4336 73.3745 97.6515C73.5994 97.8694 73.926 97.9783 74.3541 97.9783C74.6734 97.9783 74.9492 97.942 75.1959 97.8766C75.4427 97.8113 75.6967 97.695 75.9724 97.5425L76.4732 98.4287H76.4804ZM75.4427 95.7702V95.5378C75.4427 95.3925 75.4209 95.2618 75.3774 95.131C75.3338 95.0003 75.2613 94.8913 75.1669 94.7896C75.0726 94.6952 74.9492 94.6153 74.7968 94.5572C74.6444 94.4991 74.4703 94.47 74.2526 94.47C73.8462 94.47 73.5414 94.579 73.3382 94.7896C73.135 95.0003 73.0334 95.2618 73.0334 95.5668V95.7702H75.4354H75.4427Z" fill="#858583"/>
<path d="M80.8636 94.673C80.7692 94.6367 80.6749 94.6076 80.5733 94.5858C80.4717 94.564 80.3411 94.5568 80.1814 94.5568C80.0145 94.5568 79.8549 94.5858 79.7097 94.6439C79.5646 94.702 79.4412 94.7819 79.3324 94.8909C79.2235 94.9998 79.1437 95.1233 79.0784 95.2686C79.0131 95.4139 78.984 95.5737 78.984 95.748V98.9222H77.7649V93.5762H78.9405V94.3534H78.9623C79.1074 94.0846 79.2961 93.8667 79.5283 93.6997C79.7678 93.5399 80.0726 93.46 80.4572 93.46C80.5951 93.46 80.7257 93.4672 80.8636 93.489C81.0015 93.5108 81.1176 93.5326 81.2119 93.5689L80.8636 94.673Z" fill="#858583"/>
<path d="M84.6735 98.9948C84.3469 98.9948 84.0711 98.9367 83.8389 98.8277C83.6067 98.7115 83.418 98.5663 83.2729 98.3774V101H82.0537V93.5762H83.2293V94.1573C83.3164 94.0193 83.4253 93.9103 83.5486 93.8159C83.672 93.7287 83.8026 93.6561 83.9332 93.6052C84.0639 93.5544 84.2018 93.5181 84.3396 93.4963C84.4775 93.4745 84.6081 93.46 84.7315 93.46C85.0798 93.46 85.3846 93.5181 85.6459 93.627C85.9071 93.736 86.1248 93.8885 86.299 94.0846C86.4732 94.2807 86.6038 94.5204 86.6909 94.8037C86.7779 95.087 86.8215 95.3993 86.8215 95.7407V96.685C86.8215 97.0482 86.7707 97.3678 86.6691 97.6583C86.5675 97.9416 86.4224 98.1885 86.2409 98.3847C86.0523 98.588 85.8273 98.7406 85.5588 98.8495C85.2903 98.9585 85 99.0093 84.6662 99.0093L84.6735 98.9948ZM85.6168 95.9296C85.6168 95.4792 85.5298 95.1233 85.3556 94.8764C85.1814 94.6294 84.8984 94.5059 84.5065 94.5059C84.1147 94.5059 83.7881 94.6221 83.5777 94.8618C83.3672 95.1015 83.2656 95.3993 83.2656 95.7698V96.9029C83.2656 97.0264 83.2946 97.1499 83.36 97.2733C83.4253 97.3968 83.5123 97.513 83.6212 97.6147C83.7301 97.7164 83.8607 97.7963 84.0203 97.8617C84.18 97.9271 84.3469 97.9561 84.5356 97.9561C84.8912 97.9561 85.1597 97.8326 85.3483 97.5857C85.5298 97.3387 85.6241 96.9901 85.6241 96.5397V95.9296H85.6168Z" fill="#858583"/>
<path d="M91.0885 94.673C91.0014 94.6367 90.8998 94.6076 90.7982 94.5858C90.6966 94.564 90.566 94.5568 90.4136 94.5568C90.2467 94.5568 90.0871 94.5858 89.9419 94.6439C89.7968 94.702 89.6734 94.7819 89.5646 94.8909C89.4557 94.9998 89.3759 95.1233 89.3106 95.2686C89.2525 95.4139 89.2162 95.5737 89.2162 95.748V98.9222H87.9971V93.5762H89.1727V94.3534H89.1945C89.3396 94.0846 89.5283 93.8667 89.7605 93.6997C89.9927 93.5399 90.3048 93.46 90.6894 93.46C90.8273 93.46 90.9579 93.4672 91.0958 93.489C91.2336 93.5108 91.3498 93.5326 91.4441 93.5689L91.0958 94.673H91.0885Z" fill="#858583"/>
<path d="M92.2859 91.4697H93.5631V92.7917H92.2859V91.4697ZM92.3149 93.5762H93.5341V98.9222H92.3149V93.5762Z" fill="#858583"/>
<path d="M96.7851 97.9557C97.0609 97.9557 97.2858 97.9194 97.4455 97.8467C97.6052 97.7741 97.6922 97.6288 97.6922 97.4255V97.3673C97.6922 97.2802 97.685 97.2003 97.656 97.1422C97.6342 97.0841 97.5834 97.026 97.5036 96.9824C97.4237 96.9388 97.3149 96.8952 97.1697 96.8589C97.0246 96.8226 96.8287 96.7717 96.5747 96.7209C96.2481 96.6555 95.9724 96.5829 95.7474 96.4957C95.5152 96.4086 95.3337 96.2996 95.1886 96.1688C95.0435 96.0381 94.9346 95.8856 94.8693 95.704C94.804 95.5224 94.7677 95.3045 94.7677 95.0503V94.9558C94.7677 94.7742 94.804 94.5927 94.8766 94.4183C94.9491 94.244 95.0725 94.0769 95.2321 93.9389C95.3991 93.7937 95.6095 93.6847 95.8708 93.5975C96.132 93.5104 96.4513 93.4668 96.8287 93.4668C97.1407 93.4668 97.4673 93.4959 97.8156 93.554C98.1639 93.6121 98.4905 93.7428 98.8025 93.9535L98.28 94.8396C98.0986 94.7161 97.8954 94.629 97.6777 94.5781C97.4528 94.5273 97.2278 94.4982 96.9956 94.4982C96.611 94.4982 96.3497 94.5418 96.2118 94.629C96.0667 94.7161 96.0014 94.8324 96.0014 94.9704V95.0285C96.0014 95.1229 96.0159 95.2028 96.0377 95.2609C96.0667 95.319 96.1102 95.3699 96.1828 95.4134C96.2554 95.457 96.3497 95.4933 96.4803 95.5224C96.611 95.5514 96.7779 95.5878 96.9811 95.6313C97.3149 95.704 97.6124 95.7766 97.8591 95.8565C98.1059 95.9364 98.3091 96.0381 98.4687 96.1616C98.6284 96.2851 98.7445 96.4449 98.8243 96.6337C98.9041 96.8226 98.9404 97.0623 98.9404 97.3456V97.4545C98.9404 97.6651 98.8969 97.8613 98.8025 98.0501C98.7082 98.239 98.5703 98.3988 98.3889 98.544C98.2075 98.6893 97.9825 98.7983 97.7213 98.8854C97.4528 98.9726 97.1552 99.0089 96.8214 99.0089C96.3715 99.0089 95.9506 98.9508 95.5587 98.8346C95.1668 98.7184 94.833 98.5586 94.5718 98.3479L95.116 97.4182C95.3555 97.578 95.6095 97.716 95.8853 97.8177C96.161 97.9194 96.4586 97.9702 96.7996 97.9702L96.7851 97.9557Z" fill="#858583"/>
<path d="M104.347 98.4287C104.086 98.603 103.788 98.741 103.433 98.8427C103.084 98.9444 102.656 98.9952 102.155 98.9952C101.843 98.9952 101.546 98.9516 101.255 98.8717C100.965 98.7918 100.704 98.6538 100.472 98.465C100.239 98.2761 100.058 98.0219 99.9202 97.695C99.7823 97.3755 99.7097 96.976 99.7097 96.4966V95.9445C99.7097 95.5087 99.775 95.1383 99.8984 94.8259C100.022 94.5136 100.196 94.2521 100.414 94.0487C100.631 93.8454 100.893 93.6928 101.183 93.5984C101.48 93.504 101.792 93.4531 102.141 93.4531C102.489 93.4531 102.787 93.504 103.077 93.5984C103.367 93.6928 103.614 93.8454 103.817 94.0415C104.02 94.2376 104.187 94.4845 104.303 94.7751C104.419 95.0729 104.478 95.4143 104.478 95.7993V96.6854H100.9C100.9 97.114 101.016 97.4336 101.241 97.6515C101.466 97.8694 101.792 97.9783 102.221 97.9783C102.54 97.9783 102.816 97.942 103.062 97.8766C103.309 97.8113 103.563 97.695 103.839 97.5425L104.34 98.4287H104.347ZM103.309 95.7702V95.5378C103.309 95.3925 103.287 95.2618 103.244 95.131C103.2 95.0003 103.128 94.8913 103.033 94.7896C102.939 94.6879 102.816 94.6153 102.663 94.5572C102.511 94.4991 102.337 94.47 102.119 94.47C101.713 94.47 101.408 94.579 101.205 94.7896C101.001 95.0003 100.9 95.2618 100.9 95.5668V95.7702H103.302H103.309Z" fill="#858583"/>
<path d="M62.4891 27.6672L79.3832 44.7656H70.2903L55.5806 29.868V54.2083H86.9884V11.7236H78.3237L62.4891 27.6672Z" fill="#858583"/>
<path d="M27.6633 7.00726L15 7L32.1118 24.3309L32.3222 48.5259L38.6938 42.1339L38.4761 17.9607L27.6633 7.00726Z" fill="#858583"/>
<path d="M79.5573 0.0290543L22.1553 0L28.4543 6.37742L39.267 17.3309L39.4847 41.5041L48.418 32.5408V7.43064H55.8273V25.1102V25.1247L80.0217 0.849838L80.8345 0.0363179L79.5573 0.0290543Z" fill="#858583"/>
</g>
<defs>
<clipPath id="clip0_747_1167">
<rect width="120" height="101" fill="white"/>
</clipPath>
</defs>
</svg>
