<svg width="232" height="49" viewBox="0 0 232 49" fill="none" xmlns="http://www.w3.org/2000/svg">
<path d="M6.19 41.615H11.776C11.89 41.615 11.966 41.5379 11.966 41.4224V30.1377H19.262V41.4224C19.262 41.5379 19.338 41.615 19.452 41.615H25.038C25.152 41.615 25.228 41.5379 25.228 41.4224V14.5778C25.228 14.4623 25.152 14.3853 25.038 14.3853H19.452C19.338 14.3853 19.262 14.4623 19.262 14.5778V25.3619H11.966V14.5778C11.966 14.4623 11.89 14.3853 11.776 14.3853H6.19C6.076 14.3853 6 14.4623 6 14.5778V41.4224C6 41.5379 6.076 41.615 6.19 41.615Z" fill="black"/>
<path d="M50.4779 41.4224L43.8279 14.5778C43.7899 14.4623 43.7139 14.3853 43.5999 14.3853H35.3159C35.2399 14.3853 35.1639 14.4623 35.1259 14.5778L28.2831 41.4224C28.0931 41.615 29.1599 41.615 28.6279 41.615H34.3659C34.4799 41.615 34.5559 41.5379 34.5559 41.4224L35.7719 36.1844H43.1439L44.3219 41.4224C44.3599 41.5379 44.4359 41.615 44.5499 41.615H50.2879C50.4019 41.615 50.5159 41.4994 50.4779 41.4224ZM36.9499 31.4857L39.2299 19.5462H39.6859L41.9659 31.4857H36.9499Z" fill="black"/>
<path d="M53.6933 41.615H69.1973C69.3113 41.615 69.3873 41.5379 69.3873 41.4224V36.9162C69.3873 36.8007 69.3113 36.7236 69.1973 36.7236H59.4693V30.1762H68.4373C68.5513 30.1762 68.6273 30.0991 68.6273 29.9836V25.5544C68.6273 25.4389 68.5513 25.3619 68.4373 25.3619H59.4693V19.2381H69.1973C69.3113 19.2381 69.3873 19.161 69.3873 19.0455V14.5778C69.3873 14.4623 69.3113 14.3853 69.1973 14.3853H53.6933C53.5793 14.3853 53.5033 14.4623 53.5033 14.5778V41.4224C53.5033 41.5379 53.5793 41.615 53.6933 41.615Z" fill="black"/>
<path d="M83.2538 42.0784C88.9918 42.0784 93.0536 39.6134 93.0536 34.3755V30.5996C93.0536 30.4841 92.9776 30.407 92.8636 30.407H87.2016C87.0876 30.407 87.0116 30.4841 87.0116 30.5996V34.0674C87.0116 36.1086 85.7238 37.1485 83.2918 37.1485C80.5558 37.1485 79.2301 35.7235 79.2301 32.6808V23.3189C79.2301 20.3148 80.4418 18.8127 83.2918 18.8127C85.6098 18.8127 87.0116 19.66 87.0116 21.7783V24.938C87.0116 25.0535 87.0876 25.1305 87.2016 25.1305H92.8636C92.9776 25.1305 93.0536 25.0535 93.0536 24.938V21.4317C93.0536 15.9241 88.4598 13.9214 83.2538 13.9214C77.0978 13.9214 73.264 16.7329 73.264 23.2034V32.7579C73.264 39.1513 77.0598 42.0784 83.2538 42.0784Z" fill="black"/>
<path d="M97.6164 41.615H103.202C103.316 41.615 103.392 41.5379 103.392 41.4224V30.1377H110.688V41.4224C110.688 41.5379 110.764 41.615 110.878 41.615H116.464C116.578 41.615 116.654 41.5379 116.654 41.4224V14.5778C116.654 14.4623 116.578 14.3853 116.464 14.3853H110.878C110.764 14.3853 110.688 14.4623 110.688 14.5778V25.3619H103.392V14.5778C103.392 14.4623 103.316 14.3853 103.202 14.3853H97.6164C97.5024 14.3853 97.4264 14.4623 97.4264 14.5778V41.4224C97.4264 41.5379 97.5024 41.615 97.6164 41.615Z" fill="black"/>
<path d="M122.391 41.615H127.977C128.091 41.615 128.167 41.5379 128.167 41.4224V14.5778C128.167 14.4623 128.091 14.3853 127.977 14.3853H122.391C122.277 14.3853 122.201 14.4623 122.201 14.5778V41.4224C122.201 41.5379 122.277 41.615 122.391 41.615Z" fill="black"/>
<path d="M140.54 41.615H156.043C156.157 41.615 156.233 41.4994 156.233 41.3069V36.9932C156.233 36.8007 156.157 36.7236 156.043 36.7236H146.315V14.5778C146.315 14.4623 146.239 14.3853 146.125 14.3853H140.54C140.426 14.3853 140.349 14.4623 140.349 14.5778V41.4224C140.349 41.5379 140.426 41.615 140.54 41.615Z" fill="black"/>
<path d="M180.513 41.4224L173.863 14.5778C173.825 14.4623 173.748 14.3853 173.634 14.3853H165.351C165.275 14.3853 165.199 14.4623 165.161 14.5778L158.473 41.4224C158.283 41.615 159.195 41.615 158.663 41.615H164.401C164.515 41.615 164.591 41.5379 164.591 41.4224L165.807 36.1844H173.179L174.357 41.4224C174.395 41.5379 174.471 41.615 174.584 41.615H180.322C180.436 41.615 180.551 41.4994 180.513 41.4224ZM166.985 31.4857L169.265 19.5462H169.721L172.001 31.4857H166.985Z" fill="black"/>
<path d="M183.476 41.615H194.382C199.132 41.615 202.286 40.0744 202.286 35.5682V32.1789C202.286 29.637 200.766 28.1734 198.296 27.8653V27.5957C200.5 27.2876 201.906 25.3619 201.906 22.8584V20.278C201.906 15.8488 199.056 14.3853 194.192 14.3853H183.476C183.362 14.3853 183.286 14.4623 183.286 14.5778V41.4224C183.286 41.5379 183.362 41.615 183.476 41.615ZM189.252 25.593V19.161H193.698C195.104 19.161 195.94 19.5847 195.94 21.0483V23.7443C195.94 25.0538 195.256 25.593 193.812 25.593H189.252ZM189.252 36.8007V30.1377H194.154C195.56 30.1377 196.282 30.6383 196.282 31.9864V34.9135C196.282 36.2229 195.56 36.8007 194.04 36.8007H189.252Z" fill="black"/>
<path d="M215.424 42.0196C220.934 42.0196 225 40.5945 225 35.4721V32.3909C225 25.1887 211.852 26.3442 211.852 22.3387V20.644C211.852 19.373 212.954 18.7953 215.348 18.7953C217.59 18.7953 219.034 19.2575 219.034 21.2988V23.8792C219.034 23.9948 219.11 24.0718 219.224 24.0718H224.81C224.924 24.0718 225 23.9948 225 23.8792V21.1447C225 15.7912 221.162 14.0195 215.31 14.0195C210.028 14.0195 205.848 15.5601 205.848 20.4129V22.8779C205.848 30.4652 219.034 28.501 219.034 33.1612V35.164C219.034 37.0127 217.4 37.1667 215.424 37.1667C213.258 37.1667 211.814 36.6661 211.814 34.5863V31.8132C211.814 31.6977 211.738 31.6207 211.624 31.6207H206C205.886 31.6207 205.81 31.6977 205.81 31.8132V34.7018C205.81 40.479 209.952 42.0196 215.424 42.0196Z" fill="black"/>
</svg>
