<svg width="211" height="49" viewBox="0 0 211 49" fill="none" xmlns="http://www.w3.org/2000/svg">
<path d="M108.848 44C100.87 44 100.374 39.2685 101.848 33.8912H108.292C107.665 36.8594 107.266 39.3538 110.808 39.3538C112.985 39.3538 114.351 37.9359 114.795 35.8256C115.974 30.2342 103.076 29.8907 105.028 20.6403C106.052 15.7799 109.173 11.9083 117.024 11.9083C123.296 11.9083 125.812 14.7465 124.015 21.2445H117.743C118.233 18.92 118.348 16.5541 115.746 16.5541C113.656 16.5541 112.173 17.7167 111.72 19.8657C110.476 25.7587 123.555 25.2426 121.495 35.0096C119.798 43.0547 113.754 44 108.848 44ZM146.514 43.484L153.067 12.4249H169.878L168.87 17.2003H158.502L156.887 24.8574H166.444L165.437 29.6324H155.878L153.966 38.7102H164.675L163.668 43.484H146.514ZM140.246 24.8572L142.87 12.4243H149.313L142.759 43.4862H136.32L139.242 29.6326H131.859L128.937 43.4862H122.494L129.044 12.4243H135.489L132.867 24.8572H140.246ZM92.1878 21.2446L81.387 43.4863H74.8912L89.9756 12.4249H98.4668L100.279 43.4863H93.4898L92.1878 21.2446ZM183.18 12.4224C191.627 12.4224 192.01 18.1015 189.968 27.7816C188.96 32.5593 187.381 43.4842 176.371 43.4842H165.877C168.061 33.1301 170.244 22.7753 172.428 12.4224H183.18ZM183.404 27.9543C184.609 22.2328 185.673 17.2001 181.192 17.2001H177.863C176.352 24.3694 174.839 31.5387 173.326 38.7104H176.441C180.367 38.7104 181.76 35.7406 183.404 27.9543ZM73.3571 43.4863H66.916L69.8371 29.6335H62.455L59.5335 43.4863H53.089L59.6425 12.4252H66.0839L63.4618 24.8573H70.8443L73.4656 12.4252H79.9071L73.3571 43.4863ZM40.2703 24.8572L41.8844 17.2001H34.5054L32.8882 24.8572H40.2703ZM54.7689 17.2001H48.3282L46.7137 24.8572H53.1544L52.1468 29.6334H45.7069L42.7827 43.4862H36.3416L39.2627 29.6334H31.8818L28.9599 43.4862H22.518L25.4395 29.6334H19L20.0068 24.8572H26.4463L28.0605 17.2001H21.6209L22.6281 12.4251H29.068L31.6901 0H38.1312L35.5118 12.4251H42.8939L45.514 0H51.9563L49.3361 12.4251H55.7764L54.7689 17.2001Z" fill="black"/>
</svg>
