<svg width="287" height="47" viewBox="0 0 287 47" fill="none" xmlns="http://www.w3.org/2000/svg">
<path fill-rule="evenodd" clip-rule="evenodd" d="M210.125 23.0252H190.572V6.97119H210.125V23.0252ZM206.028 19.5216H194.683V10.453H206.028V19.5216Z" fill="white"/>
<path fill-rule="evenodd" clip-rule="evenodd" d="M172.937 20.0689V25.1032H184.634V38.276H180.64V28.5856H157.168V25.1032H168.952V20.0689H154.724V16.5888H180.453V9.62862H157.604V6.16797H184.45V16.5663H187.313V20.0689H172.937Z" fill="white"/>
<path fill-rule="evenodd" clip-rule="evenodd" d="M219.902 38.2778H194.646V26.2373H198.668V34.7318H219.902V38.2778Z" fill="white"/>
<path fill-rule="evenodd" clip-rule="evenodd" d="M215.828 27.0382H219.087V6.16797H215.828V27.0382Z" fill="white"/>
<path fill-rule="evenodd" clip-rule="evenodd" d="M223.161 27.0377H255.75V23.0242H223.161V27.0377Z" fill="white"/>
<path fill-rule="evenodd" clip-rule="evenodd" d="M226.42 25.4338V38.2771H253.306V34.8494H230.518V25.4338H226.42Z" fill="white"/>
<path fill-rule="evenodd" clip-rule="evenodd" d="M282.093 6.97119V13.0703H279.919V6.97119H276.119V23.0252H279.919V16.4007H282.093V23.0252H285.896V6.97119H282.093Z" fill="white"/>
<path fill-rule="evenodd" clip-rule="evenodd" d="M263.584 4.56201V7.56282H256.565V10.9836H274.489V7.56282H267.517V4.56201H263.584Z" fill="white"/>
<path fill-rule="evenodd" clip-rule="evenodd" d="M275.084 23.0422C268.898 23.0422 263.898 25.7806 263.898 31.365C263.898 36.9022 268.898 39.6863 275.084 39.6863C281.254 39.6863 286.259 36.9022 286.259 31.365C286.259 25.7806 281.254 23.0422 275.084 23.0422ZM275.084 36.0658C271.205 36.0658 268.062 34.6148 268.062 31.3613C268.062 28.1318 271.205 26.6616 275.084 26.6616C278.96 26.6616 282.103 28.1318 282.103 31.3613C282.103 34.6148 278.96 36.0658 275.084 36.0658Z" fill="white"/>
<path fill-rule="evenodd" clip-rule="evenodd" d="M227.525 13.1214C227.525 7.4525 232.782 4.66455 239.267 4.66455C245.752 4.66455 251.009 7.4525 251.009 13.1214C251.009 18.7492 245.752 21.5774 239.267 21.5774C232.782 21.5774 227.525 18.7492 227.525 13.1214ZM231.753 13.1173C231.753 16.4397 235.112 17.9208 239.267 17.9208C243.413 17.9208 246.78 16.4397 246.78 13.1173C246.78 9.82656 243.413 8.32142 239.267 8.32142C235.112 8.32142 231.753 9.82656 231.753 13.1173Z" fill="white"/>
<path fill-rule="evenodd" clip-rule="evenodd" d="M256.618 15.54C256.618 10.9649 260.451 8.71533 265.188 8.71533C269.914 8.71533 273.754 10.9649 273.754 15.54C273.754 20.0771 269.914 22.3731 265.188 22.3731C260.451 22.3731 256.618 20.0771 256.618 15.54ZM260.75 15.3484C260.75 17.68 262.735 18.7111 265.188 18.7111C267.626 18.7111 269.61 17.68 269.61 15.3484C269.61 13.0345 267.626 11.9732 265.188 11.9732C262.735 11.9732 260.75 13.0345 260.75 15.3484Z" fill="white"/>
<path fill-rule="evenodd" clip-rule="evenodd" d="M81.8769 6.50854H86.9884V20.7961L104.191 6.50854H111.427L93.248 20.9263L112.934 38.4317H105.704L86.9884 21.3237V38.4317H81.8769V6.50854Z" fill="white"/>
<path fill-rule="evenodd" clip-rule="evenodd" d="M116.499 6.5752H132.232C139.718 6.5752 143.633 9.05484 143.633 14.475C143.633 18.332 140.932 20.9828 137.342 21.6994V21.8334C142.49 22.4454 144.926 25.8143 144.926 29.6132C144.926 34.378 141.426 38.4999 132.731 38.4999H116.499V6.5752ZM121.597 34.8729H131.661C137.908 34.8729 139.563 32.4382 139.563 29.3458C139.563 25.6787 137.023 23.6468 131.391 23.6468H121.597V34.8729ZM131.979 20.0185H121.597V10.21H131.391C137.281 10.21 138.686 12.1892 138.686 15.153C138.686 18.5583 135.837 20.0185 131.979 20.0185Z" fill="white"/>
<path fill-rule="evenodd" clip-rule="evenodd" d="M65.8358 24.118C65.8343 24.1173 65.2602 23.7563 65.2602 23.7563C63.3088 21.8135 60.5915 20.9699 56.9591 21.1798C53.9357 21.3673 51.5369 22.5602 49.7044 23.6749C49.7044 23.6463 49.702 23.6199 49.702 23.5913C49.702 22.6462 49.81 21.6229 49.9149 20.6283C50.0236 19.6173 50.1316 18.5894 50.1316 17.6149C50.1316 16.621 50.0182 15.6806 49.6741 14.875C49.5886 14.6658 49.3975 14.5442 49.1567 14.5442C48.1771 14.5659 46.27 15.2329 45.8086 15.6372L45.5561 16.1872C45.5375 17.2655 45.3013 20.2789 45.0629 20.6453C45.0714 20.6306 44.9316 21.0078 44.9316 21.0078C44.5222 25.3133 44.5121 29.0944 44.8935 32.3424C44.9362 32.6647 45.5631 33.1574 46.0471 33.3324C46.5753 33.5284 48.2393 33.0846 49.1955 32.722C49.187 32.7251 49.5591 32.6678 49.5591 32.6678C49.8628 32.6345 50.0407 32.3804 50.0244 32.0372C50.0236 32.0303 50.0462 31.1022 50.0462 31.1022C50.7399 28.2972 53.5411 24.9554 56.8511 24.4504C58.7233 24.1552 60.2015 24.6309 61.3699 25.9036C61.5284 26.1306 61.8686 28.147 60.6342 30.4655C59.7153 32.1844 57.8781 33.6268 55.4629 34.5339C53.1752 35.3976 50.6552 35.7501 47.5479 35.6401C47.4213 35.5572 44.6364 33.6803 44.6364 33.6803C42.1754 31.9551 39.1147 29.8078 36.3345 28.7551C35.8505 28.573 34.9727 27.8472 34.4492 27.4149L34.1617 27.1794C32.5607 25.8982 29.5148 23.8748 27.0655 22.2473C27.0655 22.2473 25.9616 21.509 25.7456 21.3673C25.748 21.2743 25.7534 21.0915 25.7534 21.0915C25.8233 21.0148 27.3583 20.0945 27.3583 20.0945C29.5117 18.8388 30.5068 18.223 30.7196 17.9046C30.6761 17.9542 31.0071 17.7357 31.0071 17.7357C31.0226 17.7272 36.3415 14.7255 36.3415 14.7255C41.4623 11.9158 47.269 8.73203 50.3165 5.58464C50.3204 5.58077 50.4649 5.10514 50.4649 5.10514L50.5309 4.67676C50.7313 4.00514 50.7461 3.4869 50.5775 2.88887C50.5309 2.71768 50.374 2.52092 50.1642 2.48141C47.7848 2.24824 44.7125 3.66972 41.9183 6.28182C41.2891 6.87443 40.7585 7.16104 40.1984 7.46548L39.7712 7.7033C36.6895 9.44935 29.7471 13.744 26.117 16.0633C26.3562 12.166 27.0787 6.62576 27.9666 2.005L27.8679 1.45346C27.857 1.43409 27.4935 0.754727 27.4935 0.754727L27.2084 0.253531L27.1261 0.231841C26.4021 -0.134567 25.8101 0.0157147 25.3751 0.128038C25.3774 0.128038 24.6472 0.392192 24.6472 0.392192L23.6824 0.742332C23.4921 0.781064 23.353 0.895712 23.2785 1.0824C21.5446 5.26394 20.0974 12.1428 19.7564 17.6466C16.2871 15.4443 13.0811 13.8656 11.5127 13.1003L11.4661 13.077L11.2774 13.036C10.7165 12.9624 10.0243 12.5495 9.35783 12.1459C9.29258 12.1064 8.04267 11.2961 8.04267 11.2961L6.02527 10.0094C6.04547 10.0203 5.49703 9.88935 5.49703 9.88935C4.62855 10.0365 2.97003 11.1512 2.47675 11.9081C2.40917 12.0088 2.38586 12.1188 2.38586 12.2319C2.38586 12.3891 2.43325 12.5526 2.47675 12.706L2.56686 13.1165L2.66008 13.3644C3.62567 14.3505 6.06178 15.9974 8.45206 17.2787L11.2222 18.742L15.4613 21.052C15.4629 21.0714 16.1876 21.6229 16.1876 21.6229C16.1908 21.6229 16.6871 21.9111 16.6871 21.9111C16.6871 21.9111 16.7407 21.9428 16.7726 21.9668C15.6431 22.7198 9.06497 27.1035 9.06497 27.1035L5.00686 29.7815C4.62544 30.0425 3.02053 30.7598 2.67096 30.9008C1.78926 31.2556 1.12664 31.8033 0.848534 32.3998L0.741333 32.6329L0.850088 32.7879L1.15849 33.0218C1.14683 33.0203 1.57642 33.2937 1.57642 33.2937L2.02153 33.5989C2.03241 33.6036 2.44568 33.6624 2.44568 33.6624C3.15725 33.6911 4.2145 33.286 6.1884 32.4253C8.00073 31.6228 12.9265 28.6613 15.031 27.3963L15.9297 26.8572C16.3011 26.8874 16.7128 26.5752 17.074 26.2994C17.4981 25.964 18.4179 25.4024 18.9772 25.1561C18.992 25.1499 19.3143 24.9732 19.6119 24.8075C19.6088 24.902 19.6064 25.0484 19.6064 25.0484C19.7012 31.471 20.0733 36.139 20.7748 39.7372L20.7888 39.8023L20.8563 39.9464C21.2044 40.4569 21.5982 41.9783 21.9462 43.32L22.7495 45.9994C22.765 46.0297 22.9771 46.252 22.9771 46.252C23.4338 46.558 24.8282 47.0948 25.762 46.9856L25.9942 46.9569L26.1418 46.63C26.2195 46.2295 26.2475 45.836 26.2475 45.403C26.2475 44.9134 26.2117 44.3711 26.1667 43.7119L26.1045 42.7436C25.8101 38.2607 25.5142 31.7832 25.5142 27.48C25.5142 27.3592 25.5157 27.2523 25.5173 27.1368C26.2785 27.6171 29.6228 29.7164 29.6228 29.7164C35.3091 33.3952 43.8992 38.954 49.0907 40.4243C49.361 40.5041 49.6446 40.4406 49.8442 40.2516C49.852 40.2431 50.6451 39.7403 50.6451 39.7403L50.7904 39.6799C51.0902 39.5389 51.293 39.0377 51.3264 38.4924C55.7014 38.2739 61.8057 36.5945 65.0707 32.4997C66.3353 30.9117 66.904 28.9704 66.904 27.3026C66.904 25.9415 66.5241 24.7641 65.8358 24.118Z" fill="#EFA92C"/>
</svg>
