<svg width="196" height="41" viewBox="0 0 196 41" fill="none" xmlns="http://www.w3.org/2000/svg">
<path fill-rule="evenodd" clip-rule="evenodd" d="M178.609 11.1973V13.2478H173.812V15.5853H175.098C174.315 16.3426 173.848 17.3789 173.848 18.6984C173.848 21.7987 176.468 23.3676 179.705 23.3676C182.934 23.3676 185.558 21.7987 185.558 18.6984C185.558 17.3789 185.091 16.3426 184.308 15.5853H186.06V13.2478H181.296V11.1973H178.609ZM116.666 21.7933V25.2334H124.66V34.2348H121.93V27.613H105.891V25.2334H113.944V21.7933H104.221V19.4153H121.803V14.6592H106.19V12.2944H124.534V19.3999H126.49V21.7933H116.666ZM128.717 23.8133H142.079V12.8431H128.717V23.8133ZM131.526 21.4195H139.278V15.2226H131.526V21.4195ZM131.501 34.2348H148.76V31.8117H134.25V26.0071H131.501V34.2348ZM145.976 26.5557H148.203V12.2944H145.976V26.5557ZM173.255 26.5556H156.014V31.8926H171.585V34.2348H153.213V26.5556H150.986V23.8131H173.255V26.5556ZM191.256 17.0107V12.8431H193.854V23.8133H191.256V19.2865H189.77V23.8133H187.174V12.8431H189.77V17.0107H191.256ZM178.823 29.5118C178.823 25.6958 182.24 23.8246 186.467 23.8246C190.683 23.8246 194.102 25.6958 194.102 29.5118C194.102 33.2955 190.683 35.198 186.467 35.198C182.24 35.198 178.823 33.2955 178.823 29.5118ZM181.668 29.5098C181.668 31.733 183.816 32.7245 186.467 32.7245C189.115 32.7245 191.263 31.733 191.263 29.5098C191.263 27.303 189.115 26.2983 186.467 26.2983C183.816 26.2983 181.668 27.303 181.668 29.5098ZM161.992 11.2674C157.56 11.2674 153.968 13.1725 153.968 17.0462C153.968 20.8919 157.56 22.8245 161.992 22.8245C166.423 22.8245 170.015 20.8919 170.015 17.0462C170.015 13.1725 166.423 11.2674 161.992 11.2674ZM161.992 20.3247C159.153 20.3247 156.857 19.3126 156.857 17.0423C156.857 14.7936 159.153 13.7651 161.992 13.7651C164.825 13.7651 167.126 14.7936 167.126 17.0423C167.126 19.3126 164.825 20.3247 161.992 20.3247ZM176.672 18.5667C176.672 20.16 178.028 20.8646 179.705 20.8646C181.371 20.8646 182.727 20.16 182.727 18.5667C182.727 16.9856 181.371 16.2604 179.705 16.2604C178.028 16.2604 176.672 16.9856 176.672 18.5667ZM54.4424 12.5266H57.9352V22.2897L69.6903 12.5266H74.6349L62.2126 22.3786L75.6647 34.3406H70.7238L57.9352 22.6502V34.3406H54.4424V12.5266ZM88.4618 31.9097H81.5849V24.2386H88.277C92.126 24.2386 93.8613 25.627 93.8613 28.1329C93.8613 30.246 92.7307 31.9097 88.4618 31.9097ZM88.6794 21.7593H81.5849V15.0568H88.277C92.3018 15.0568 93.262 16.4093 93.262 18.4345C93.262 20.7615 91.3155 21.7593 88.6794 21.7593ZM88.8514 12.5724H78.1001V34.3875H89.1922C95.1337 34.3875 97.5251 31.5709 97.5251 28.315C97.5251 25.7191 95.8604 23.417 92.3432 22.9988V22.9072C94.7961 22.4176 96.6418 20.6062 96.6418 17.9706C96.6418 14.2668 93.9664 12.5724 88.8514 12.5724Z" fill="black"/>
<path fill-rule="evenodd" clip-rule="evenodd" d="M44.481 24.5599C44.4799 24.5594 44.0876 24.3127 44.0876 24.3127C42.7542 22.9851 40.8974 22.4087 38.4152 22.5521C36.3493 22.6802 34.7101 23.4954 33.4579 24.2572C33.4579 24.2376 33.4563 24.2196 33.4563 24.2C33.4563 23.5542 33.53 22.8549 33.6017 22.1753C33.676 21.4845 33.7498 20.782 33.7498 20.1161C33.7498 19.437 33.6723 18.7944 33.4371 18.2439C33.3788 18.1009 33.2482 18.0178 33.0836 18.0178C32.4142 18.0327 31.1111 18.4884 30.7958 18.7647L30.6232 19.1406C30.6105 19.8774 30.4491 21.9365 30.2862 22.1869C30.292 22.1768 30.1965 22.4346 30.1965 22.4346C29.9167 25.3767 29.9098 27.9604 30.1705 30.1799C30.1996 30.4001 30.628 30.7368 30.9587 30.8564C31.3197 30.9903 32.4567 30.687 33.1102 30.4393C33.1043 30.4414 33.3586 30.4022 33.3586 30.4022C33.5661 30.3795 33.6877 30.2059 33.6766 29.9714C33.676 29.9666 33.6914 29.3324 33.6914 29.3324C34.1654 27.4157 36.0796 25.1321 38.3414 24.787C39.6207 24.5853 40.6309 24.9104 41.4293 25.7801C41.5375 25.9352 41.77 27.313 40.9266 28.8973C40.2986 30.0719 39.0432 31.0576 37.3929 31.6774C35.8296 32.2676 34.1076 32.5085 31.9843 32.4333C31.8978 32.3767 29.9947 31.0941 29.9947 31.0941C28.3131 29.9153 26.2216 28.4479 24.3218 27.7286C23.9911 27.6042 23.3913 27.1082 23.0335 26.8128L22.8371 26.6519C21.7431 25.7764 19.6617 24.3937 17.988 23.2816C17.988 23.2816 17.2337 22.7771 17.0861 22.6802C17.0877 22.6167 17.0914 22.4918 17.0914 22.4918C17.1392 22.4394 18.1881 21.8105 18.1881 21.8105C19.6596 20.9525 20.3396 20.5317 20.485 20.3141C20.4553 20.348 20.6814 20.1987 20.6814 20.1987C20.692 20.1929 24.3266 18.1417 24.3266 18.1417C27.8258 16.2218 31.7937 14.0462 33.8761 11.8955C33.8788 11.8929 33.9775 11.5678 33.9775 11.5678L34.0227 11.2751C34.1596 10.8162 34.1697 10.4621 34.0545 10.0534C34.0226 9.93642 33.9154 9.80197 33.7721 9.77497C32.1462 9.61564 30.0468 10.587 28.1374 12.3719C27.7074 12.7768 27.3449 12.9727 26.9621 13.1807L26.6702 13.3432C24.5644 14.5364 19.8204 17.471 17.3399 19.0559C17.5034 16.3928 17.997 12.6069 18.6038 9.44943L18.5364 9.07254C18.5289 9.0593 18.2805 8.59507 18.2805 8.59507L18.0857 8.25259L18.0294 8.23777C17.5347 7.98739 17.1302 8.09008 16.8329 8.16684C16.8345 8.16684 16.3356 8.34734 16.3356 8.34734L15.6763 8.5866C15.5462 8.61307 15.4512 8.69141 15.4002 8.81898C14.2154 11.6764 13.2265 16.3769 12.9935 20.1378C10.6228 18.6329 8.4321 17.5541 7.36036 17.0311L7.32851 17.0153L7.19952 16.9872C6.81627 16.9369 6.3433 16.6548 5.88785 16.379C5.84326 16.352 4.98916 15.7983 4.98916 15.7983L3.61061 14.9191C3.62441 14.9265 3.24965 14.837 3.24965 14.837C2.65619 14.9376 1.52288 15.6993 1.1858 16.2165C1.13962 16.2853 1.1237 16.3605 1.1237 16.4378C1.1237 16.5452 1.15608 16.6569 1.1858 16.7617L1.24738 17.0423L1.31108 17.2116C1.97089 17.8855 3.63556 19.0109 5.26891 19.8864L7.16183 20.8863L10.0585 22.4648C10.0596 22.478 10.5549 22.8549 10.5549 22.8549C10.557 22.8549 10.8962 23.0518 10.8962 23.0518C10.8962 23.0518 10.9328 23.0735 10.9546 23.09C10.1828 23.6045 5.68773 26.6 5.68773 26.6L2.9147 28.4299C2.65406 28.6083 1.55738 29.0985 1.31851 29.1948C0.716022 29.4373 0.263228 29.8115 0.0731928 30.2191L-6.10352e-05 30.3784L0.0742545 30.4843L0.284992 30.6442C0.27703 30.6431 0.570576 30.8299 0.570576 30.8299L0.874739 31.0385C0.88217 31.0417 1.16457 31.0819 1.16457 31.0819C1.65081 31.1015 2.37326 30.8247 3.72209 30.2366C4.9605 29.6882 8.32646 27.6645 9.76447 26.8001L10.3786 26.4317C10.6324 26.4523 10.9137 26.239 11.1605 26.0506C11.4504 25.8213 12.0789 25.4376 12.4611 25.2692C12.4711 25.265 12.6914 25.1443 12.8947 25.031C12.8926 25.0956 12.891 25.1957 12.891 25.1957C12.9558 29.5844 13.2101 32.7742 13.6894 35.233L13.6989 35.2775L13.7451 35.3759C13.9829 35.7247 14.2521 36.7644 14.4899 37.6812L15.0387 39.5122C15.0494 39.5328 15.1943 39.6847 15.1943 39.6847C15.5064 39.8938 16.4592 40.2606 17.0973 40.186L17.256 40.1664L17.3569 39.943C17.4099 39.6694 17.4291 39.4005 17.4291 39.1046C17.4291 38.77 17.4046 38.3995 17.3738 37.949L17.3314 37.2874C17.1302 34.2241 16.928 29.7977 16.928 26.8573C16.928 26.7747 16.929 26.7016 16.9301 26.6228C17.4503 26.951 19.7355 28.3855 19.7355 28.3855C23.6211 30.8993 29.491 34.6978 33.0385 35.7025C33.2232 35.757 33.417 35.7136 33.5534 35.5845C33.5587 35.5786 34.1007 35.2351 34.1007 35.2351L34.1999 35.1938C34.4048 35.0975 34.5434 34.755 34.5662 34.3823C37.5558 34.2331 41.727 33.0855 43.9581 30.2874C44.8223 29.2022 45.2109 27.8757 45.2109 26.736C45.2109 25.806 44.9513 25.0014 44.481 24.5599Z" fill="#EFA92C"/>
</svg>
