<svg width="160" height="36" viewBox="0 0 160 36" fill="none" xmlns="http://www.w3.org/2000/svg">
<path d="M44.1712 0H0.970703V36H44.1712V0Z" fill="black"/>
<path d="M28.2614 3.88867H21.6702L3.91113 32.1111H10.5023L28.2614 3.88867Z" fill="#00E774"/>
<path d="M41.2308 3.88867H34.6396L24.7236 19.7569H31.3137L41.2308 3.88867Z" fill="#00E774"/>
<path d="M23.6076 32.2278C25.6666 32.2278 27.3357 30.5586 27.3357 28.4996C27.3357 26.4406 25.6666 24.7715 23.6076 24.7715C21.5485 24.7715 19.8794 26.4406 19.8794 28.4996C19.8794 30.5586 21.5485 32.2278 23.6076 32.2278Z" fill="#00E774"/>
<path d="M57.1035 5.40967H62.6488V16.4287L72.8765 5.40967H79.5748L69.3114 16.1051L80.0425 30.6179H73.3799L65.5654 19.8868L62.6488 22.9117V30.6179H57.1035V5.40967Z" fill="black"/>
<path d="M79.1309 18.085V18.0136C79.1309 10.8476 84.7844 4.97754 92.5632 4.97754C100.342 4.97754 105.923 10.775 105.923 17.9422V18.0136C105.923 25.1808 100.269 31.0497 92.4906 31.0497C84.713 31.0497 79.1309 25.2522 79.1309 18.085ZM100.127 18.085V18.0136C100.127 13.6917 96.9577 10.0908 92.4918 10.0908C88.0258 10.0908 84.9296 13.6203 84.9296 17.9422V18.0136C84.9296 22.3356 88.0984 25.9364 92.5644 25.9364C97.0303 25.9364 100.127 22.4069 100.127 18.085Z" fill="black"/>
<path d="M109.883 5.40967H119.715C127.638 5.40967 133.111 10.8478 133.111 17.9424V18.0138C133.111 25.1083 127.638 30.6179 119.715 30.6179H109.883V5.40967ZM119.715 25.6129C124.252 25.6129 127.314 22.5523 127.314 18.0864V18.015C127.314 13.5502 124.253 10.417 119.715 10.417H115.43V25.6141H119.715V25.6129Z" fill="black"/>
<path d="M143.447 5.17773H148.561L159.364 30.5656H153.567L151.262 24.9121H140.602L138.297 30.5656H132.644L143.447 5.17773ZM149.282 20.0142L145.933 11.8392L142.583 20.0142H149.282Z" fill="black"/>
</svg>
