<svg xmlns="http://www.w3.org/2000/svg" width="20" height="20" viewBox="0 0 20 20">
    <g fill="none" fill-rule="evenodd">
        <g fill="#3F3F3F" fill-rule="nonzero">
            <path d="M1654 1627c5.514 0 10-4.486 10-10s-4.486-10-10-10-10 4.486-10 10c0 1.834.497 3.553 1.362 5.032.029.115.092.217.178.294 1.773 2.806 4.902 4.674 8.46 4.674zm-7.643-14.405h3.293c-.3 1.196-.48 2.502-.523 3.817h-3.93c.091-1.383.502-2.68 1.16-3.817zm16.446 3.817h-3.93c-.042-1.315-.223-2.621-.523-3.817h3.293c.658 1.137 1.069 2.434 1.16 3.817zm-1.1 4.887h-3.332c.287-1.163.46-2.431.502-3.71h3.93c-.088 1.34-.477 2.598-1.1 3.71zm-8.291 1.176v2.963c-1.042-.45-1.792-1.902-2.192-2.963h2.192zm-2.57-1.176c-.307-1.145-.494-2.418-.538-3.71h3.108v3.71h-2.57zm3.746 4.14v-2.964h2.192c-.4 1.061-1.15 2.513-2.192 2.963zm0-4.14v-3.71h3.108c-.044 1.292-.23 2.565-.539 3.71h-2.569zm3.108-4.887h-3.108v-3.817h2.547c.321 1.177.516 2.489.56 3.817zm-3.108-4.994v-2.939c1.024.452 1.765 1.89 2.165 2.94h-2.165zm-1.176-2.939v2.94h-2.165c.4-1.05 1.141-2.488 2.165-2.94zm0 4.116v3.817h-3.108c.045-1.328.24-2.64.561-3.817h2.547zm-4.285 4.993c.041 1.28.215 2.548.502 3.71h-3.332c-.623-1.11-1.012-2.37-1.1-3.71h3.93zm-2.041 4.887h2.885c.36 1.062.888 2.18 1.623 3.015-1.803-.511-3.372-1.584-4.508-3.015zm9.32 3.015c.734-.835 1.264-1.952 1.623-3.015h2.885c-1.136 1.431-2.705 2.504-4.508 3.015zm4.422-14.072h-2.824c-.344-1.005-.841-2.066-1.523-2.886 1.727.507 3.235 1.528 4.347 2.886zm-9.31-2.886c-.68.82-1.178 1.881-1.522 2.886h-2.824c1.112-1.358 2.62-2.38 4.347-2.886z" transform="translate(-1644 -1607)"/>
        </g>
    </g>
</svg>
