<svg width="280" height="135" viewBox="0 0 280 135" fill="none" xmlns="http://www.w3.org/2000/svg">
<g clip-path="url(#clip0)">
<path d="M43.4337 71.4852C43.4337 72.65 44.3471 73.556 45.5216 73.556C46.6961 73.556 47.6096 72.65 47.6096 71.4852C47.6096 70.3203 46.6961 69.4143 45.5216 69.4143C44.3471 69.4143 43.4337 70.3203 43.4337 71.4852ZM61.0508 69.4143C59.8763 69.4143 58.9628 70.3203 58.9628 71.4852C58.9628 72.65 59.8763 73.556 61.0508 73.556C62.2252 73.556 63.1387 72.65 63.1387 71.4852C63.1387 70.3203 62.2252 69.4143 61.0508 69.4143ZM61.0508 85.0751C59.8763 85.0751 58.9628 85.9811 58.9628 87.146C58.9628 88.3108 59.8763 89.2168 61.0508 89.2168C62.2252 89.2168 63.1387 88.3108 63.1387 87.146C63.1387 85.9811 62.2252 85.0751 61.0508 85.0751Z" fill="white"/>
<path d="M65.4877 52.2002C63.3997 49.6116 59.6153 49.4822 57.3969 51.5531L57.1359 51.8119L56.6139 52.2002C54.5259 53.8828 51.394 53.7533 49.4365 51.8119V51.6825C48.7841 51.0353 47.8706 50.5176 46.9571 50.2588C46.8266 50.2588 46.5656 50.1293 46.4351 50.1293H44.3472C44.2167 50.1293 44.0862 50.1293 43.9557 50.2588H43.6947C43.5642 50.2588 43.4337 50.3882 43.3032 50.3882C43.3032 50.3882 43.1727 50.3882 43.1727 50.5176C43.0422 50.5176 42.9117 50.6471 42.7812 50.6471C42.7812 50.6471 42.6507 50.6471 42.6507 50.7765C42.5202 50.9059 42.3897 50.9059 42.2592 51.0353C42.2592 51.0353 42.1287 51.0353 42.1287 51.1648C41.9982 51.2942 41.8677 51.2942 41.7372 51.4236L41.6067 51.5531L41.3457 51.8119L40.8237 52.2002C38.7358 53.8828 35.6039 53.7533 33.7769 51.8119C33.7769 51.8119 33.6464 51.8119 33.6464 51.6825L33.3854 51.4236C32.6024 50.7765 31.6889 50.2588 30.645 50.1293H30.123H28.4265H28.296C28.296 50.2588 28.1655 50.2588 28.035 50.3882H27.9045C27.252 50.6471 26.5996 50.9059 26.0776 51.4236L25.9471 51.5531L25.5556 51.9413C25.0336 52.459 24.7726 53.1062 24.5116 53.6239C24.5116 53.7533 24.3811 53.8828 24.3811 54.0122C24.3811 54.1416 24.2506 54.271 24.2506 54.5299C24.1201 55.4359 24.1201 56.3419 24.3811 57.2479C24.3811 57.3773 24.5116 57.5068 24.5116 57.6362V57.7656C24.5116 57.895 24.6421 58.0245 24.6421 58.1539C24.7726 58.2833 24.7726 58.4128 24.9031 58.6716C25.1641 58.801 25.4251 59.0599 25.5556 59.1893L25.8166 59.4482L26.0776 59.707C28.035 61.6485 28.035 65.0136 25.9471 67.0844C25.6861 67.3433 25.2946 67.7316 25.1641 67.9904C25.0336 68.1199 25.0336 68.2493 24.9031 68.5082V68.6376C24.7726 68.767 24.7726 68.8964 24.6421 69.0259V69.1553C24.6421 69.2847 24.5116 69.4142 24.5116 69.5436V69.673C24.5116 69.8024 24.5116 69.9319 24.3811 70.0613V72.0027C24.3811 72.1321 24.3811 72.2616 24.5116 72.391V72.5204C24.7726 73.4264 25.2946 74.3324 26.0776 75.109C28.1655 77.1798 28.1655 80.545 26.0776 82.6158L25.9471 82.7453L25.6861 83.0041V83.1336C25.5556 83.263 25.4251 83.3924 25.4251 83.5218C25.4251 83.5218 25.4251 83.6513 25.2946 83.6513C25.1641 83.7807 25.1641 83.9101 25.0336 84.0395L24.9031 84.169C24.9031 84.2984 24.7726 84.2984 24.7726 84.4278C24.7726 84.5573 24.6421 84.5573 24.6421 84.6867C24.6421 84.8161 24.6421 84.8161 24.5116 84.9455C24.2506 85.4633 24.1201 86.1104 24.1201 86.6281V87.6635C24.2506 88.0518 24.2506 88.4401 24.5116 88.699C24.5116 88.8284 24.6421 88.9578 24.6421 88.9578C24.6421 88.9578 24.6421 89.0873 24.7726 89.0873C24.7726 89.2167 24.9031 89.3461 24.9031 89.4755C24.9031 89.4755 24.9031 89.605 25.0336 89.605C25.1641 89.8638 25.2946 89.9933 25.4251 90.1227C25.4251 90.1227 25.4251 90.2521 25.5556 90.2521C25.5556 90.2521 25.5556 90.3815 25.6861 90.3815C25.6861 90.511 25.8166 90.511 25.8166 90.511L25.9471 90.6404C26.0776 90.7698 26.2081 90.7698 26.2081 90.8993L26.3386 91.0287C26.3386 91.0287 26.4691 91.0287 26.4691 91.1581C26.5996 91.2875 26.7301 91.417 26.8606 91.417C26.8606 91.417 26.9911 91.417 26.9911 91.5464C27.1215 91.6758 27.252 91.6758 27.3825 91.8052H27.513C27.6435 91.9347 27.774 91.9347 28.035 91.9347C28.1655 91.9347 28.4265 92.0641 28.557 92.0641H28.6875C28.818 92.0641 28.9485 92.0641 29.079 92.1935H30.2535C30.645 92.1935 30.906 92.0641 31.2975 92.0641H31.428C31.5584 92.0641 31.6889 91.9347 31.8194 91.9347H31.9499C32.0804 91.9347 32.2109 91.8052 32.3414 91.8052H32.4719C32.7329 91.6758 33.1244 91.417 33.3854 91.2875L33.7769 90.8993L33.9074 90.7698C35.9953 88.5695 39.3883 88.5695 41.4762 90.7698C43.8252 93.229 47.7401 93.0995 49.9585 90.3815C51.5245 88.4401 51.5245 85.5927 49.9585 83.5218C47.8706 80.9333 44.0862 80.8038 41.8677 82.8747L41.6067 83.1336L41.0847 83.5218C38.9968 85.2044 35.8649 85.075 33.9074 83.1336L33.6464 82.8747L33.2549 82.357C31.5584 80.2861 31.6889 77.1798 33.6464 75.2384C34.8209 74.203 35.3429 72.7793 35.3429 71.3556V71.0967V70.9673C35.3429 69.673 34.8209 68.3787 33.7769 67.4727C33.7769 67.3433 33.6464 67.3433 33.6464 67.2139L33.2549 66.6962C31.5584 64.6253 31.6889 61.519 33.6464 59.5776L33.7769 59.4482L33.9074 59.3187C35.9953 57.1185 39.3883 57.1185 41.4762 59.3187L41.6067 59.4482L41.7372 59.5776L41.9982 59.8365C42.1287 59.8365 42.1287 59.9659 42.2592 59.9659C42.3897 59.9659 42.3897 60.0953 42.5202 60.0953C42.6507 60.0953 42.6507 60.2247 42.7812 60.2247C42.9117 60.2247 42.9117 60.3542 43.0422 60.3542C43.1727 60.3542 43.1727 60.4836 43.3032 60.4836C43.4337 60.4836 43.4337 60.613 43.5642 60.613C43.6947 60.613 43.6947 60.613 43.8252 60.7425C43.9557 60.7425 43.9557 60.7425 44.0862 60.8719H46.3046C46.4351 60.8719 46.5656 60.8719 46.6961 60.7425H46.9571C47.0876 60.7425 47.2181 60.613 47.3486 60.613H47.4791C47.6096 60.613 47.7401 60.4836 48.0011 60.3542C48.5231 60.0953 49.0451 59.707 49.4365 59.3187L49.567 59.1893C51.655 56.989 55.0479 56.989 57.1359 59.1893C59.3543 61.7779 63.3997 61.6485 65.4877 58.9305C67.0536 56.989 67.0536 54.1416 65.4877 52.2002Z" fill="white"/>
<path d="M95.241 68.2494C94.458 67.4728 93.8055 66.9551 92.8921 66.5668C92.1091 66.1785 91.1956 65.9197 90.0211 65.9197C88.9771 65.9197 87.9332 66.1785 87.1502 66.5668C86.3672 66.9551 85.7147 67.4728 85.1927 68.2494C84.6707 68.8965 84.2793 69.6731 84.0183 70.5791C83.7573 71.4851 83.6268 72.3911 83.6268 73.2971C83.6268 74.2031 83.7573 75.1091 84.1488 76.0151C84.4098 76.9211 84.9317 77.5682 85.4537 78.2154C85.9757 78.8625 86.7587 79.3802 87.5417 79.7685C88.3247 80.1568 89.2381 80.2862 90.2821 80.2862C91.4566 80.2862 92.3701 80.0274 93.1531 79.6391C93.936 79.2508 94.719 78.7331 95.3715 77.9565L98.1119 80.8039C97.068 81.9688 95.8935 82.7454 94.5885 83.2631C93.2835 83.7808 91.8481 84.0396 90.2821 84.0396C88.7162 84.0396 87.1502 83.7808 85.8452 83.2631C84.5402 82.7454 83.3658 81.9688 82.4523 81.0628C81.5388 80.1568 80.7558 78.9919 80.2338 77.6977C79.7119 76.4034 79.4509 74.8502 79.4509 73.2971C79.4509 71.744 79.7119 70.1908 80.2338 68.8965C80.7558 67.6022 81.5388 66.4374 82.4523 65.402C83.3658 64.496 84.5402 63.7194 85.8452 63.2017C87.1502 62.684 88.7162 62.4251 90.2821 62.4251C91.8481 62.4251 93.2835 62.684 94.5885 63.2017C96.024 63.7194 97.1985 64.6254 98.2424 65.6608L95.241 68.2494ZM104.115 73.0382C104.115 74.0737 104.245 75.1091 104.637 75.8857C104.898 76.7917 105.42 77.5682 105.942 78.2154C106.464 78.8625 107.247 79.3802 108.03 79.6391C108.813 80.0274 109.857 80.1568 110.901 80.1568C111.945 80.1568 112.858 80.0274 113.772 79.6391C114.555 79.2508 115.338 78.7331 115.86 78.2154C116.382 77.5682 116.904 76.7917 117.165 75.8857C117.426 74.9797 117.686 74.0737 117.686 73.0382C117.686 72.0028 117.556 70.9674 117.165 70.1908C116.904 69.2848 116.382 68.5082 115.86 67.8611C115.338 67.214 114.555 66.6962 113.772 66.4374C112.989 66.0491 111.945 65.9197 110.901 65.9197C109.857 65.9197 108.943 66.0491 108.03 66.4374C107.247 66.8257 106.464 67.3434 105.942 67.8611C105.42 68.5082 104.898 69.2848 104.637 70.1908C104.376 71.0968 104.115 72.0028 104.115 73.0382ZM99.9389 73.0382C99.9389 71.4851 100.2 70.0614 100.722 68.7671C101.244 67.4728 102.027 66.308 103.071 65.2725C104.115 64.2371 105.159 63.4605 106.594 62.9428C107.899 62.4251 109.335 62.0368 110.901 62.0368C112.467 62.0368 113.902 62.2957 115.207 62.9428C116.512 63.4605 117.686 64.2371 118.73 65.2725C119.774 66.308 120.427 67.4728 121.079 68.7671C121.601 70.0614 121.862 71.4851 121.862 73.0382C121.862 74.5914 121.601 76.0151 121.079 77.3094C120.557 78.6037 119.774 79.7685 118.73 80.8039C117.686 81.8394 116.643 82.4865 115.207 83.1336C113.902 83.6514 112.467 84.0396 110.901 84.0396C109.335 84.0396 107.899 83.7808 106.594 83.1336C105.289 82.6159 104.115 81.8394 103.071 80.8039C102.027 79.7685 101.374 78.7331 100.722 77.3094C100.33 76.0151 99.9389 74.5914 99.9389 73.0382ZM125.908 83.5219H129.823V62.8134H125.908V83.5219ZM124.994 55.3066C124.994 54.53 125.255 53.8828 125.777 53.2357C126.299 52.718 126.952 52.3297 127.735 52.3297C128.518 52.3297 129.17 52.5886 129.692 53.2357C130.214 53.7534 130.475 54.53 130.475 55.3066C130.475 56.0831 130.214 56.7303 129.692 57.3774C129.17 57.8951 128.518 58.2834 127.735 58.2834C126.952 58.2834 126.299 58.0246 125.777 57.3774C125.255 56.8597 124.994 56.0831 124.994 55.3066ZM135.304 62.8134H139.218V66.0491H139.349C139.871 64.8843 140.654 63.9783 141.959 63.3311C143.133 62.684 144.569 62.2957 146.265 62.2957C147.309 62.2957 148.223 62.4251 149.136 62.8134C150.05 63.0723 150.833 63.59 151.485 64.2371C152.138 64.8843 152.66 65.6608 153.182 66.6962C153.573 67.7317 153.834 68.8965 153.834 70.3202V83.6514H149.919V71.3557C149.919 70.4497 149.789 69.5437 149.528 68.8965C149.267 68.2494 148.875 67.6022 148.484 67.214C148.092 66.8257 147.57 66.4374 146.918 66.308C146.396 66.1785 145.743 66.0491 145.091 66.0491C144.308 66.0491 143.525 66.1785 142.872 66.4374C142.22 66.6962 141.567 67.0845 141.045 67.7317C140.523 68.2494 140.132 69.026 139.871 69.932C139.61 70.838 139.479 71.8734 139.479 73.0382V83.7808H135.565V62.8134H135.304ZM168.319 80.2862C169.363 80.2862 170.277 80.1568 171.19 79.7685C172.104 79.3802 172.756 78.8625 173.409 78.2154C173.931 77.5682 174.453 76.7917 174.714 75.8857C174.975 74.9797 175.236 74.0737 175.236 72.9088C175.236 71.8734 175.105 70.838 174.714 69.932C174.453 69.026 173.931 68.2494 173.409 67.6022C172.756 66.9551 172.104 66.4374 171.19 66.0491C170.277 65.6608 169.363 65.5314 168.319 65.5314C167.275 65.5314 166.362 65.6608 165.448 66.0491C164.535 66.4374 163.882 66.9551 163.23 67.6022C162.708 68.2494 162.186 69.026 161.925 69.932C161.664 70.838 161.403 71.744 161.403 72.9088C161.403 73.9442 161.533 74.9797 161.925 75.8857C162.186 76.7917 162.708 77.5682 163.23 78.2154C163.752 78.8625 164.535 79.3802 165.448 79.7685C166.231 80.0274 167.275 80.2862 168.319 80.2862ZM179.151 83.3925H175.236V80.4156H175.105C174.322 81.5805 173.278 82.3571 171.973 83.0042C170.668 83.6514 169.233 83.9102 167.797 83.9102C166.231 83.9102 164.665 83.6514 163.36 83.1336C162.055 82.6159 160.881 81.8394 159.968 80.8039C159.054 79.7685 158.271 78.6037 157.88 77.3094C157.358 76.0151 157.097 74.5914 157.097 73.0382C157.097 71.4851 157.358 70.0614 157.88 68.6377C158.402 67.3434 159.054 66.1785 159.968 65.1431C160.881 64.1077 162.055 63.3311 163.36 62.8134C164.665 62.2957 166.101 62.0368 167.797 62.0368C169.233 62.0368 170.668 62.2957 171.973 62.9428C173.278 63.59 174.322 64.496 174.975 65.5314H175.105V50H179.02V83.3925H179.151ZM199.117 71.3557C199.117 70.4497 198.986 69.6731 198.725 68.8965C198.464 68.12 198.073 67.4728 197.551 66.9551C197.029 66.4374 196.376 66.0491 195.724 65.6608C194.941 65.402 194.158 65.1431 193.114 65.1431C192.2 65.1431 191.287 65.2725 190.504 65.6608C189.721 66.0491 189.068 66.4374 188.416 67.0845C187.894 67.6022 187.372 68.2494 187.111 69.026C186.85 69.8025 186.589 70.4497 186.589 71.0968H199.117V71.3557ZM186.589 74.5914C186.589 75.4974 186.85 76.2739 187.241 77.0505C187.633 77.8271 188.155 78.4742 188.807 78.9919C189.46 79.5096 190.243 79.8979 191.026 80.1568C191.939 80.4156 192.722 80.5451 193.636 80.5451C194.81 80.5451 195.985 80.2862 196.898 79.6391C197.812 79.1214 198.595 78.3448 199.378 77.4388L202.379 79.7685C200.161 82.6159 197.029 84.0396 193.114 84.0396C191.417 84.0396 189.982 83.7808 188.677 83.2631C187.372 82.7454 186.197 81.9688 185.284 80.9334C184.37 79.8979 183.587 78.8625 183.196 77.4388C182.674 76.1445 182.413 74.7208 182.413 73.1677C182.413 71.6145 182.674 70.1908 183.196 68.8965C183.718 67.6022 184.501 66.4374 185.414 65.402C186.328 64.3665 187.502 63.7194 188.807 63.0723C190.112 62.5545 191.548 62.2957 193.114 62.2957C194.941 62.2957 196.507 62.5545 197.812 63.2017C199.117 63.8488 200.161 64.6254 200.944 65.6608C201.727 66.6963 202.379 67.8611 202.771 69.1554C203.162 70.4497 203.293 71.744 203.293 73.1677V74.5914H186.589ZM218.691 67.9905C218.169 67.4728 217.647 66.9551 216.995 66.5668C216.342 66.1785 215.429 65.9197 214.515 65.9197C213.602 65.9197 212.819 66.1785 212.036 66.5668C211.383 66.9551 210.992 67.4728 210.992 68.2494C210.992 68.8965 211.253 69.4142 211.644 69.6731C212.036 70.0614 212.558 70.3202 213.08 70.5791C213.602 70.838 214.254 70.9674 214.776 71.0968C215.429 71.2262 215.951 71.3557 216.342 71.3557C217.125 71.6145 218.039 71.744 218.691 72.1322C219.474 72.3911 220.127 72.7794 220.649 73.2971C221.171 73.8148 221.562 74.3325 221.954 74.9797C222.215 75.6268 222.476 76.4034 222.476 77.4388C222.476 78.6037 222.215 79.6391 221.693 80.4156C221.171 81.1922 220.518 81.9688 219.735 82.4865C218.952 83.0042 218.039 83.3925 216.995 83.6514C215.951 83.9102 214.907 84.0396 213.993 84.0396C212.297 84.0396 210.731 83.7808 209.426 83.2631C208.121 82.7454 206.946 81.8394 205.902 80.4156L208.904 77.9565C209.556 78.6037 210.209 79.1214 210.992 79.6391C211.775 80.1568 212.688 80.4156 213.863 80.4156C214.385 80.4156 214.907 80.4156 215.429 80.2862C215.951 80.1568 216.342 80.0274 216.734 79.7685C217.125 79.5097 217.386 79.2508 217.647 78.9919C217.908 78.6037 218.039 78.2154 218.039 77.8271C218.039 77.3094 217.908 76.7917 217.517 76.4034C217.125 76.0151 216.734 75.7562 216.212 75.4974C215.69 75.2385 215.168 75.1091 214.646 74.9797L213.08 74.5914C212.297 74.3325 211.383 74.2031 210.731 73.9442C209.948 73.6854 209.295 73.2971 208.773 72.9088C208.251 72.5205 207.729 71.8734 207.338 71.2262C206.946 70.5791 206.816 69.6731 206.816 68.7671C206.816 67.7317 207.077 66.6962 207.468 65.9197C207.86 65.1431 208.512 64.496 209.295 63.9783C210.078 63.4605 210.861 63.0723 211.775 62.8134C212.688 62.5545 213.732 62.4251 214.646 62.4251C216.081 62.4251 217.386 62.684 218.691 63.2017C219.996 63.7194 221.04 64.6254 221.823 65.7903L218.691 67.9905ZM226.26 50.5177H230.175V71.4851L239.049 62.684H244.399L234.873 72.0028L245.313 83.1336H239.701L230.175 72.5205V83.1336H226.26V50.5177Z" fill="white"/>
</g>
<path d="M195.774 97.0859H197.263V94.0018L199.282 92.0078L202.789 97.0859H204.455L200.211 91.0507L203.878 87.3419H202.213L197.311 92.2338H197.263V87.3419H195.774V97.0859Z" fill="white"/>
<path d="M210.11 97.2587C213.057 97.2587 215.123 95.3179 215.123 92.1806C215.123 89.0567 213.057 87.1558 210.11 87.1558C207.162 87.1558 205.096 89.0567 205.096 92.1806C205.096 95.3179 207.162 97.2587 210.11 97.2587ZM210.11 96.1819C207.995 96.1819 206.618 94.6133 206.618 92.1806C206.618 89.7347 207.995 88.2325 210.11 88.2325C212.224 88.2325 213.601 89.7347 213.601 92.1806C213.601 94.6133 212.224 96.1819 210.11 96.1819Z" fill="white"/>
<path d="M225.793 97.0859L222.782 92.8187C224.384 92.4997 225.441 91.6356 225.441 90.0803C225.441 88.0464 223.727 87.3419 221.341 87.3419H217.657V97.0859H219.146V92.9516H221.26L224.111 97.0859H225.793ZM219.146 88.3389H221.116C222.99 88.3389 223.967 88.7908 223.967 90.0803C223.967 91.3564 222.99 91.9546 221.116 91.9546H219.146V88.3389Z" fill="white"/>
<path d="M227.824 97.0859H234.775V96.0357H229.313V92.4864H233.766V91.4362H229.313V88.3787H234.599V87.3419H227.824V97.0859Z" fill="white"/>
<path d="M243.743 97.0859H245.313L241.324 87.3419H239.675L235.686 97.0859H237.192L238.329 94.1082H242.622L243.743 97.0859ZM238.698 93.1245L239.274 91.6356C239.707 90.519 240.075 89.5087 240.443 88.3389H240.507C240.892 89.4688 241.26 90.519 241.693 91.6356L242.253 93.1245H238.698Z" fill="white"/>
<defs>
<clipPath id="clip0">
<rect width="225.76" height="42.7113" fill="white" transform="translate(24.1201 50)"/>
</clipPath>
</defs>
</svg>
