<svg width="280" height="135" viewBox="0 0 280 135" fill="none" xmlns="http://www.w3.org/2000/svg">
<path fill-rule="evenodd" clip-rule="evenodd" d="M185.064 60.4484C185.064 56.8242 182.141 56.4698 182.141 56.4698L177.994 56.4497V64.2618H181.104C181.104 64.2618 185.06 64.0766 185.064 60.4484Z" fill="white"/>
<path fill-rule="evenodd" clip-rule="evenodd" d="M181.941 76.3424C181.941 76.3424 186.967 76.129 186.967 71.9773C186.967 67.8297 183.256 67.427 183.256 67.427L177.994 67.4028V76.3424H181.941Z" fill="white"/>
<path fill-rule="evenodd" clip-rule="evenodd" d="M198.862 59.1436C197.254 59.1436 195.952 57.8631 195.952 56.2765C195.952 54.6899 197.254 53.4054 198.862 53.4054C200.467 53.4054 201.769 54.6899 201.769 56.2765C201.765 57.8631 200.467 59.1436 198.862 59.1436ZM201.495 79.5919H196.474V62.9007H201.491V79.5919H201.495ZM235.431 34L174.569 53.7517L184.966 53.7436C184.966 53.7436 191.094 54.6819 191.094 59.055C191.094 63.4242 186.852 65.5624 186.852 65.5624C186.852 65.5624 192.412 65.7517 192.412 71.796C192.412 77.8403 184.68 79.4188 184.68 79.4188H173.087V54.2349L168.861 55.604C168.147 55.604 167.567 56.1758 167.567 56.8805V92.7235C167.567 93.4282 168.147 94 168.861 94L213.309 79.5718C209.962 79.5718 206.876 79.5718 206.006 79.5718C203.871 79.5718 205.786 76.6604 205.786 76.6604L214.477 65.8403H206.043V63.0859L205.786 63.0215H220.927V65.7154L211.415 76.8215H221.78L235.427 72.3919C236.142 72.3919 236.717 71.8201 236.717 71.1154V35.2765C236.721 34.5718 236.142 34 235.431 34Z" fill="white"/>
<path fill-rule="evenodd" clip-rule="evenodd" d="M54.337 77.1921C57.6641 77.1921 60.6727 75.3921 61.6239 74.9652C61.8606 74.8847 62.0239 75.078 62.0525 75.2753C62.1382 75.9035 62.0974 78.0498 61.9382 78.674C61.8974 78.831 61.7014 79.0646 61.4238 79.1411C59.248 79.8458 56.6721 80.3934 54.337 80.3934C45.4213 80.3934 40 75.1948 40 67.0726C40 60.4726 45.111 53.6713 55.0514 53.7155C57.1905 53.7155 59.6072 54.0619 62.2566 54.9236C62.575 55.0404 62.6118 55.2377 62.6118 55.431C62.4567 56.6068 62.1831 57.6216 61.6688 58.6726C61.5463 58.9102 61.3055 58.8659 61.1503 58.8296C60.7952 58.7129 58.1009 56.9129 54.3411 56.9129C49.4668 56.9129 46.0663 60.3921 46.0663 67.0726C46.0622 73.7169 49.3852 77.1921 54.337 77.1921Z" fill="white"/>
<path fill-rule="evenodd" clip-rule="evenodd" d="M83.0356 68.828V79.6521C83.0356 79.7689 82.9581 79.9662 82.7989 80.0065C82.4804 80.0427 80.7373 80.083 80.3822 80.083C80.027 80.083 78.2839 80.0427 77.9695 80.0065C77.8062 79.9662 77.7695 79.7689 77.7695 79.6521V70.0763C77.7695 68.3206 77.5286 66.7219 75.1936 66.7219C73.7729 66.7219 72.7769 67.3421 71.0745 68.5944V79.6521C71.0745 79.7689 70.997 79.9662 70.8378 80.0065C70.5194 80.0427 68.7762 80.083 68.4211 80.083C68.0618 80.083 66.3228 80.0427 66.0084 80.0065C65.8492 79.9662 65.7676 79.7689 65.7676 79.6521V54.1823C65.7676 54.0615 65.8043 53.8682 66.0084 53.828C66.2819 53.7515 68.0618 53.7515 68.4211 53.7515C68.7762 53.7515 70.5194 53.7515 70.8378 53.828C70.997 53.8682 71.0745 54.0615 71.0745 54.1823V65.6226C72.7769 64.2575 74.9568 63.0857 77.2143 63.0857C80.1413 63.0857 83.0356 64.8817 83.0356 68.828Z" fill="white"/>
<path fill-rule="evenodd" clip-rule="evenodd" d="M99.1891 73.0078C99.1891 70.5837 98.6339 65.393 95.1109 65.393C92.4941 65.393 91.5878 67.8575 91.5878 70.2776C91.5878 72.6977 92.1389 77.8924 95.666 77.8924C98.2787 77.8924 99.1891 75.436 99.1891 73.0078ZM104.574 71.6427C104.574 76.2534 101.879 80.2763 95.3884 80.2763C89.0895 80.2763 86.1992 76.2534 86.1992 71.6427C86.1992 67.0279 89.5263 63.0132 95.3884 63.0132C101.324 63.0132 104.57 67.0279 104.574 71.6427Z" fill="white"/>
<path fill-rule="evenodd" clip-rule="evenodd" d="M114.265 66.0577C113.314 66.0577 111.73 66.2913 111.73 67.5396C111.73 70.2779 121.001 68.6349 121.001 75.0416C121.001 79.5356 115.853 80.3933 113.195 80.3933C111.175 80.3933 108.048 79.8457 106.819 79.3383C106.664 79.298 106.545 79.141 106.545 79.0282C106.545 78.8671 106.701 78.1665 106.86 77.6591C107.056 77.1114 107.256 76.5275 107.374 76.4108C107.456 76.3302 107.611 76.3302 107.77 76.3665C110.028 77.1114 111.971 77.3853 113.118 77.3853C114.151 77.3853 115.89 77.192 115.89 75.8228C115.89 72.541 106.901 74.6913 106.901 68.2081C106.901 64.6121 110.779 63.0859 114.151 63.0859C116.682 63.0859 118.821 63.6739 119.89 64.0604C120.005 64.1088 120.168 64.2215 120.168 64.3786C120.168 64.5316 119.927 65.2765 119.809 65.7034C119.65 66.2148 119.413 66.9557 119.339 67.0282C119.217 67.153 119.054 67.1531 118.935 67.1128C117.4 66.4443 115.453 66.0577 114.265 66.0577Z" fill="white"/>
<path fill-rule="evenodd" clip-rule="evenodd" d="M141.396 79.6521C141.396 79.7689 141.351 79.9662 141.192 80.0064C141.077 80.0427 139.212 80.083 138.857 80.083C138.497 80.083 136.636 80.0427 136.526 80.0064C136.362 79.9662 136.326 79.7689 136.326 79.6521V77.9326C134.738 79.2212 132.876 80.3205 130.386 80.3205C126.736 80.3205 124.165 78.5568 124.165 74.6507V63.7541C124.165 63.6373 124.242 63.4803 124.405 63.4038C124.561 63.3635 126.463 63.3232 126.818 63.3232C127.173 63.3232 129.071 63.3635 129.227 63.4038C129.39 63.4803 129.476 63.6373 129.476 63.7541V73.4024C129.476 75.1622 129.827 76.6078 132.162 76.6078C133.586 76.6078 134.546 76.0199 136.126 74.7675V63.7541C136.126 63.6373 136.203 63.4803 136.362 63.4038C136.526 63.3635 138.42 63.3232 138.779 63.3232C139.134 63.3232 141.037 63.3635 141.192 63.4038C141.351 63.4803 141.396 63.6373 141.396 63.7541V79.6521Z" fill="white"/>
<path fill-rule="evenodd" clip-rule="evenodd" d="M162.963 68.7557V79.6524C162.963 79.7692 162.922 79.9222 162.767 80.0067C162.608 80.043 160.705 80.0833 160.346 80.0833C159.991 80.0833 158.089 80.043 157.933 80.0067C157.77 79.9222 157.697 79.7692 157.697 79.6524V70C157.697 68.2403 157.497 66.6819 155.121 66.6819C153.696 66.6819 152.7 67.2658 150.998 68.5182V79.6524C150.998 79.7692 150.92 79.9222 150.765 80.0067C150.647 80.043 148.736 80.0833 148.352 80.0833C147.993 80.0833 146.091 80.043 145.931 80.0067C145.776 79.9222 145.731 79.7692 145.731 79.6524V63.9839C145.731 63.8712 145.776 63.6376 145.972 63.5933C147.475 63.4041 149.973 63.3235 150.61 63.5168C150.765 63.5571 150.842 63.7141 150.842 63.8269V65.7034C152.545 64.3343 154.802 63.0859 157.182 63.0859C160.113 63.0859 162.963 64.8416 162.963 68.7557Z" fill="white"/>
</svg>
