<svg width="281" height="135" viewBox="0 0 281 135" fill="none" xmlns="http://www.w3.org/2000/svg">
<path d="M191.621 53.5884C191.621 53.7658 191.767 53.9137 191.95 53.9137V53.9359C192.719 53.9359 193.341 54.5719 193.341 55.3484V61.612H188.7C188.012 61.6342 187.939 61.9226 188.188 62.322L189.615 64.6662H193.341V82.6658H195.617C197.008 82.6658 198.15 81.4161 198.15 79.8631V53.2334H191.943C191.767 53.2334 191.621 53.4035 191.621 53.5884ZM199.145 53.2334C198.969 53.2334 198.816 53.4109 198.816 53.5884C198.816 53.7658 198.962 53.9137 199.145 53.9137V53.9359C199.914 53.9359 200.543 54.5719 200.543 55.3484V82.6658H202.761C204.225 82.6658 205.403 81.3495 205.403 79.7226V53.2334H199.145ZM190.618 69.1254C189.432 68.5634 185.955 65.6719 185.45 64.9176C186.878 62.7139 189.476 57.0493 189.476 54.8899C189.476 53.9803 188.832 53.2408 188.034 53.2408H176.638C175.95 53.263 175.877 53.5514 176.126 53.9581L177.626 56.4133H183.694C183.152 62.6104 179.302 69.828 174.728 73.0818C174.391 73.3258 174.318 73.5551 174.457 73.7843C174.567 73.9692 174.837 73.9914 175.233 73.9175C176.879 73.629 180.912 71.5584 184.25 66.833C184.645 67.6094 188.656 73.2963 189.476 74.2428C190.311 75.1894 190.838 75.4408 191.072 74.5091V69.8428C191.072 69.4138 190.94 69.2733 190.618 69.1254Z" fill="white"/>
<path d="M100.97 53.2334C100.794 53.2334 100.641 53.4109 100.641 53.5884C100.641 53.7658 100.787 53.9137 100.97 53.9137V53.9359C101.739 53.9359 102.354 54.5719 102.354 55.3484V60.3253H99.9601V53.2334H93.8045C93.6288 53.2334 93.4824 53.4109 93.4824 53.5884C93.4824 53.7658 93.6288 53.9137 93.8045 53.9137V53.9359C94.573 53.9359 95.1805 54.5719 95.1805 55.3484V82.6658H97.4202C98.8182 82.6658 99.9528 81.4161 99.9528 79.8631V63.4312H102.346V82.6658H104.564C106.028 82.6658 107.206 81.3495 107.206 79.7226V53.2334H100.97Z" fill="white"/>
<path d="M76.4214 53.5736C76.4214 53.7584 76.5678 53.9064 76.7508 53.9064V53.9285C77.5193 53.9285 78.1634 54.6459 78.1634 55.341V70.5527C78.1634 72.6233 79.6492 73.9692 81.5083 73.9692H88.9082C90.6356 73.9692 92.019 72.5494 92.019 70.8041V53.2334L76.7508 53.2408C76.5678 53.2408 76.4214 53.3887 76.4214 53.5736ZM83.0308 56.3837H87.1296V70.7302H83.0308V56.3837Z" fill="white"/>
<path d="M159.862 55.5559C160.177 54.0473 159.35 53.2412 158.486 53.2412H143.994C143.306 53.2634 143.232 53.5518 143.481 53.9585L144.982 56.4137L154.043 56.4211C152.923 62.2706 147.28 65.7537 143.057 66.9961C142.735 67.0848 142.566 67.3141 142.632 67.6173C142.684 67.8613 142.998 67.9944 143.225 68.0018C149.22 68.1719 157.988 64.6888 159.862 55.5559ZM161.136 61.5681C160.448 61.5903 160.374 61.8861 160.623 62.2854L162.051 64.6296H166.296V68.1127H168.543C170.095 68.1127 171.346 66.7224 171.346 64.9994V53.2486H164.876C164.693 53.2486 164.554 53.4039 164.554 53.5888C164.554 53.7663 164.7 53.9142 164.876 53.9142V53.9363C165.652 53.9363 166.296 54.5723 166.296 55.3488V56.8796H161.128C160.44 56.9018 160.367 57.1902 160.616 57.5969L162.043 59.9412H166.289V61.5681H161.136ZM159.745 68.0684C152.865 68.0684 148.071 71.5071 148.071 75.7518C148.071 79.9892 152.865 83.4279 159.745 83.4279C166.625 83.4279 171.419 79.9892 171.419 75.7518C171.419 71.5071 166.625 68.0684 159.745 68.0684ZM159.745 80.3738C156.254 80.3738 153.421 78.3031 153.421 75.7444C153.421 73.1857 156.254 71.1151 159.745 71.1151C163.236 71.1151 166.062 73.1931 166.062 75.7444C166.062 78.3031 163.236 80.3738 159.745 80.3738Z" fill="white"/>
<path d="M133.219 53.8547V53.8695C133.988 53.8695 134.647 54.5055 134.647 55.282V67.3212H136.886C138.438 67.3212 139.69 65.9309 139.69 64.2078V53.1818H133.219C133.036 53.1818 132.89 53.3371 132.89 53.5219C132.89 53.6994 133.036 53.8547 133.219 53.8547ZM130.211 59.5563C130.211 55.5778 126.281 52.3535 120.425 52.3535C114.57 52.3535 110.632 55.5778 110.632 59.5563C110.632 63.5349 114.562 66.7665 120.425 66.7665C126.281 66.7665 130.211 63.5423 130.211 59.5563ZM115.763 59.5563C115.763 57.1677 117.849 55.2302 120.425 55.2302C122.994 55.2302 125.08 57.1677 125.08 59.5563C125.08 61.9449 122.994 63.8824 120.425 63.8824C117.849 63.8824 115.763 61.9449 115.763 59.5563ZM122.094 79.4491V77.0235H136.857C138.423 77.0235 139.697 75.611 139.697 73.8732V68.6227H115.96C115.411 68.6227 115.338 68.9333 115.587 69.34L117.029 71.7064H134.566V73.8584H115.528C115.346 73.8584 115.199 73.9989 115.199 74.1764C115.199 74.3613 115.346 74.5092 115.528 74.5092V74.5388C116.304 74.5388 116.941 75.1747 116.941 75.9586V79.4713C116.941 81.5567 118.464 82.666 120.345 82.666H140.144V79.4491H122.094Z" fill="white"/>
<path d="M205.279 87.5615H76.165V92.3535H205.279V87.5615Z" fill="white"/>
</svg>
