<svg width="116" height="116" viewBox="0 0 116 116" fill="none" xmlns="http://www.w3.org/2000/svg">
<path fill-rule="evenodd" clip-rule="evenodd" d="M32.9922 26.5713L41.3179 31.6288L49.6436 26.5713L57.9979 31.6461L66.3521 26.5713L74.6459 31.6094L82.9396 26.5713L82.9396 32.1071H75.4652H73.8266H58.7566H57.2391H42.1053H40.5306H32.9922L32.9922 26.5713ZM82.9707 32.1072H32.9707V84.8034H82.9707V32.1072ZM33.0022 90.3393L33.0021 84.8035H40.4766H57.1851H73.8363L82.9493 84.8035L82.9493 90.3393L74.6237 85.2819L66.2982 90.3393L57.9439 85.2645L49.5896 90.3393L41.2959 85.3012L33.0022 90.3393ZM51.3818 60.8794L54.2337 60.9639L56.2565 53.0305H58.5574L60.5802 60.9639L63.4321 60.8794L65.9429 53.0305H69.7709V50.7638H66.668L68.8432 43.9637H65.8867L63.8852 50.7638H60.2369L58.6619 43.9637H56.1521L54.577 50.7638H50.9287L48.9273 43.9637H45.9707L48.146 50.7638H45.9707V53.0305H48.871L51.3818 60.8794ZM52.9703 57.7002L54.052 53.0305H51.5959L52.9703 57.7002ZM57.407 48.5186L57.9794 50.7638H56.8345L57.407 48.5186ZM61.8436 57.7002L60.762 53.0305H63.2181L61.8436 57.7002ZM45.9707 67.9637H69.9707V65.9637H45.9707V67.9637ZM63.9707 72.9637H51.9707V70.9637H63.9707V72.9637Z" fill="#154640"/>
</svg>
